<svg fill="none" height="16" viewBox="0 0 13 16" width="13" xmlns="http://www.w3.org/2000/svg"><path d="m6.39746 8.09375c.24609 0 .45117-.08203.6084-.24609l2.7959-2.83008c.1914-.19141.28714-.41016.28714-.66309 0-.23926-.10257-.47851-.28714-.66308l-2.78906-2.836918c-.16407-.177734-.36915-.259765-.61524-.259765-.49219 0-.88184.396484-.88184.902343 0 .24609.09571.43066.2461.58789l1.30566 1.27832c-.21191-.02734-.42383-.03418-.6289-.03418-3.44532 0-6.179691 2.74121-6.179691 6.2002 0 3.4521 2.789061 6.248 6.241211 6.248s6.2412-2.7959 6.2412-6.248c0-.55371-.3896-.93653-.9297-.93653-.5263 0-.8955.38282-.8955.93653 0 2.4473-1.96873 4.416-4.416 4.416s-4.40918-1.9687-4.40918-4.416c0-2.50196 1.90723-4.4502 4.34766-4.4502.30761 0 .58789.01367.84765.04102l-1.52441 1.5039c-.15039.15723-.2461.33496-.2461.58106 0 .49902.38965.88867.88184.88867z" fill="#f50e0e"/></svg>