<svg viewBox="0 0 410 430" xmlns="http://www.w3.org/2000/svg"><g fill="#ded120"><path d="m197.23 67.7s26.93 8.1 53.19-16.64 63-58.34 108.77-47.16 48.75 28.41 49 40.51-20.82 33.31-49.92 46-79.9 18.91-74 46.46z"/><path d="m209.71 318.61s-17.12 7.43-6.31 24.3 26.25 54.18 11.23 68.72-51.06 26.4-71.8 5-8.55-53.34-4.49-64 8.05-22.35-5.22-28.68z"/><path d="m78.81 306.55s-17.4-3.07-30 13.52-39.09 6.35-45.18-16.64 4.14-30.15 15.84-35.58 17.55-17.78 18-22.56z"/></g><g fill="#fff" stroke="#69cad2" stroke-miterlimit="10"><path d="m208.85 71.61s19.22 1.21 25.49-5.32 17.2-19.55 26.86-16.54 25.91 15.47 29.37 28.25 2.05 22.36-4.28 25.68-18.89 14.73-16.94 32.32z" stroke-width="2"/><path d="m122.7 323.91s18.11 6.75 18.89 17.92.2 25.64 8.73 33.06 24.49 6.3 34 4 22-6.35 22.59-20.83-10.22-31.35 8.15-43.86z" stroke-width=".87"/><g stroke-width="2"><path d="m36.68 236.11s5.13 6-.83 15.07.46 24.59 14.14 40.46 18.92 19.94 28.2 16.68 14.51.8 14.51.8z"/><circle cx="165.03" cy="196.55" r="135.95" transform="matrix(.17364818 -.98480775 .98480775 .17364818 -57.19 324.94)"/></g></g></svg>