<svg viewBox="0 0 400 540" xmlns="http://www.w3.org/2000/svg"><path d="m182.45 149.55s24.2-5 22.33-43-3.65-90.17 35.43-101.35 54.52 4.8 64.12 16.93 12.16 44 2.72 71.14-38.3 58.48-12.89 83.48z" fill="#f16e6d"/><path d="m114.63 497.46s-24.42 0-37.63 25.61-51.64 18-65.44-11.82-1.6-42 13-52.24 19.62-28.42 19-35z" fill="#ded120"/><g fill="#fff" stroke="#69cad2" stroke-miterlimit="10" stroke-width="2"><path d="m164.64 153.76s22.18-14.72 23.63-27.14 2.61-35.89 15.73-40.62 41.46-4.61 55.89 6.52 20.93 22.9 16.74 31.85-8.43 32.03 8.37 49.73z"/><path d="m40.39 411.69s8.41 6.87 2.48 20.71 6.53 33.36 29 51.68 30.53 22.6 42.38 15.93 19.95-2.39 19.95-2.39z"/><circle cx="205.58" cy="327.03" r="187.9"/></g></svg>