<svg viewBox="0 0 650 480" xmlns="http://www.w3.org/2000/svg"><path d="m235 292.43s-14.39-24.17-52-9.27-120 36-150 14.63-52.14-72.17-3.8-100.95 116.4-11.12 139.08-5.24 47.72 11.69 62.72-6.85z" fill="#373d5d"/><path d="m257.9 109.34s5.1-24.26-17.6-42.74-7.12-55.08 25.4-62.6 42.1 7.18 49.2 23.83 24.1 25.46 30.83 26.24z" fill="#f16e6d"/><g fill="#fff" stroke="#69cad2" stroke-miterlimit="10" stroke-width="2"><path d="m231.56 170.12s-10.29 25.1-26 25.69-36-.89-46.77 10.75-9.95 34.07-7.2 47.45 7.91 31.15 28.19 32.64 44.44-12.91 61.16 13.42z"/><path d="m358.63 53.45s-8.58 6.93-21.1-1.85-34.52-.47-57.4 18-28.83 25.63-24.67 38.8-1.79 20.33-1.79 20.33z"/><circle cx="429.72" cy="258.71" r="218.23" transform="matrix(.20552101 -.9786527 .9786527 .20552101 88.24 626.11)"/></g></svg>