<svg viewBox="0 0 1042 880" xmlns="http://www.w3.org/2000/svg"><ellipse cx="573.68" cy="472.61" fill="#373d5d" rx="172.53" ry="134.15" transform="matrix(.96538164 -.26084151 .26084151 .96538164 -103.39 165.95)"/><path d="m744.68 316.2 1.76.47a37.66 37.66 0 0 1 -3.28 2.7h13.24v1.52q-8.2 7.62-24.49 11.72c-.08-.23-.23-.62-.47-1.17-.16-.16-.23-.27-.23-.35q14.88-3.52 23-10.2h-12.93q-.7.47-1.64 1.05a46.36 46.36 0 0 1 4.8 3.16l-1.05 1.17q-.82-.58-2.23-1.52-1.76-1.29-2.81-2-.94.59-3.16 1.76a15.9 15.9 0 0 0 -1.64.82 7.38 7.38 0 0 0 -.94-1.41 39 39 0 0 0 12.07-7.72zm3.52 11.48 1.41.82q-1.41 1.17-2.81 2.23h10.9v1.64q-8.44 9.38-25.31 12.3l-.39-.67q-.24-.59-.35-.82 15.82-2.46 24-11h-11a14.52 14.52 0 0 1 -2.7 1.76q.94.7 2.81 2 1.17.82 1.76 1.29l-1.17 1.17a46 46 0 0 0 -4.8-3.63 54.89 54.89 0 0 1 -6.45 3l-.94-1.52a50.4 50.4 0 0 0 15.04-8.56z"/><path d="m761 327.1h27.66v1.52h-9.26v11q-.24 2.46 2.34 2.23h2.11q2.69.12 3-2.11a13.84 13.84 0 0 0 .35-2.93 3.25 3.25 0 0 0 .12-.7q.7.24 1.64.47a2 2 0 0 1 -.12.59 14.9 14.9 0 0 1 -.35 2.81q-.47 3.75-4.57 3.52h-2.58q-3.75.12-3.63-3.4v-11.47h-6.71a9.54 9.54 0 0 1 -.12 1.88q.47 10-8.67 14.06a9.37 9.37 0 0 0 -1.17-1.41q5.15-2.58 6.45-4.92 1.64-2.34 1.76-7.62a10.46 10.46 0 0 0 .12-2h-8.37zm2.81-8.55h22.15v1.52h-22.18z"/><path d="m791.79 321.48h3q.94-2.81 1.41-4.8l1.64.35q-.7 2.35-1.41 4.45h6v22.52h-1.64v-2.34h-7.5v2.58h-1.52zm1.52 1.41v8h7.5v-8zm0 9.38v8.09h7.5v-8.09zm11.69-4.46a5.08 5.08 0 0 1 -.7-.47l-.7-.35a45.48 45.48 0 0 0 4.45-10.31l1.64.35q-.7 2.11-1.64 4.34h9.73v1.88q-.24 10.43-.59 16.05.12 4.57-5 4.69h-4.57a.91.91 0 0 0 -.12-.35 3.27 3.27 0 0 0 -.35-1.29q1.64.12 4.8.12 3.75.12 3.75-3.4.23-2.93.35-12.3.12-2.69.12-3.87h-8.67a46.89 46.89 0 0 1 -2.5 4.91zm1.29 1.41 1.17-.94c.16.23.39.55.7.94q2.58 3.16 4 5.27l-1.29.94q-2.21-3.29-4.55-6.22z"/><path d="m821.32 336a3.46 3.46 0 0 0 -.82-1.05 19.45 19.45 0 0 0 4.22-6.09l1.29.47-.35.7a4 4 0 0 1 -.59.94h4.22l.94-2.11 1.29.35-.82 1.79h5.51v1.17h-5.62v2.46h5.27v1.17h-5.27v2.58h5.27v1.17h-5.27v2.34h5.51v1.11h-11.73v1.64h-1.37v-10.51a9.43 9.43 0 0 1 -1.68 1.87zm-.32-16.87h5.16v-2.23h1.29v5.27h-1.29v-1.87h-5.16zm1.05 4.1h6v5h-6zm1.29 1.17v2.7h3.4v-2.7zm1.05 7.73v2.46h4.8v-2.46zm0 3.63v2.58h4.8v-2.58zm0 3.75v2.34h4.8v-2.34zm5.51-16.29h6v5h-6zm.59-6.33h1.41v2.23h4.45v1.17h-4.45v1.88h-1.41zm.7 7.5v2.7h3.4v-2.7zm6.56-6.33h9.49v17.11h-2.34v6.09q0 1.52.94 1.41h.59q1.05.12 1.17-1.29a28.8 28.8 0 0 0 .23-3.16 4.07 4.07 0 0 0 1.29.23 30 30 0 0 1 -.23 3.4 2.26 2.26 0 0 1 -2.49 2.15h-.59q-2.46.12-2.34-2.7v-6.09h-2.34v.35q.47 6.33-4.34 8.91a3.39 3.39 0 0 1 -.35-.47 6.76 6.76 0 0 0 -.59-.7q4.33-2.35 3.87-7.85v-.23h-2zm1.41 1.41v3.87h6.68v-3.87zm0 5.16v4h6.68v-4zm0 5.27v4h6.68v-4z"/><path d="m850.39 343.63a40.46 40.46 0 0 0 2-4.69l1.29.35q-.7 2-1.87 4.92a10.61 10.61 0 0 0 -1.42-.58zm1.17-12.19h5.74v-2.81h-5.51v-10.43h12.3v10.43h-5.39v2.81h5.39v1.29h-5.39v2.93q1.76-.23 5-.47h.94v1.29q-1.17.12-5.27.35-6.21.47-8.44.7l-.23-1.52q3 0 6.56-.35v-2.93h-5.74zm1.64-12v7.85h4.1v-7.85zm.82 2.34 1.17-.35.35 1.05a21.72 21.72 0 0 1 .94 2.93l-1.17.35c-.08-.23-.2-.62-.35-1.17zm1.88 21.8q-.12-.94-.47-2.93a13.34 13.34 0 0 0 -.23-1.52l1.29-.12a5 5 0 0 0 .12.94q.47 2.46.59 3.52zm3.87-.35a33.62 33.62 0 0 0 -1.17-4.34l1.29-.23a33.41 33.41 0 0 1 1.17 4.22zm3-23.79h-4.1v7.85h4.1zm-3.4 6a37.61 37.61 0 0 0 1.17-4l1.17.35a24.77 24.77 0 0 1 -.94 3.16 8.48 8.48 0 0 1 -.23.94zm4.45 17.11q-.35-.7-.94-2t-.94-2l1.17-.47q1.05 2 2 3.87zm7-25.9h1.52v6.21h6.45v1.41h-6.45v7.15h5.39v13h-1.52v-1.76h-8.67v1.76h-1.52v-13h4.8zm-3.28 16.17v8.44h8.67v-8.44z"/><path d="m899.37 320v-1.41h7.15v17.23h2.11v1.41h-27.63v-1.41h2.23v-16.45a32.35 32.35 0 0 0 6.09-2l.82 1.17a25.14 25.14 0 0 1 -5.51 1.76v4.1h5.51v1.29h-5.54v4.31h5.63v1.29h-5.63v4.45h7.27v-6.68h1.41v6.68h3.72v-8.44h-5.16v-10.39h1.41v3.75h5.51v1.29h-5.51v4.05h5.16v9.73h6.68v-4.45h-4.92v-1.28h4.92v-4.3h-4.92v-1.29h4.92v-4.41zm-8.79 18.87 1.05 1.41q-6.21 2.93-9.37 4.34a4 4 0 0 0 -.7-1.05 1.38 1.38 0 0 0 -.23-.35 70.42 70.42 0 0 0 9.25-4.4zm16.88 5.63a82.33 82.33 0 0 0 -9.61-4.1l.94-1.41q1.05.47 3.28 1.41 4.33 1.76 6.21 2.7z"/><path d="m910.85 321.95h9v1.29h-9zm.94 4.1h7.27v1.29h-7.27zm0 4.22h7.27v1.29h-7.27zm0 4.22h7.27v9.61h-1.41v-1.87h-4.45v1.88h-1.41zm6.56-15.35h-5.86v-1.29h5.86zm-5.16 16.64v5.39h4.45v-5.39zm8.67-12.07h6.91v-2.46h-7.85v-1.17h5.16l-.7-.7a13.8 13.8 0 0 0 -2-1.87l1.05-1.05a25.27 25.27 0 0 1 3 2.81l-.94.82h5.51l-.82-.82q1.87-1.64 3-2.81l1.17.94q-.35.35-1.52 1.41t-1.41 1.29h5.74v1.17h-8.09v2.46h7v1.27h-7v2.34h8.44v1.29h-18.05v-1.29h8.32v-2.34h-6.91zm8.79 5.74h1.41q0 1.64.23 4.69h6.45v1.29h-6.33a23 23 0 0 0 .82 3.75 18.32 18.32 0 0 0 3.16-2.93l1.05.94a29.56 29.56 0 0 1 -3.75 3.4 2.47 2.47 0 0 0 .47.59 6 6 0 0 1 .35.59q.58 1.05 1.41.94.94.12 1.29-1.41a8.06 8.06 0 0 0 .35-1.29 7.29 7.29 0 0 1 .23-1.17l.94.47a.33.33 0 0 0 .23.12 10.65 10.65 0 0 1 -.47 2.46q-.59 2.46-2.46 2.34a2.63 2.63 0 0 1 -2.34-1.29 5.74 5.74 0 0 1 -1.17-1.76 26 26 0 0 1 -3.87 2.23q-.59.23-.82.35a5.27 5.27 0 0 0 -.82-1.29 20.81 20.81 0 0 0 4.92-2.34 24.49 24.49 0 0 1 -.94-4.69h-4.69v2.46l1.76-.35q1.05-.12 1.64-.23v1.29q-.59.12-2 .35a13.26 13.26 0 0 0 -1.41.23v1.76q.12 3.16-2.93 3.16h-2a4.45 4.45 0 0 0 -.23-1.41q1.17.12 1.88.12 2 .12 1.88-2v-1.52q-3 .47-4.1.7l-.23-1.41 4.34-.59v-2.58h-4.45v-1.29h4.45v-2.23q-1.76.12-3.63.12a5.08 5.08 0 0 0 -.12-.82 1 1 0 0 1 -.12-.47q3.16 0 8.32-.47l.23 1.29h-.35a17.7 17.7 0 0 1 -2.93.23v2.34h4.57q-.21-2.45-.21-4.67zm3 1.05 1.17-.82q1.41 1.64 2.34 2.58l-1.17.94q-.88-1.2-2.28-2.7z"/><path d="m940.74 330.5h12.89v1.29h-4.92v3.75h4.57v1.29h-4.57v4.57a15.7 15.7 0 0 0 4.92.7q7.26.35 15.47 0a7.94 7.94 0 0 0 -.59 1.64h-9.51q-3 0-5.62-.12-7.27-.12-9.73-4.45a14.83 14.83 0 0 1 -2.11 5.27 4.8 4.8 0 0 0 -1.17-1.05q2.34-3.16 2.46-9.61h1.41a13 13 0 0 1 -.12 1.52 7.82 7.82 0 0 1 -.12 1.64 8.85 8.85 0 0 0 3.16 4v-9.14h-6.45zm1.88-12.66h9.61v10h-9.61zm1.41 1.29v3h6.68v-3zm0 4.34v3h6.68v-3zm14.77 13.24.94 1.17a44.52 44.52 0 0 1 -4.92 3.28q-.35-.47-.94-1.17a29.87 29.87 0 0 0 4.9-3.28zm-4.47-18.71h13.83v1.29h-6.91l-.82 3.28h6.68v13h-11.84v-13h3.63l.7-3.28h-5.27zm2.46 5.86v2.7h8.79v-2.7zm0 3.87v2.7h8.79v-2.7zm0 3.87v2.7h8.79v-2.7zm10.55 9.38q-2.11-1.41-4.92-3l.94-1.17q2.58 1.41 4.92 2.93z"/><circle cx="713.3" cy="331.73" fill="#f16e6d" r="10"/><path d="m782.82 374a8 8 0 0 0 -.59-1.41.33.33 0 0 1 -.12-.23 47.48 47.48 0 0 0 6.21-13.83l1.64.35q-1.29 3.87-2.7 7.15v20.51h-1.52v-17.33a55.89 55.89 0 0 1 -2.92 4.79zm7.38-11.48h9.14v-4h1.52v4h9.49v1.41h-9.49v3.52h8v8.67h-1.52v-1.12h-6.56a12.29 12.29 0 0 1 -2.23 6.8q3.28 2.11 11.6 2.93a10 10 0 0 0 -.82 1.52q-8-.94-11.84-3.28-1.88 1.52-7.62 3.63a6.19 6.19 0 0 0 -.7-1.05 1.38 1.38 0 0 0 -.23-.35q5.51-1.88 7.15-3.28a20.57 20.57 0 0 1 -3.75-4.57l1.41-.82a16.44 16.44 0 0 0 3.52 4.34 11.44 11.44 0 0 0 2-5.86h-7.85v-7.5h8v-3.52h-9.14zm9 11q.12-1.52.12-3.4v-1.29h-6.32v4.69zm1.64-3.52v3.52h6.45v-4.69h-6.45z"/><path d="m827.82 386.09h-1.64v-9.14h-9.26a18.63 18.63 0 0 1 -3.4 9.61 4.88 4.88 0 0 0 -1.52-1.06 16.45 16.45 0 0 0 2.81-6 40.38 40.38 0 0 0 .7-8.91v-10.4h23.2v22.5q.12 3.4-3.63 3.4-1.64.12-3.52.12a5 5 0 0 0 -.35-1.76q1.17.12 3.52.12t2.34-2v-5.62h-9.26zm-10.66-15.47q0 1.05-.12 2.81v2h9.14v-6.09h-9zm0-8.91v6.09h9v-6.09zm19.92 0h-9.26v6.09h9.26zm-9.26 7.62v6.09h9.26v-6.09z"/><path d="m866.73 360.66 1.29.94a55 55 0 0 1 -6.45 6.33h8.79v1.41h-10.66a50.71 50.71 0 0 1 -6.33 3.87h12.19v13.24h-1.56v-1.76h-14.3v1.76h-1.6v-10.79q-2.46 1.05-5.27 2.11-.12-.23-.35-.82a5.08 5.08 0 0 1 -.47-.7 66.56 66.56 0 0 0 15-6.91h-14.54v-1.41h11.25v-4.23h-8.32v-1.4h8.32v-3.75h1.64v3.75h7.15v1.41h-7.15v4.22h3.64a48.44 48.44 0 0 0 7.73-7.27zm-16.17 13.94a.91.91 0 0 0 -.35.12 1.29 1.29 0 0 0 -.47.23v3.4h14.26v-3.75zm-.82 5.16v3.52h14.26v-3.52z"/><path d="m874 364.76h11.48v-6.45h1.64v6.45h11.48v12.77h-1.6v-1.64h-9.84v10.78h-1.64v-10.78h-9.84v1.64h-1.68zm1.64 1.52v8.09h9.84v-8.09zm21.33 0h-9.84v8.09h9.87z"/><path d="m905.28 367.34 1.64.47q-1.52 5.86-3 11.48a11.78 11.78 0 0 0 -1.76-.59 102.42 102.42 0 0 0 3.12-11.36zm4.34-3.28h1.76v17q-.12 2.93 2.93 2.81h5.69q3 .12 3.52-2.46a31.91 31.91 0 0 0 .59-4 7.68 7.68 0 0 0 .94.23l.82.35q-.12 1.29-.47 3.16a7.71 7.71 0 0 1 -.23 1.17q-.7 3.16-4.92 3.16h-6.45q-4.22 0-4.22-4.1zm9.26 3.16q-1.64-3-4.8-8.09l1.52-.82q.35.59 1.05 1.64 1.64 2.46 3.87 6.33zm10 10.31q-2.35-5.39-4.8-10.31l1.64-.7q.47 1.05 1.64 3.28 2.23 4.57 3.28 6.91z"/><path d="m933.29 363.35h3q.94-2.81 1.41-4.8l1.64.35q-.7 2.35-1.41 4.45h6v22.5h-1.64v-2.34h-7.5v2.58h-1.52zm1.52 1.41v8h7.5v-8zm0 9.38v8.09h7.5v-8.09zm11.72-4.45a5.08 5.08 0 0 1 -.7-.47l-.7-.35a45.48 45.48 0 0 0 4.45-10.31l1.64.35q-.7 2.11-1.64 4.34h9.73v1.88q-.24 10.43-.59 16.05.12 4.57-5 4.69h-4.57a.91.91 0 0 0 -.12-.35 3.27 3.27 0 0 0 -.35-1.29q1.64.12 4.8.12 3.75.12 3.75-3.4.23-2.93.35-12.3.12-2.69.12-3.87h-8.7a46.89 46.89 0 0 1 -2.47 4.9zm1.29 1.41 1.17-.94c.16.23.39.55.7.94q2.58 3.16 4 5.27l-1.29.94q-2.24-3.31-4.58-6.22z"/><path d="m962.24 363.7h10.55v1.41h-10.55zm.82 4.1h8.79v1.41h-8.79zm0 4.1h8.79v1.41h-8.79zm10.78 1.64v-1.41h14.06v1.52a28.53 28.53 0 0 1 -5.27 7.73 28.94 28.94 0 0 0 7.85 3.28 11.38 11.38 0 0 0 -.94 1.52 41.37 41.37 0 0 1 -8.2-3.75 35.36 35.36 0 0 1 -8.55 4c-.08-.16-.23-.43-.47-.82a5.33 5.33 0 0 1 -.47-.7v.59h-1.41v-1.87h-5.74v1.88h-1.52v-9.51h8.67v8.91q6.21-2 8.2-3.52a16.94 16.94 0 0 1 -4.92-7.85zm-2.84-12.41h-7.15v-1.29h7.15zm-6.33 16.29v5.16h5.74v-5.16zm22.15-9.49h.23a1.16 1.16 0 0 0 1.29-1.17 8 8 0 0 0 .23-1.29 3.25 3.25 0 0 0 .12-.7 14 14 0 0 0 1.41.47 9.7 9.7 0 0 1 -.12 1.17 5.7 5.7 0 0 0 -.12.7 2.5 2.5 0 0 1 -2.81 2.34h-.59q-2.81.12-2.7-3.16v-4.92h-5.51a17.17 17.17 0 0 1 -.7 6 7.69 7.69 0 0 1 -3 3.52 6.52 6.52 0 0 0 -1.29-1.17q3.75-2.11 3.52-6.91v-2.81h8.55v6q-.13 2 1.52 1.92zm-.59 5.63h-9.49a15.2 15.2 0 0 0 4.45 6.8 19.7 19.7 0 0 0 5.07-6.81z"/><path d="m1004.42 365.34h-12.3v-1.41h12.3zm-1.05 4.22h-10.31v-1.41h10.31zm0 4.22h-10.31v-1.41h10.31zm-10 12.3v-9.37h9.73v9.29h-1.52v-1.41h-6.68v1.52zm9.26-25h-8.91v-1.41h8.91zm-7.73 17v5h6.68v-5zm17-19.69h1.52v10.31h7v1.52h-7v16.17h-1.52v-16.12h-7v-1.52h7z"/><circle cx="764.3" cy="373.48" fill="#f16e6d" r="10"/><path d="m810.62 431.31h-1.62v-15.47a57.87 57.87 0 0 1 -4.92 4.8 13.58 13.58 0 0 0 -1.05-1.29 40.76 40.76 0 0 0 9.49-10.66h-8.44v-1.41h9.26q1.05-1.87 2-4l1.64.35a32 32 0 0 1 -1.87 3.63h15.89v1.41h-16.75a27.54 27.54 0 0 1 -2.7 4h16.05v14.88q.12 3.16-3.52 3.16-1.52.12-4.1.12a2.89 2.89 0 0 0 -.47-1.64h4.22q2.34.12 2.23-1.87v-2.58h-15.34zm0-17.23v3.92h15.38v-3.87zm0 5.27v4h15.38v-4z"/><path d="m833.59 413.74h4.41v-4.8h-3.75v-1.29h3.75v-4.22h1.41v4.22h3.28v1.29h-3.28v4.8h4v1.26h-3.16v4.69h2.81v1.31h-2.81v6.45q2.23 1.52 7.62 1.41h4.22q6.91.12 9.38 0a4.62 4.62 0 0 0 -.59 1.52h-3.52q-7.73.12-10 0-8.44.12-11.25-5.62a16.69 16.69 0 0 1 -2.23 6.33 6.18 6.18 0 0 0 -1.17-.94 17.11 17.11 0 0 0 2-5.16 42.87 42.87 0 0 0 .47-7.38h1.41q0 2.7-.12 4.8a14 14 0 0 0 2.34 3.75v-11.16h-5.27zm9.41 10.78-.23-1.52 2-.35v-16.88h-1.64v-1.29h17.7v1.29h-9.26v21.91h-1.41v-4.45l-6 1.05a7.71 7.71 0 0 0 -1.16.24zm3.16-18.75v4.57h4v-4.57zm0 5.86v4.57h4v-4.57zm0 10.9 2-.35q1.41-.23 2-.35v-4.34h-4zm7.27-12.07v-1.29h6.91v1.41a42.56 42.56 0 0 1 -2.46 9.61q.47.94 1.29 2.81.94 2.11 1.52 3.16l-1.29.7q-.24-.47-.59-1.29-.59-1.52-1.64-3.75a40.26 40.26 0 0 1 -3.52 5.51 9.86 9.86 0 0 1 -1.05-.94 25.72 25.72 0 0 0 3.87-6.09q-1.17-2.58-3.28-6.68l1.17-.47q1.41 2.81 2.81 5.39a34.54 34.54 0 0 0 1.76-8.09z"/><path d="m876 423.34q-5.51-5.39-7.73-16.29h-2.57v-1.52h21.09v1.64q-2.46 10.43-8.32 16.17 4.57 3.87 12.77 5.86l-.23.23q-.59.82-.94 1.41-8.67-2.58-12.77-6.33-3.87 3.4-13.12 6.68a10.65 10.65 0 0 0 -1.05-1.52q8.66-2.67 12.87-6.33zm-6-16.29q1.87 10 7.27 15.12 5.74-5.62 7.73-15.12z"/><path d="m905.54 426.27-1.17 1.52q-2.11-2-4-3.52a22.88 22.88 0 0 1 -6 6.45l-1.29-1.29a17.76 17.76 0 0 0 6-6.09 27.88 27.88 0 0 0 -3.52-2.81l-.47 1.52-1.64-.47q1.64-5.15 2.81-10.55h-2.81v-1.52h3.16q.35-1.64.94-4.92a12.47 12.47 0 0 1 .23-1.41l1.64.12a56.83 56.83 0 0 1 -1.17 6.21h5.51v1.49q-.7 8-2.58 11.72a54.24 54.24 0 0 1 4.36 3.55zm-3.4-15.27h-4.14a76 76 0 0 1 -2 7.85q1.76 1.17 3.87 2.81a26.76 26.76 0 0 0 2.27-10.66zm8.2 18.16q2.23.12 2.11-2v-9.14h-8.09v-1.52h8.09v-4.69l5.86-5h-12.77v-1.41h14.77v1.76l-6.21 5.27v4.1h7.38v1.52h-7.38v9.38q.12 3.28-3.52 3.4h-3.4a17.91 17.91 0 0 0 -.35-1.76q1.76.13 3.52.13z"/><path d="m923.35 427.68-.35-1.68q.94-.23 3-.82a7.2 7.2 0 0 0 1.05-.23v-8.67h-3.63v-1.28h3.63v-7.73h-3.75v-1.41h9.14v1.41h-3.75v7.73h3.31v1.29h-3.28v8.32q.94-.35 2.7-.82l1.29-.35a10.66 10.66 0 0 0 .12 1.52q-4.91 1.32-9.48 2.72zm10.2-13.59h17.58v1.52h-6.33v11.6q-.12 1.41 1.76 1.41h1.29q1.76.12 1.88-1.41a14.19 14.19 0 0 0 .35-3.4q.47.12 1.52.47-.24 2.58-.35 3.28-.35 2.69-3.28 2.58h-1.76q-3 .12-2.93-2.81v-11.72h-4.45q0 6.68-1.52 9.73-1.17 3-5.51 6.09a10 10 0 0 0 -1.29-1.29q4.33-2.81 5.39-5.39 1.29-2.58 1.29-9.14h-3.63zm1.64-8.09h14.3v1.52h-14.3z"/><path d="m954.29 408.23h3q.94-2.81 1.41-4.8l1.64.35q-.7 2.35-1.41 4.45h6v22.5h-1.64v-2.34h-7.5v2.61h-1.52zm1.52 1.41v8h7.5v-8zm0 9.38v8.09h7.5v-8.11zm11.72-4.45a5.08 5.08 0 0 1 -.7-.47l-.7-.35a45.48 45.48 0 0 0 4.45-10.31l1.64.35q-.7 2.11-1.64 4.34h9.73v1.87q-.24 10.43-.59 16.05.12 4.57-5 4.69h-4.57a.91.91 0 0 0 -.12-.35 3.27 3.27 0 0 0 -.35-1.29q1.64.12 4.8.12 3.75.12 3.75-3.4.23-2.93.35-12.3.12-2.69.12-3.87h-8.7a46.89 46.89 0 0 1 -2.47 4.91zm1.29 1.41 1.18-.98c.16.23.39.55.7.94q2.58 3.16 4 5.27l-1.29.94q-2.25-3.26-4.59-6.15z"/><path d="m983.35 416h4v-9h-3v-1.52h15.35v1.52h-3.7v9h4.57v1.41h-4.57v13.79h-1.52v-13.83h-5.48q.23 9.49-4.8 13.83a11.35 11.35 0 0 1 -1.29-1.17 12.93 12.93 0 0 0 3.52-5 22.92 22.92 0 0 0 .94-7.62h-4zm5.63-9v9h5.51v-9zm9.26 23a29.23 29.23 0 0 0 12-9.26l1.29.94a32.89 32.89 0 0 1 -12.19 9.73 10.47 10.47 0 0 1 -1.1-1.5zm1.41-19.1a29 29 0 0 0 9.38-7l1.17 1.05a35.41 35.41 0 0 1 -9.49 7.38 4.7 4.7 0 0 0 -1.07-1.52zm.35 8.91a31.55 31.55 0 0 0 9.49-7.38l1.29 1.05a38 38 0 0 1 -9.78 7.52 13.58 13.58 0 0 0 -1-1.29z"/><path d="m1029.29 403.31h1.64v6.09h10.43v1.52h-10.36a56.83 56.83 0 0 0 .59 6.91 26.22 26.22 0 0 0 2.46 8.91q1.41 2.93 3.28 2.81 1.29 0 1.88-1.76a22 22 0 0 0 .7-3.75 1.23 1.23 0 0 0 .47.23l1.05.35a23.38 23.38 0 0 1 -.82 3.63q-.82 3-3.28 2.93-2.81.12-4.8-3.87a29.34 29.34 0 0 1 -2.58-9.26q-.35-3.52-.59-7.15h-16.17v-1.5h16.17q-.07-2.93-.07-6.09zm-15.59 25.55-.47-1.41q1.41-.12 4.92-.59 1.29-.12 1.88-.23v-8.91h-5.74v-1.52h13.13v1.52h-5.74v8.67q3.28-.35 7-.94v1.55q-3.52.47-11.37 1.41-2.55.33-3.6.44zm19.92-23.79 1.17-1.05q2.34 1.88 4 3.4l-1.17 1.17a40.65 40.65 0 0 0 -3.99-3.53z"/><circle cx="785.3" cy="418.23" fill="#f16e6d" r="10"/><path d="m804.58 483.84v-22.15h11v-5.51h1.52v5.51h11v22.15h-1.64v-1.76h-20.24v1.76zm1.64-20.62v8h9.38v-8zm0 9.49v8h9.38v-8zm20.27-9.49h-9.37v8h9.38zm-9.37 17.46h9.38v-8h-9.37z"/><path d="m832.47 475.75h4.8q.7-1.05 1.41-2l1.41.59-1.09 1.41h9.38v1.17h-2.58a11.81 11.81 0 0 1 -3.16 3.75 2 2 0 0 0 .82.12q1.41.47 3.52 1.29l-.94 1.29q-1.17-.47-3.63-1.52a7.84 7.84 0 0 1 -1.29-.47 25.89 25.89 0 0 1 -8.55 2.93.34.34 0 0 0 -.12-.23 4.59 4.59 0 0 0 -.47-1.29 24.3 24.3 0 0 0 7.15-2 5.33 5.33 0 0 1 -1.64-.47 10.57 10.57 0 0 0 -1.52-.47 3.77 3.77 0 0 0 -.47.59l-.35.35-1.29-.7a14.6 14.6 0 0 1 .94-1.17q1.05-1.29 1.52-2h-3.87zm1.29-17h6.09v-2.45h1.41v2.46h6.09v3.4h1.76v1.17h-1.76v3.52h-6.09v2.15h6.09v4.69h-13.59v-4.69h6.09v-2.11h-6.09v-3.52h-1.52v-1.17h1.52zm1.52 1.17v2.23h4.57v-2.23zm0 3.4v2.34h4.57v-2.34zm0 6.8v2.34h4.57v-2.34zm1.52 8.67a21.68 21.68 0 0 1 3.28 1.05 3.78 3.78 0 0 1 .82.23 12.2 12.2 0 0 0 3.16-3.16h-5.86a6.88 6.88 0 0 0 -.7.94c-.3.4-.5.71-.69.95zm9-18.87h-4.57v2.23h4.57zm-4.57 3.4v2.34h4.57v-2.34zm4.57 6.8h-4.57v2.34h4.57zm7-14.06 1.52.23a50.91 50.91 0 0 1 -1.64 5.51h7.73v1.29h-1.76q-.59 8.91-3.52 13.71a23.45 23.45 0 0 0 5.51 5.74 5.58 5.58 0 0 0 -1.05 1.29 25.81 25.81 0 0 1 -5.39-5.62 26.44 26.44 0 0 1 -6 6.21 11.35 11.35 0 0 0 -1.17-1.29 26.85 26.85 0 0 0 6.33-6.33 25.58 25.58 0 0 1 -2.93-9.73l-.7 1.41q-.59.94-.82 1.41a6.56 6.56 0 0 1 -.47-.59l-.59-.59a41.13 41.13 0 0 0 5.01-12.65zm1.52 19.22q2.34-4.57 2.81-12.19h-4.92q-.12.24-.35.82a6.22 6.22 0 0 0 -.35.82 33.56 33.56 0 0 0 2.88 10.55z"/><path d="m865.75 456.18h1.41v6.09h2.93v1.41h-2.93v6q.47-.23 1.41-.59a7.87 7.87 0 0 1 1.41-.59 1.65 1.65 0 0 1 .12.7 3.28 3.28 0 0 1 .12.7l-1.76.7q-.82.35-1.29.59v9.49q.12 3.16-2.93 3h-1.64a3.25 3.25 0 0 0 -.12-.7 3.71 3.71 0 0 0 -.23-.82 7.65 7.65 0 0 0 1.76.12q1.87.12 1.76-1.64v-8.91q-.59.24-1.64.7t-1.64.7l-.35-1.52q1.87-.7 3.63-1.41v-6.56h-3.28v-1.41h3.28zm12 0h1.41v1.88h9.49v1.29h-9.49v2h10.31l-.47 3.28-1.41-.35.35-1.76h-15.27v5.27a47.59 47.59 0 0 1 -.7 9.84 16.32 16.32 0 0 1 -2.93 6.45 7.24 7.24 0 0 0 -.59-.47 5.33 5.33 0 0 0 -.7-.47 15.46 15.46 0 0 0 2.81-5.86 40.38 40.38 0 0 0 .7-8.91v-7h6.45zm-4 18a25.85 25.85 0 0 0 7-2.7h-6.33v-1.17h14.88v1.17h-6.68l-2.11 1.41a13 13 0 0 1 1.76 2.46 38.77 38.77 0 0 0 5.86-2.81l.94 1.05-2.07 1.11a8 8 0 0 0 -1.17.59 8.92 8.92 0 0 0 4.69 5.74l-.23.12a4.23 4.23 0 0 0 -.82 1.05 9.68 9.68 0 0 1 -4.8-6.45 12.09 12.09 0 0 1 -1.76.82 9.78 9.78 0 0 1 .59 3.52q.35 3.87-3.75 3.75h-2.34v-.23a9.24 9.24 0 0 0 -.47-1.29 21.69 21.69 0 0 0 2.7.12q2.58.12 2.46-2.23a6.88 6.88 0 0 0 -.23-1.87q-2.7 2.35-8.91 4.57-.12-.24-.82-1.29a25.87 25.87 0 0 0 9.49-4.45 6.79 6.79 0 0 0 -.35-.82q-.24-.58-.35-.82a20 20 0 0 1 -6.8 3.52l-.35-.7a5.3 5.3 0 0 1 -.35-.59 24.13 24.13 0 0 0 6.91-3 6.9 6.9 0 0 0 -1.05-1.05 48.33 48.33 0 0 1 -4.69 1.88 7.33 7.33 0 0 0 -.88-1.36zm0-9.14 3.75-.23v-1.41h1.5v1.29l5.74-.35.12 1.17-5.86.35v.14q-.24 2 2.34 1.76h2.58q2.23.12 2.58-1.17a4.13 4.13 0 0 0 .23-1.29l1.52.47a11.17 11.17 0 0 1 -.35 1.29q-.59 2-3.75 1.88h-3.28q-3.52 0-3.4-2.7v-.24l-3.63.23z"/><path d="m894.23 461.22 1.05-.94q2.81 2.11 4.1 3.16a23.47 23.47 0 0 0 4.1-4.22h-10.07v-1.29h11.84v1.41a28 28 0 0 1 -6.09 6.09h3.4v6.45h-6.56l-.47 3.63h7.38a43.75 43.75 0 0 1 -.47 4.8q-.35 3.28-4 3.28-1.17.12-4.1.12a5.07 5.07 0 0 0 -.47-1.64q1.17.12 4.34.12 2.58.12 2.7-2.11.12-.58.23-1.64c.08-.78.12-1.33.12-1.64h-5.86l-.12.82h-1.41l.82-7h6.45v-3.87h-4.14q-1.88 1.05-4.1 2.11a8.6 8.6 0 0 0 -1.05-1.29 28.3 28.3 0 0 0 6.21-3.28 15.21 15.21 0 0 1 -1.29-1.05q-1.77-1.43-2.54-2.02zm10.43 13.59v-1.29h12.07v1.41a23 23 0 0 1 -4.73 5.27 53.28 53.28 0 0 0 6.45 2.7l-1.05 1.29a24.09 24.09 0 0 1 -6.45-3.4 34.83 34.83 0 0 1 -7.27 3.52l-.7-1.05a1.38 1.38 0 0 0 -.23-.35 35.34 35.34 0 0 0 6.95-2.91 17.83 17.83 0 0 1 -4.1-5.16zm3-8.09v.82a4.69 4.69 0 0 1 -2.93 5 5.07 5.07 0 0 0 -1.17-.94 3.62 3.62 0 0 0 2.58-4.22v-2h6.91q-4.22-2.46-7-8.44l1.29-.59a29.84 29.84 0 0 0 2.11 3.63 52.92 52.92 0 0 0 5.74-3.52l1.05 1.17q-1.41.94-5 2.93c-.39.23-.67.39-.82.47a21.06 21.06 0 0 0 2.23 2.34q3.52-2.11 5.63-3.52l1.05 1.17q-2.46 1.52-5.39 3.16a26 26 0 0 0 6.56 2.58 5.44 5.44 0 0 0 -.94 1.41 25.34 25.34 0 0 1 -5.27-2.23v3.75c-.08.47.12.67.59.59h2.12c.31 0 .47-.12.47-.35a2.84 2.84 0 0 0 .23-1.41 3.69 3.69 0 0 0 1.05.23 7.3 7.3 0 0 1 -.23 1.76 1.41 1.41 0 0 1 -1.41 1.17h-2.61q-1.76 0-1.76-1.87v-3.16zm7.27 8.09h-7.85a15.86 15.86 0 0 0 3.63 4.45 23.18 23.18 0 0 0 4.29-4.45z"/><path d="m928.33 456.3h1.52v4.22h4.8v1.41h-4.8v4.92h5.74v1.41h-4.8v5.27h4.45v1.41h-4.45v5.86a18.55 18.55 0 0 0 6.33.94h13.24a1.23 1.23 0 0 0 -.23.47l-.35 1.05q-10 0-13.24-.12-8.44.12-10.9-5.74a20.46 20.46 0 0 1 -2.46 6.68 7.24 7.24 0 0 0 -.59-.47 5.33 5.33 0 0 0 -.7-.47 18 18 0 0 0 2.11-5.14 43.8 43.8 0 0 0 .47-7.5h1.53q0 .94-.12 2.58v1.88a11.6 11.6 0 0 0 3.28 4.92v-11.6h-6.91v-1.41h6.09v-4.92h-5v-1.41h5zm10.55 18q-.12 2.23 2.58 2.11h3.54q2.58.12 2.93-2a28.16 28.16 0 0 0 .59-3.28 10.61 10.61 0 0 0 1.41.59 3.25 3.25 0 0 1 -.12.7 10.75 10.75 0 0 1 -.35 2.34q-.47 3.28-4.34 3h-3.87q-4 .12-3.87-3.16v-16.54h10.62v9.49h-9.14zm7.62-14.88h-7.62v6.68h7.62z"/><path d="m953.29 461.1h3q.94-2.81 1.41-4.8l1.64.35q-.7 2.35-1.41 4.45h6v22.5h-1.64v-2.34h-7.5v2.58h-1.52zm1.52 1.41v8h7.5v-8zm0 9.38v8.11h7.5v-8.09zm11.72-4.45a5.08 5.08 0 0 1 -.7-.47l-.7-.35a45.48 45.48 0 0 0 4.45-10.31l1.64.35q-.7 2.11-1.64 4.34h9.73v1.88q-.24 10.43-.59 16.05.12 4.57-5 4.69h-4.57a.91.91 0 0 0 -.12-.35 3.27 3.27 0 0 0 -.35-1.29q1.64.12 4.8.12 3.75.12 3.75-3.4.23-2.93.35-12.3.12-2.69.12-3.87h-8.7a46.89 46.89 0 0 1 -2.47 4.9zm1.29 1.41 1.17-.94c.16.23.39.55.7.94q2.58 3.16 4 5.27l-1.29.94q-2.24-3.29-4.58-6.22z"/><path d="m982.35 461.57h9v1.29h-9zm.94 4.1h7.27v1.33h-7.27zm0 4.22h7.27v1.29h-7.27zm0 4.22h7.27v9.61h-1.41v-1.87h-4.45v1.88h-1.41zm6.56-15.35h-5.85v-1.29h5.86zm-5.15 16.64v5.39h4.45v-5.39zm8.67-12.07h6.91v-2.46h-7.85v-1.17h5.16l-.7-.7a13.8 13.8 0 0 0 -2-1.87l1.05-1.05a25.27 25.27 0 0 1 3 2.81l-.94.82h5.51l-.82-.82q1.87-1.64 3-2.81l1.17.94q-.35.35-1.52 1.41t-1.34 1.27h5.74v1.17h-8.09v2.46h7v1.29h-7v2.38h8.44v1.29h-18.09v-1.29h8.32v-2.34h-6.91zm8.79 5.74h1.41q0 1.64.23 4.69h6.45v1.24h-6.33a23 23 0 0 0 .82 3.75 18.32 18.32 0 0 0 3.16-2.93l1.05.94a29.56 29.56 0 0 1 -3.75 3.4 2.47 2.47 0 0 0 .47.59 6 6 0 0 1 .35.59q.58 1.05 1.41.94.94.12 1.29-1.41a8.06 8.06 0 0 0 .35-1.29 7.29 7.29 0 0 1 .23-1.17l.94.47a.33.33 0 0 0 .23.12 10.65 10.65 0 0 1 -.47 2.46q-.59 2.46-2.46 2.34a2.63 2.63 0 0 1 -2.34-1.29 5.74 5.74 0 0 1 -1.17-1.76 26 26 0 0 1 -3.87 2.23q-.59.23-.82.35a5.27 5.27 0 0 0 -.82-1.29 20.81 20.81 0 0 0 4.92-2.34 24.49 24.49 0 0 1 -.94-4.69h-4.69v2.46l1.76-.35q1.05-.12 1.64-.23v1.29q-.59.12-2 .35a13.26 13.26 0 0 0 -1.41.23v1.76q.12 3.16-2.93 3.16h-2a4.45 4.45 0 0 0 -.23-1.41q1.17.12 1.88.12 2 .12 1.88-2v-1.52q-3 .47-4.1.7l-.23-1.41 4.34-.59v-2.57h-4.41v-1.29h4.45v-2.23q-1.76.12-3.63.12a5.08 5.08 0 0 0 -.12-.82 1 1 0 0 1 -.12-.47q3.16 0 8.32-.47l.23 1.29h-.35a17.7 17.7 0 0 1 -2.93.23v2.34h4.57q-.26-2.4-.26-4.63zm3 1.05 1.17-.82q1.41 1.64 2.34 2.58l-1.17.94q-.89-1.17-2.29-2.69z"/><path d="m1012.24 470.13h12.89v1.29h-4.92v3.75h4.57v1.29h-4.57v4.54a15.7 15.7 0 0 0 4.92.7q7.26.35 15.47 0a7.94 7.94 0 0 0 -.59 1.64h-9.49q-3 0-5.62-.12-7.27-.12-9.73-4.45a14.83 14.83 0 0 1 -2.11 5.27 4.8 4.8 0 0 0 -1.17-1.05q2.34-3.16 2.46-9.61h1.41a13 13 0 0 1 -.12 1.52 7.82 7.82 0 0 1 -.12 1.64 8.85 8.85 0 0 0 3.16 4v-9.14h-6.45zm1.88-12.66h9.61v10h-9.61zm1.41 1.29v3h6.68v-3zm0 4.34v3h6.68v-3zm14.77 13.24.94 1.17a44.52 44.52 0 0 1 -4.92 3.28q-.35-.47-.94-1.17a29.87 29.87 0 0 0 4.9-3.28zm-4.45-18.75h13.83v1.29h-6.91l-.82 3.28h6.68v13h-11.84v-13h3.63l.7-3.28h-5.27zm2.46 5.86v2.7h8.79v-2.7zm0 3.87v2.68h8.79v-2.7zm0 3.87v2.7h8.79v-2.7zm10.55 9.38q-2.11-1.41-4.92-3l.94-1.17q2.58 1.41 4.92 2.93z"/><circle cx="784.3" cy="470.98" fill="#f16e6d" r="10"/><path d="m794.83 530.72q3.4.12 10.08 0h4.57q-.12.23-.35.82a3.82 3.82 0 0 1 -.23.7q-9.49 0-14.3-.12-6.21 0-9.14-3.4a31.76 31.76 0 0 0 -2.93 3.16 2.47 2.47 0 0 0 -.47.59l-1.06-1.28a42.2 42.2 0 0 1 3.75-3.75v-8.09h-3.4v-1.52h4.92v9.61q2.82 3.28 8.56 3.28zm-8.67-15.23a56 56 0 0 0 -4.45-3.87l.94-1.17q1.17.82 3.4 2.7a15.21 15.21 0 0 0 1.29 1.05zm.59-5.62q-2.58-2.34-4.57-3.87l.94-1.17q1.17.82 3.4 2.7a15.21 15.21 0 0 0 1.29 1.05zm2.46 1.29h8.79v-3.16q-3.4.24-7.27.23a4.14 4.14 0 0 0 -.23-1.29q8.2-.23 15.7-.7l.35 1.29q-2.7.24-7 .47v3.16h8.91v1.41h-8.55a22.9 22.9 0 0 0 9.38 4.57 9.41 9.41 0 0 0 -.82 1.52 21.28 21.28 0 0 1 -8.91-5.16v4.34h-1.56v-4.34q-2.93 3.16-9.14 5.27a13.27 13.27 0 0 0 -.82-1.41 25.27 25.27 0 0 0 9.49-4.8h-8.32zm13 9.14h-6q-.24 5.74-5.74 8.91-.59-.7-1.17-1.29 5.27-2.69 5.39-7.62h-3.63v-1.41h12.94l-.7 3.16h4q-.12 2-.35 3.87-.47 2.81-3.52 2.7a32.58 32.58 0 0 1 -3.28.12 3.5 3.5 0 0 0 -.12-.82 3.78 3.78 0 0 0 -.23-.82q.58 0 1.76.12h1.64q2.11-.12 2.23-1.52a10.88 10.88 0 0 0 .23-2.34h-2.66l-.23.94h-1.64z"/><path d="m812.88 507.4h8.67v19.34h-7.15v2.58h-1.52zm1.52 1.52v7.38h5.6v-7.38zm0 16.41h5.6v-7.62h-5.6zm19.34 6q2.58.12 2.46-2v-6h-9.61a16.23 16.23 0 0 1 -5.51 9.84 9.25 9.25 0 0 0 -1.41-1.17 14.85 14.85 0 0 0 4.57-6.09q1.17-2.93 1.17-9.37v-10.08h12.3v23q.23 3.4-3.75 3.4-1.88.12-3.87.12a2 2 0 0 0 -.12-.59c-.08-.47-.16-.86-.23-1.17q1.53.08 4 .09zm-6.8-14.77a28.53 28.53 0 0 1 -.23 5.39h9.49v-6.35h-9.26zm0-8.55v6.21h9.26v-6.22z"/><path d="m842.29 510h3q.94-2.81 1.41-4.8l1.64.35q-.7 2.35-1.41 4.45h6v22.5h-1.64v-2.34h-7.5v2.58h-1.52zm1.52 1.41v8h7.5v-8zm0 9.38v8.09h7.5v-8.09zm11.72-4.45a5.08 5.08 0 0 1 -.7-.47l-.7-.35a45.48 45.48 0 0 0 4.45-10.31l1.64.35q-.7 2.11-1.64 4.34h9.73v1.88q-.24 10.43-.59 16.05.12 4.57-5 4.69h-4.57a.91.91 0 0 0 -.12-.35 3.27 3.27 0 0 0 -.35-1.29q1.64.12 4.8.12 3.75.12 3.75-3.4.23-2.93.35-12.3.12-2.69.12-3.87h-8.7a46.89 46.89 0 0 1 -2.47 4.88zm1.29 1.41 1.17-.94c.16.23.39.55.7.94q2.58 3.16 4 5.27l-1.29.94q-2.24-3.32-4.58-6.25z"/><path d="m875.57 518.06q-2.23-1.87-4.45-3.63l1.05-1.17q2.34 1.76 4.57 3.63zm-3.75 14.06a106.59 106.59 0 0 0 3.28-10.55q.23.12.82.35l.7.35q-.47 1.52-1.41 4.8-1.41 4.1-1.76 5.63zm4.69-21.56q-.7-.58-2.11-1.87l-2.34-2 1.17-1.05q2.11 1.64 4.45 3.75zm5 9.73h1.64a35.55 35.55 0 0 1 -.23 4.34 10.36 10.36 0 0 1 -4.92 8.55 6 6 0 0 0 -1.17-1.29 8.88 8.88 0 0 0 4.57-7.5q.15-1.76.15-4.1zm-2.51-1.88-.23-1.64h2.34a75.63 75.63 0 0 0 4.92-6.45h-7.27v-1.41h8.79v-3.4h1.45v3.4h9.49v1.41h-11.78l.94.59q-2.93 3.75-4.69 5.74 5.51-.23 10.9-.59-1.29-1.52-2.7-2.93l1.29-.94q1.87 1.88 5.27 5.74l.59.59-1.41 1.05a16.8 16.8 0 0 0 -1.87-2.23q-3 .24-9.61.59-4.34.37-6.42.48zm8.09 1.88h1.64v12.3h-1.64zm5.51-.12h1.64v9.49q0 1.29 1.41 1.29h.7a1.26 1.26 0 0 0 1.41-1.29 15.72 15.72 0 0 0 .35-3.52 2.73 2.73 0 0 1 .82.23 3.82 3.82 0 0 1 .7.23q-.12 1.88-.35 3.4-.47 2.46-2.58 2.34h-1.41q-2.7 0-2.7-2.58z"/><path d="m901.35 513.84h4.45v-5.39a12.78 12.78 0 0 1 -2 .12q-1.29.12-2 .12a3.28 3.28 0 0 0 -.12-.7 1.65 1.65 0 0 0 -.12-.7q1.05-.12 2.93-.23 4.22-.23 6.68-.47l.23 1.41q-.7 0-2 .12t-2.11.23v5.51h4.1v1.41h-4.1v4.1l1.05-.7 3.63 3.63-1.29 1.05a46.5 46.5 0 0 0 -3.4-3.75v13.48h-1.52v-14.55a24.65 24.65 0 0 1 -4.1 8.79 3.09 3.09 0 0 0 -.47-.82 2.81 2.81 0 0 0 -.47-.7 30.13 30.13 0 0 0 5-10.55h-4.45zm9.26 16.29h9v-4.69h-6.61v-1.29h6.68v-4.34q-.82 0-2.46.12-3.28.24-5 .23a6.49 6.49 0 0 0 -.23-1.41q7.15-.12 16.52-.94l.23 1.41a28.18 28.18 0 0 0 -2.93.23q-2.93.12-4.57.23v4.45h6.76v1.29h-6.8v4.69h8.44v1.41h-19zm2.81-23.2h13.95v7.85h-13.95zm1.64 1.41v4.92h10.78v-4.92z"/><path d="m949.87 508.45v-1.45h7.13v17.23h2.11v1.41h-27.64v-1.41h2.23v-16.36a32.35 32.35 0 0 0 6.09-2l.82 1.17a25.14 25.14 0 0 1 -5.51 1.76v4.1h5.51v1.29h-5.51v4.34h5.63v1.29h-5.63v4.45h7.27v-6.68h1.41v6.68h3.75v-8.44h-5.16v-10.42h1.41v3.75h5.51v1.29h-5.51v4.1h5.16v9.73h6.68v-4.45h-4.92v-1.29h4.92v-4.34h-4.92v-1.29h4.92v-4.45zm-8.79 18.87 1.05 1.41q-6.21 2.93-9.37 4.34a4 4 0 0 0 -.7-1.05 1.38 1.38 0 0 0 -.23-.35 70.42 70.42 0 0 0 9.25-4.35zm16.92 5.63a82.33 82.33 0 0 0 -9.61-4.1l.94-1.41q1.05.47 3.28 1.41 4.33 1.76 6.21 2.7z"/><path d="m971.67 529.43.7 1.05q-2.7.82-8.79 2.34l-1.41.35a13.27 13.27 0 0 0 -.82-1.41q3.87-.76 10.32-2.33zm-9.85-14.43q2.93-1.76 6.45-4.22a4.25 4.25 0 0 0 .7 1.29l-6.33 4.34zm7.73-6.68h-7.15v-1.41h7.15zm-4.55 8.57h20.74v11.6h-20.74zm1.52 1.17v2.23h17.7v-2.23zm0 3.52v2.23h17.7v-2.23zm0 3.4v2.34h17.7v-2.32zm4.92-12.89a3.32 3.32 0 0 0 -1.29-.82 15.51 15.51 0 0 0 4.57-6.45l1.41.47q-.12.24-.35.82a8 8 0 0 1 -.59 1.17h12.89v1.29l-1.87 3.16-1.41-.59 1.64-2.58h-6.21v.35a.89.89 0 0 0 -.12.35q1.76 4.34 8.67 5.51l-.12.12a3.67 3.67 0 0 0 -.59 1.29q-6.92-1.52-8.44-5.27-1.17 3.75-9.14 5l-.82-1.29q8.09-1.29 8.67-4.45a8.72 8.72 0 0 0 .35-1.64h-4.22a15.88 15.88 0 0 1 -3.04 3.56zm6.8 18.4.59-1.05a100 100 0 0 1 10 2.11l-.47 1.41q-1.64-.47-5.62-1.41-3.46-.83-4.51-1.06z"/><path d="m991.82 528.84a16.1 16.1 0 0 0 -.82-1.64 31.36 31.36 0 0 0 5-9.49h-4.69v-1.41h4.92v-11.24h1.52v11.25h4.69v1.41h-4.64v3.28l.82-.82q2.58 2.7 4.1 4.57l-1.29.94q-.82-1.05-2.34-2.93-.82-.94-1.29-1.41v11.72h-1.52v-12.9a30.52 30.52 0 0 1 -4.46 8.67zm-.47-20.27 1.29-.47q1.17 2.58 2.23 5.39l-1.41.47q-.47-1.29-1.52-3.87a13 13 0 0 0 -.59-1.52zm9 5.51-1.41-.47a46.59 46.59 0 0 0 2.34-5.51l1.29.59a52.63 52.63 0 0 1 -2.19 5.39zm13-9h1.52v17.11l4.45-.59.12 1.52-4.57.59v9.38h-1.52v-9.26l-9.26 1.05-.23-1.52 9.49-1.05zm-8.67 11.37.94-1.05q1.29.82 3.52 2.46l1.29.94-1.05 1.17q-2.32-1.91-4.67-3.55zm.94-7.15.94-1.17 1.29.94q2.11 1.76 3.28 2.7l-1.05 1.17q-2.32-2.02-4.43-3.67z"/><circle cx="763.3" cy="519.73" fill="#f16e6d" r="10"/><g fill="#ded120"><path d="m446.49 347.46s35.5-3.25 29.84-101.7 32.6-257.76 129.61-242.45 58.49 142.42 34.73 199.13-104.61 140.56-76.84 179.05c0 0-33.41-37.67-117.34-34.03z"/><path d="m657.09 595.12s-7.58 27.52 32.43 45.65 94.51 43.8 85.38 89.84-33.68 53.49-51.22 56.94-51.61-10.72-74.51-34.74-39.87-70.2-79-57.28z"/><path d="m497.46 746.06s-37.18 18.08-32 64.44-71.17 79.76-100 62.7-38.1-49-19.42-82.08c19.7-34.85 17.74-37.62 5.68-62.4z"/><path d="m274.13 644.41s-21.66-23.54-60.06 1.83-125.07 68.07-163.49 51.33-74.89-68.14-27.82-111.46 126.95-39.58 153.57-38.33 55.73 1.88 68.12-22.26z"/><path d="m256.79 435.31s0-28.2-29.58-43.46-20.79-59.64 13.65-75.58 48.54-1.84 60.32 15 32.82 22.66 40.45 22z"/></g><g fill="#fff" stroke="#69cad2" stroke-miterlimit="10" stroke-width="2"><path d="m435.83 326s32.18 2.75 42.64-34.44 33.67-44.16 46.68-43.82c13.74.36 48.91 15.52 53.24 31.28s.28 25.14-4.77 36.86-10.47 37.19 1.58 47.94z"/><path d="m662.15 574.61s3.43 30.55 15.42 38.59 35.49 21.62 33.45 37.64-17.14 45-36.19 54-34.57 9.42-41.56.39-28.47-25.61-55.53-17.67z"/><path d="m241.68 509.11s-5.58 30.34-22.92 34.66-40.25 7.41-49.54 22.89-3.11 40.25 3.07 54.49 16.09 32.82 39 29.74 46.45-24.75 71.21.65z"/><path d="m355.85 349.57s-7.93 9.71-23.92 2.87-38.53 7.56-59.69 33.44-26.1 35.26-18.4 48.94 2.76 23 2.76 23z"/><path d="m493.95 748.41s-7.25-5.09-20.1 25-28.85 37.71-61.56 30.42-34.84-11.94-38-34.53-17.67-32.77-17.67-32.77z"/><circle cx="453.61" cy="540.34" r="217"/></g><path d="m298.34 464.84-1.76-1.57a5.81 5.81 0 0 1 -1.4 5.75 7.33 7.33 0 0 1 -3.65 2.25 8.11 8.11 0 0 1 -4.5-.12 11.88 11.88 0 0 1 -4.47-2.61 13.27 13.27 0 0 1 -3.17-4.07 7.37 7.37 0 0 1 -.75-4.41 7.49 7.49 0 0 1 1.87-3.92 6.24 6.24 0 0 1 2.53-1.77 6.31 6.31 0 0 1 2.81-.37l-6.91-6.16 2.09-2.35 19.26 17.16zm-13.62 1.27a8.11 8.11 0 0 0 5 2.44 4.56 4.56 0 0 0 3.7-1.49 4.48 4.48 0 0 0 1.08-3.76 7.83 7.83 0 0 0 -2.9-4.53q-2.86-2.55-5.19-2.64a4.54 4.54 0 0 0 -3.76 1.53 4.38 4.38 0 0 0 -1.06 3.78q.35 2.2 3.12 4.67z"/><path d="m287.07 444.18-2.72-2.42 2.11-2.36 2.72 2.42zm16.54 14.73-14-12.43 2.11-2.36 14 12.43z"/><path d="m312.38 449.08-18.68-7.08 2.22-2.5 11 4.45q1.78.72 3.61 1.61-.82-1.3-1.87-3.24l-5.75-10.68 2.17-2.43 9.25 17.71z"/><path d="m324.92 425.95 2.48-2.17a8 8 0 0 1 1.42 5.1 9.71 9.71 0 0 1 -8.58 8.22 9.86 9.86 0 0 1 -6.89-2.92q-3.52-3.14-3.85-6.68a8.21 8.21 0 0 1 2.25-6.43 8 8 0 0 1 6-2.88q3.49-.07 6.94 3l.62.57-9.31 10.41a7.19 7.19 0 0 0 4.68 1.84 5.19 5.19 0 0 0 3.82-1.83 4.86 4.86 0 0 0 1.29-2.83 6.08 6.08 0 0 0 -.87-3.4zm-10.74 4.36 6.94-7.79a6.33 6.33 0 0 0 -3.44-1.46 4.85 4.85 0 0 0 -4 1.71 5 5 0 0 0 -1.35 3.71 5.77 5.77 0 0 0 1.86 3.82z"/><path d="m334.22 424.56-14-12.43 1.9-2.13 2.12 1.88a7.7 7.7 0 0 1 -.62-3.25 3.51 3.51 0 0 1 .88-1.94 6.18 6.18 0 0 1 2.93-1.75l1.47 2.77a4.53 4.53 0 0 0 -2.06 1.28 3 3 0 0 0 -.77 1.81 3.38 3.38 0 0 0 .51 2 12.3 12.3 0 0 0 2.41 2.85l7.3 6.51z"/><path d="m337.21 412.81 1.71-2.67a4.38 4.38 0 0 0 3.13.82 5.12 5.12 0 0 0 3-1.85 5 5 0 0 0 1.49-3 2.65 2.65 0 0 0 -.85-2.17 1.93 1.93 0 0 0 -1.88-.43 13.78 13.78 0 0 0 -3 1.7 29.53 29.53 0 0 1 -4.35 2.59 4.61 4.61 0 0 1 -5-.81 4.8 4.8 0 0 1 -1.35-2 5.12 5.12 0 0 1 -.29-2.34 6.55 6.55 0 0 1 .65-2.12 9.56 9.56 0 0 1 1.54-2.29 10.82 10.82 0 0 1 3-2.46 5.25 5.25 0 0 1 2.91-.69 6.7 6.7 0 0 1 2.89 1.11l-1.74 2.59a3.39 3.39 0 0 0 -2.5-.58 4.48 4.48 0 0 0 -2.5 1.6 5.17 5.17 0 0 0 -1.53 2.8 2.1 2.1 0 0 0 .64 1.82 1.75 1.75 0 0 0 1.08.45 2.77 2.77 0 0 0 1.44-.34q.45-.24 2.46-1.55a38.93 38.93 0 0 1 4.21-2.52 4.77 4.77 0 0 1 2.63-.45 4.64 4.64 0 0 1 2.53 1.24 5.31 5.31 0 0 1 1.61 2.67 6 6 0 0 1 -.16 3.43 9.68 9.68 0 0 1 -2.05 3.45 8.78 8.78 0 0 1 -4.82 3.14 7 7 0 0 1 -4.9-1.14z"/><path d="m337.68 387.38-2.68-2.38 2.11-2.37 2.72 2.42zm16.54 14.73-14-12.43 2.11-2.37 14 12.43z"/><path d="m362 389.1 2.39 1.52a11.85 11.85 0 0 1 -1.38 2 5.42 5.42 0 0 1 -2.19 1.63 3 3 0 0 1 -2 0 11.35 11.35 0 0 1 -3-2.2l-8-7.15-1.54 1.73-1.86-1.63 1.54-1.73-3.45-3.08.68-3.62 4.87 4.34 2.12-2.38 1.82 1.67-2.12 2.38 8.16 7.27a5.51 5.51 0 0 0 1.41 1 1.31 1.31 0 0 0 .82 0 2.12 2.12 0 0 0 .89-.66 10.34 10.34 0 0 0 .84-1.09z"/><path d="m371.47 393.57-2.47-1.72a7.08 7.08 0 0 0 1.42-1.17 3.47 3.47 0 0 0 .86-1.5 2.86 2.86 0 0 0 0-1.43 15.49 15.49 0 0 0 -1.12-2.29q-.14-.24-.39-.72l-18.77-7.15 2.27-2.55 10.73 4.29q2 .8 4.13 1.87a42.71 42.71 0 0 1 -2.31-3.8l-5.47-10.23 2.11-2.37 9.46 17.95a37.24 37.24 0 0 1 2 4.15 6.27 6.27 0 0 1 .43 3 4.57 4.57 0 0 1 -1.19 2.43 6.34 6.34 0 0 1 -1.69 1.24z"/><path d="m414.23 361.39 1-2.57a6.83 6.83 0 0 1 -6.66.88 7.57 7.57 0 0 1 -2.67-1.68 5.09 5.09 0 0 1 -1.43-2.24 6 6 0 0 1 -.09-2.54 16.12 16.12 0 0 1 .86-2.83l4.07-10.84 3 1.11-3.64 9.7a18.6 18.6 0 0 0 -1 3.2 3.31 3.31 0 0 0 .5 2.28 3.93 3.93 0 0 0 2 1.51 5.21 5.21 0 0 0 2.76.26 4.06 4.06 0 0 0 2.35-1.24 10 10 0 0 0 1.77-3.24l3.52-9.37 3 1.11-6.56 17.49z"/><path d="m422.3 358.46 3.11.64a4.38 4.38 0 0 0 .36 3.22 5.12 5.12 0 0 0 2.8 2.12 5 5 0 0 0 3.34.3 2.65 2.65 0 0 0 1.72-1.58 1.93 1.93 0 0 0 -.28-1.91 13.7 13.7 0 0 0 -2.65-2.14 29.64 29.64 0 0 1 -4-3.12 4.61 4.61 0 0 1 -1.06-5 4.82 4.82 0 0 1 1.35-2 5.13 5.13 0 0 1 2.08-1.11 6.54 6.54 0 0 1 2.21-.16 9.57 9.57 0 0 1 2.69.61 10.81 10.81 0 0 1 3.39 1.95 5.26 5.26 0 0 1 1.69 2.47 6.7 6.7 0 0 1 0 3.09l-3-.69a3.39 3.39 0 0 0 -.35-2.54 4.48 4.48 0 0 0 -2.39-1.76 5.18 5.18 0 0 0 -3.17-.42 2.1 2.1 0 0 0 -1.47 1.25 1.75 1.75 0 0 0 0 1.17 2.79 2.79 0 0 0 .84 1.22q.38.33 2.33 1.74a39 39 0 0 1 3.87 3 4.76 4.76 0 0 1 1.37 2.29 4.65 4.65 0 0 1 -.24 2.8 5.3 5.3 0 0 1 -1.91 2.47 6 6 0 0 1 -3.25 1.09 9.69 9.69 0 0 1 -4-.67 8.77 8.77 0 0 1 -4.66-3.37 7 7 0 0 1 -.72-4.96z"/><path d="m452.48 369.31 2.92 1.53a8 8 0 0 1 -4.25 3.16 9.72 9.72 0 0 1 -10.76-5 9.87 9.87 0 0 1 .24-7.47q1.66-4.41 4.84-6a8.22 8.22 0 0 1 6.81-.23 8 8 0 0 1 4.84 4.54q1.33 3.22-.3 7.55l-.31.78-13-4.89a7.17 7.17 0 0 0 0 5 5.18 5.18 0 0 0 3.08 2.9 4.85 4.85 0 0 0 3.11.19 6.09 6.09 0 0 0 2.78-2.06zm-7.94-8.45 9.77 3.67a6.36 6.36 0 0 0 .12-3.73 4.86 4.86 0 0 0 -3-3.09 5 5 0 0 0 -3.95.08 5.78 5.78 0 0 0 -2.94 3.08z"/><path d="m457.12 377.48 6.56-17.48 2.67 1-1 2.65a7.74 7.74 0 0 1 2.81-1.75 3.51 3.51 0 0 1 2.12.12 6.18 6.18 0 0 1 2.69 2.1l-2.05 2.37a4.54 4.54 0 0 0 -1.92-1.49 3 3 0 0 0 -2-.07 3.38 3.38 0 0 0 -1.71 1.21 12.29 12.29 0 0 0 -1.79 3.27l-3.44 9.16z"/><path d="m469.95 374 1.12-3 9.11 3.42-1.12 3z"/><path d="m493.44 383.8 2.77 1.47a8.08 8.08 0 0 1 -4.22 3.8 7.61 7.61 0 0 1 -5.47-.11 8 8 0 0 1 -4.89-4.51q-1.3-3.17.34-7.55a13 13 0 0 1 2.8-4.61 7 7 0 0 1 4.05-2.12 9.05 9.05 0 0 1 4.57.5 7.76 7.76 0 0 1 4.12 3.19 7.06 7.06 0 0 1 .79 5l-3-.64a5.11 5.11 0 0 0 -.46-3.2 4 4 0 0 0 -2.19-1.84 4.91 4.91 0 0 0 -4.24.24q-2 1.08-3.31 4.55t-.57 5.63a4.69 4.69 0 0 0 2.92 2.92 4.44 4.44 0 0 0 3.32 0 5.68 5.68 0 0 0 2.67-2.72z"/><path d="m510.57 391.12 2.92 1.53a8 8 0 0 1 -4.25 3.16 9.72 9.72 0 0 1 -10.76-5 9.86 9.86 0 0 1 .24-7.47q1.66-4.42 4.84-6a8.22 8.22 0 0 1 6.81-.23 8 8 0 0 1 4.84 4.54q1.33 3.22-.3 7.55l-.31.79-13-4.9a7.17 7.17 0 0 0 0 5 5.18 5.18 0 0 0 3.08 2.9 4.84 4.84 0 0 0 3.11.19 6.08 6.08 0 0 0 2.78-2.06zm-7.94-8.45 9.77 3.67a6.36 6.36 0 0 0 .12-3.73 4.85 4.85 0 0 0 -3-3.09 5 5 0 0 0 -3.95.08 5.78 5.78 0 0 0 -2.93 3.07z"/><path d="m515.25 399.29 6.56-17.49 2.67 1-.93 2.49a6.72 6.72 0 0 1 6.65-.79 7.83 7.83 0 0 1 2.69 1.66 4.88 4.88 0 0 1 1.43 2.23 6.14 6.14 0 0 1 .1 2.54 18.09 18.09 0 0 1 -.92 2.95l-4 10.76-3-1.11 4-10.64a8.54 8.54 0 0 0 .67-2.84 3 3 0 0 0 -.69-1.89 4.17 4.17 0 0 0 -1.87-1.31 5.13 5.13 0 0 0 -3.72 0q-1.83.69-3.09 4l-3.58 9.55z"/><path d="m541.47 406.11-.55 2.78a11.69 11.69 0 0 1 -2.34-.58 5.4 5.4 0 0 1 -2.31-1.45 3 3 0 0 1 -.75-1.81 11.33 11.33 0 0 1 1-3.64l3.78-10.06-2.17-.82.87-2.31 2.17.82 1.63-4.33 3.62-.67-2.29 6.11 3 1.12-.87 2.31-3-1.12-3.84 10.23a5.49 5.49 0 0 0 -.46 1.69 1.32 1.32 0 0 0 .29.77 2.12 2.12 0 0 0 .93.59 10.44 10.44 0 0 0 1.29.37z"/><path d="m557.47 408.71 2.92 1.53a8 8 0 0 1 -4.25 3.16 9.72 9.72 0 0 1 -10.76-5 9.86 9.86 0 0 1 .24-7.47q1.66-4.42 4.84-6a8.22 8.22 0 0 1 6.81-.22 8 8 0 0 1 4.84 4.54q1.33 3.22-.3 7.55c-.07.18-.17.44-.31.79l-13-4.9a7.17 7.17 0 0 0 0 5 5.18 5.18 0 0 0 3.08 2.9 4.85 4.85 0 0 0 3.11.19 6.09 6.09 0 0 0 2.78-2.07zm-7.94-8.45 9.77 3.67a6.34 6.34 0 0 0 .12-3.73 4.86 4.86 0 0 0 -3-3.09 5 5 0 0 0 -3.95.08 5.78 5.78 0 0 0 -2.94 3.08z"/><path d="m562.11 416.88 6.56-17.49 2.67 1-1 2.65a7.74 7.74 0 0 1 2.81-1.75 3.51 3.51 0 0 1 2.13.12 6.18 6.18 0 0 1 2.69 2.1l-2.05 2.37a4.53 4.53 0 0 0 -1.93-1.46 3 3 0 0 0 -2-.07 3.37 3.37 0 0 0 -1.71 1.21 12.29 12.29 0 0 0 -1.79 3.27l-3.42 9.17z"/><path d="m587.46 420 2.92 1.53a8 8 0 0 1 -4.25 3.16 9.72 9.72 0 0 1 -10.76-5 9.87 9.87 0 0 1 .24-7.47q1.66-4.41 4.84-6a8.21 8.21 0 0 1 6.81-.22 8 8 0 0 1 4.84 4.54q1.33 3.22-.3 7.55l-.31.79-13-4.9a7.17 7.17 0 0 0 0 5 5.18 5.18 0 0 0 3.08 2.9 4.85 4.85 0 0 0 3.11.19 6.09 6.09 0 0 0 2.78-2.07zm-7.94-8.45 9.77 3.67a6.36 6.36 0 0 0 .12-3.73 4.86 4.86 0 0 0 -3-3.09 5 5 0 0 0 -3.95.08 5.77 5.77 0 0 0 -2.93 3.04z"/><path d="m603.48 432.41.83-2.21a5.81 5.81 0 0 1 -5.87.77 7.33 7.33 0 0 1 -3.41-2.6 8.11 8.11 0 0 1 -1.51-4.24 11.87 11.87 0 0 1 .82-5.11 13.28 13.28 0 0 1 2.66-4.43 7.35 7.35 0 0 1 3.84-2.29 7.48 7.48 0 0 1 4.33.33 6.23 6.23 0 0 1 3.92 4.22l3.25-8.66 2.95 1.11-9.06 24.15zm-6.1-12.25a8.1 8.1 0 0 0 -.47 5.56 4.56 4.56 0 0 0 2.72 2.92 4.48 4.48 0 0 0 3.9-.35 7.82 7.82 0 0 0 3.18-4.34q1.35-3.59.6-5.79a4.55 4.55 0 0 0 -2.78-3 4.39 4.39 0 0 0 -3.91.38q-1.93 1.14-3.23 4.62z"/><path d="m288.6 599.76-16 2.8.48 2.76-2.43.42-.48-2.76-2 .34a8.72 8.72 0 0 1 -2.81.15 4 4 0 0 1 -2.25-1.24 5.81 5.81 0 0 1 -1.31-3 15.49 15.49 0 0 1 -.2-3h2.8a10.71 10.71 0 0 0 .15 1.87 2.77 2.77 0 0 0 1 1.9 3.34 3.34 0 0 0 2.37.19l1.7-.3-.63-3.59 2.43-.42.63 3.59 16-2.8z"/><path d="m284.89 578.58-2.7.47a6.84 6.84 0 0 1 4.14 5.29 7.58 7.58 0 0 1 -.09 3.15 5.1 5.1 0 0 1 -1.2 2.37 6 6 0 0 1 -2.14 1.37 16.15 16.15 0 0 1 -2.88.7l-11.4 2-.55-3.12 10.2-1.81a18.31 18.31 0 0 0 3.26-.77 3.29 3.29 0 0 0 1.71-1.58 3.92 3.92 0 0 0 .29-2.48 5.2 5.2 0 0 0 -1.18-2.51 4.05 4.05 0 0 0 -2.26-1.4 10 10 0 0 0 -3.68.12l-9.86 1.73-.55-3.11 18.4-3.22z"/><path d="m283.55 570.9-18.4 3.22-.49-2.81 2.62-.46a6.72 6.72 0 0 1 -4.06-5.33 7.82 7.82 0 0 1 .06-3.16 4.89 4.89 0 0 1 1.2-2.36 6.13 6.13 0 0 1 2.13-1.37 18 18 0 0 1 3-.71l11.32-2 .55 3.12-11.2 2a8.54 8.54 0 0 0 -2.79.86 3 3 0 0 0 -1.28 1.55 4.18 4.18 0 0 0 -.18 2.27 5.13 5.13 0 0 0 1.87 3.22q1.52 1.22 5.05.61l10.05-1.77z"/><path d="m483.75 705.23-.68 2.26a5.81 5.81 0 0 1 5.8-1.16 7.33 7.33 0 0 1 3.58 2.36 8.1 8.1 0 0 1 1.79 4.13 11.9 11.9 0 0 1 -.48 5.16 13.27 13.27 0 0 1 -2.35 4.59 7.35 7.35 0 0 1 -3.68 2.54 7.47 7.47 0 0 1 -4.34 0 6.23 6.23 0 0 1 -2.68-1.55 6.29 6.29 0 0 1 -1.52-2.4l-2.65 8.84-3-.91 7.42-24.7zm6.91 11.77a8.11 8.11 0 0 0 .09-5.58 4.56 4.56 0 0 0 -2.91-2.73 4.47 4.47 0 0 0 -3.87.61 7.81 7.81 0 0 0 -2.88 4.54q-1.1 3.67-.21 5.82a4.55 4.55 0 0 0 3 2.77 4.39 4.39 0 0 0 3.87-.64q1.84-1.19 2.91-4.79z"/><path d="m463.83 701.66a11.75 11.75 0 0 1 3.85-1 9.8 9.8 0 0 1 3.52.41 6.8 6.8 0 0 1 4.1 2.8 5 5 0 0 1 .48 4.16 5.12 5.12 0 0 1 -1.32 2.22 5.17 5.17 0 0 1 -2.09 1.27 7.69 7.69 0 0 1 -2.48.34 22.68 22.68 0 0 1 -2.83-.35 28.85 28.85 0 0 0 -5.72-.58c-.14.41-.22.67-.25.79a3.49 3.49 0 0 0 .08 2.87 5.3 5.3 0 0 0 3.15 2.06 5.6 5.6 0 0 0 3.38.2 4.79 4.79 0 0 0 2.3-2.2l2.84 1.29a7.68 7.68 0 0 1 -2.25 2.68 6.11 6.11 0 0 1 -3.22 1 12.48 12.48 0 0 1 -4.25-.59 11.26 11.26 0 0 1 -3.56-1.66 5.13 5.13 0 0 1 -1.7-2 5 5 0 0 1 -.32-2.35 17.65 17.65 0 0 1 .69-2.84l1.21-4a45.11 45.11 0 0 0 1.41-5.41 7 7 0 0 0 -.12-2.38l3.17 1a6.66 6.66 0 0 1 -.07 2.27zm-1.83 6.85a23.2 23.2 0 0 1 5.3.34 11.93 11.93 0 0 0 2.83.19 2.74 2.74 0 0 0 1.49-.63 2.8 2.8 0 0 0 .54-3.61 4.12 4.12 0 0 0 -2.45-1.62 6.51 6.51 0 0 0 -3.35-.17 4.93 4.93 0 0 0 -2.64 1.5 7.65 7.65 0 0 0 -1.4 2.89z"/><path d="m449.54 697.92.37-2.81a11.66 11.66 0 0 1 2.37.42 5.4 5.4 0 0 1 2.4 1.29 3.06 3.06 0 0 1 .87 1.76 11.33 11.33 0 0 1 -.71 3.69l-3.09 10.29 2.22.67-.71 2.36-2.22-.67-1.33 4.43-3.56.91 1.85-6.26-3-.92.71-2.36 3 .91 3.14-10.46a5.55 5.55 0 0 0 .34-1.72 1.33 1.33 0 0 0 -.35-.75 2.11 2.11 0 0 0 -1-.53 10.43 10.43 0 0 0 -1.3-.25z"/><path d="m435 693a11.78 11.78 0 0 1 3.85-1 9.82 9.82 0 0 1 3.52.41 6.8 6.8 0 0 1 4.1 2.8 5 5 0 0 1 .48 4.16 5.12 5.12 0 0 1 -1.32 2.22 5.19 5.19 0 0 1 -2.09 1.27 7.69 7.69 0 0 1 -2.48.34 22.61 22.61 0 0 1 -2.83-.35 28.88 28.88 0 0 0 -5.72-.58l-.25.79a3.49 3.49 0 0 0 .08 2.87 5.3 5.3 0 0 0 3.15 2.07 5.6 5.6 0 0 0 3.38.2 4.79 4.79 0 0 0 2.3-2.2l2.84 1.29a7.68 7.68 0 0 1 -2.25 2.68 6.1 6.1 0 0 1 -3.22 1 12.45 12.45 0 0 1 -4.25-.59 11.23 11.23 0 0 1 -3.56-1.66 5.13 5.13 0 0 1 -1.7-2 5 5 0 0 1 -.32-2.35 17.65 17.65 0 0 1 .69-2.84l1.21-4a45 45 0 0 0 1.41-5.41 7 7 0 0 0 -.12-2.38l3.17 1a6.66 6.66 0 0 1 -.07 2.26zm-1.78 6.85a23.15 23.15 0 0 1 5.3.34 12 12 0 0 0 2.83.19 2.76 2.76 0 0 0 1.49-.63 2.8 2.8 0 0 0 .54-3.61 4.13 4.13 0 0 0 -2.45-1.62 6.53 6.53 0 0 0 -3.35-.17 4.93 4.93 0 0 0 -2.63 1.5 7.64 7.64 0 0 0 -1.4 2.89z"/><path d="m427.15 696.33-.92 3.05-9.32-2.8.92-3z"/><path d="m405.1 681.62-.68 2.26a5.81 5.81 0 0 1 5.8-1.16 7.34 7.34 0 0 1 3.58 2.36 8.1 8.1 0 0 1 1.79 4.13 11.89 11.89 0 0 1 -.47 5.16 13.29 13.29 0 0 1 -2.35 4.59 7.36 7.36 0 0 1 -3.68 2.54 7.48 7.48 0 0 1 -4.34 0 6.23 6.23 0 0 1 -4.2-3.94l-2.66 8.86-3-.91 7.42-24.7zm6.9 11.81a8.11 8.11 0 0 0 .09-5.57 4.56 4.56 0 0 0 -2.91-2.73 4.48 4.48 0 0 0 -3.87.61 7.81 7.81 0 0 0 -2.88 4.54q-1.1 3.67-.21 5.82a4.55 4.55 0 0 0 3 2.77 4.39 4.39 0 0 0 3.87-.64q1.84-1.23 2.91-4.8z"/><path d="m397.55 679.36-5.37 17.89-2.73-.82.81-2.71a7.78 7.78 0 0 1 -2.68 1.93 3.52 3.52 0 0 1 -2.13 0 6.18 6.18 0 0 1 -2.82-1.91l1.89-2.5a4.52 4.52 0 0 0 2 1.33 3 3 0 0 0 2-.06 3.38 3.38 0 0 0 1.63-1.32 12.29 12.29 0 0 0 1.57-3.39l2.81-9.37z"/><path d="m379.64 697.11-1 3.49-3-.91 1-3.49zm6.36-21.22-5.37 17.89-3-.91 5.37-17.87z"/><path d="m373.38 672.1 1.44 19.9-3.2-1-.62-11.79q-.1-1.92-.06-4-.83 1.29-2.15 3.07l-7.27 9.72-3.12-.94 12.14-15.86z"/><path d="m347.12 670.5-3-1.33a8 8 0 0 1 4-3.44 8.64 8.64 0 0 1 5.58 0 8.55 8.55 0 0 1 5.5 4.29 9.85 9.85 0 0 1 .26 7.47q-1.35 4.52-4.43 6.31a8.22 8.22 0 0 1 -6.78.68 8 8 0 0 1 -5.13-4.21q-1.54-3.13-.21-7.56.08-.27.26-.8l13.35 4a7.17 7.17 0 0 0 -.31-5 5.18 5.18 0 0 0 -3.27-2.69 4.86 4.86 0 0 0 -3.11 0 6.1 6.1 0 0 0 -2.71 2.28zm8.49 7.89-10-3a6.34 6.34 0 0 0 .13 3.73 4.85 4.85 0 0 0 3.26 2.88 5 5 0 0 0 3.93-.34 5.78 5.78 0 0 0 2.68-3.27z"/><path d="m341.91 662.66-5.37 17.89-2.73-.82.76-2.54a6.72 6.72 0 0 1 -6.58 1.24 7.8 7.8 0 0 1 -2.8-1.47 4.88 4.88 0 0 1 -1.57-2.13 6.12 6.12 0 0 1 -.27-2.52 18 18 0 0 1 .71-3l3.3-11 3 .91-3.27 10.88a8.52 8.52 0 0 0 -.48 2.88 3 3 0 0 0 .82 1.84 4.15 4.15 0 0 0 1.95 1.18 5.13 5.13 0 0 0 3.71-.23q1.78-.81 2.81-4.24l2.93-9.77z"/><path d="m634.65 554.32-2.52-1.32a11.75 11.75 0 0 1 1.19-2.1 5.43 5.43 0 0 1 2-1.83 3.06 3.06 0 0 1 1.95-.23 11.36 11.36 0 0 1 3.24 1.9l8.66 6.36 1.38-1.87 2 1.46-1.37 1.87 3.73 2.74-.33 3.66-5.26-3.86-1.88 2.57-2-1.46 1.88-2.57-8.8-6.47a5.5 5.5 0 0 0 -1.5-.9 1.31 1.31 0 0 0 -.82.07 2.11 2.11 0 0 0 -.83.74 10.34 10.34 0 0 0 -.72 1.24z"/><path d="m630.56 555.11 15.06 11.06-1.69 2.3-2.28-1.68a7.72 7.72 0 0 1 .92 3.18 3.51 3.51 0 0 1 -.69 2 6.18 6.18 0 0 1 -2.75 2l-1.72-2.62a4.54 4.54 0 0 0 1.93-1.46 3 3 0 0 0 .6-1.87 3.38 3.38 0 0 0 -.7-2 12.37 12.37 0 0 0 -2.67-2.61l-7.88-5.79z"/><path d="m618.07 576a11.83 11.83 0 0 1 .3-4 9.81 9.81 0 0 1 1.57-3.18 6.79 6.79 0 0 1 4-2.92 5 5 0 0 1 4.08.94 5.2 5.2 0 0 1 2.15 4.38 7.72 7.72 0 0 1 -.51 2.45 22.62 22.62 0 0 1 -1.28 2.55 28.87 28.87 0 0 0 -2.47 5.2l.66.5a3.5 3.5 0 0 0 2.73.89 5.3 5.3 0 0 0 3-2.27 5.6 5.6 0 0 0 1.32-3.12 4.78 4.78 0 0 0 -1.3-2.91l2.17-2.25a7.69 7.69 0 0 1 1.76 3 6.09 6.09 0 0 1 -.14 3.37 12.45 12.45 0 0 1 -2 3.81 11.21 11.21 0 0 1 -2.76 2.8 5.12 5.12 0 0 1 -2.44.93 5 5 0 0 1 -2.32-.48 17.88 17.88 0 0 1 -2.45-1.6l-3.4-2.5a45.1 45.1 0 0 0 -4.62-3.14 7 7 0 0 0 -2.28-.68l2-2.67a6.71 6.71 0 0 1 2.23.9zm5.86 4a23.37 23.37 0 0 1 2.1-4.88 12 12 0 0 0 1.12-2.6 2.76 2.76 0 0 0 -.09-1.62 2.8 2.8 0 0 0 -3.22-1.72 4.12 4.12 0 0 0 -2.34 1.76 6.51 6.51 0 0 0 -1.28 3.1 4.93 4.93 0 0 0 .53 3 7.68 7.68 0 0 0 2.25 2.29z"/><path d="m611.57 581 15.05 11-1.69 2.3-2.14-1.57a6.72 6.72 0 0 1 -1 6.61 7.76 7.76 0 0 1 -2.33 2.14 4.87 4.87 0 0 1 -2.54.77 6.09 6.09 0 0 1 -2.47-.59 18.06 18.06 0 0 1 -2.58-1.68l-9.26-6.8 1.88-2.55 9.16 6.73a8.54 8.54 0 0 0 2.55 1.42 3 3 0 0 0 2-.15 4.17 4.17 0 0 0 1.77-1.44 5.13 5.13 0 0 0 1-3.57q-.17-1.95-3.06-4.07l-8.22-6z"/><path d="m604.95 599.39-1.46 2.82a4.38 4.38 0 0 0 -3.2-.53 5.12 5.12 0 0 0 -2.8 2.12 5 5 0 0 0 -1.2 3.14 2.66 2.66 0 0 0 1.05 2.08 1.93 1.93 0 0 0 1.91.25 13.71 13.71 0 0 0 2.78-2 29.44 29.44 0 0 1 4.09-3 4.68 4.68 0 0 1 2.64-.59 4.73 4.73 0 0 1 2.43.93 4.81 4.81 0 0 1 1.52 1.83 5.13 5.13 0 0 1 .5 2.3 6.57 6.57 0 0 1 -.45 2.17 9.59 9.59 0 0 1 -1.32 2.43 10.83 10.83 0 0 1 -2.8 2.74 5.26 5.26 0 0 1 -2.83 1 6.73 6.73 0 0 1 -3-.83l1.49-2.75a3.39 3.39 0 0 0 2.54.35 4.47 4.47 0 0 0 2.34-1.83 5.17 5.17 0 0 0 1.26-2.94 2.1 2.1 0 0 0 -.81-1.75 1.74 1.74 0 0 0 -1.12-.34 2.78 2.78 0 0 0 -1.4.48q-.42.28-2.31 1.78a38.82 38.82 0 0 1 -4 2.91 4.76 4.76 0 0 1 -2.57.7 4.64 4.64 0 0 1 -2.63-1 5.31 5.31 0 0 1 -1.85-2.51 6 6 0 0 1 -.17-3.43 9.68 9.68 0 0 1 1.72-3.63 8.79 8.79 0 0 1 4.5-3.58 7 7 0 0 1 5.15.68z"/><path d="m583.27 607.38 20.83 15.3-1.71 2.32-2-1.44a7.12 7.12 0 0 1 .36 3.12 6.3 6.3 0 0 1 -1.27 2.93 7.38 7.38 0 0 1 -3.48 2.69 7.57 7.57 0 0 1 -4.43.17 12.72 12.72 0 0 1 -4.52-2.16 12.51 12.51 0 0 1 -3.55-3.89 7.82 7.82 0 0 1 .39-8.54 6 6 0 0 1 2.22-1.89 6.44 6.44 0 0 1 2.58-.67l-7.33-5.39zm11.51 12q-2.91-2.14-5.16-2a4.48 4.48 0 0 0 -3.48 1.83 4.58 4.58 0 0 0 -.7 4q.55 2.27 3.57 4.49a8.26 8.26 0 0 0 5.18 2 4.42 4.42 0 0 0 3.51-1.78 4.56 4.56 0 0 0 .59-4 8.46 8.46 0 0 0 -3.51-4.52z"/><path d="m571.81 639a11.83 11.83 0 0 1 .3-4 9.79 9.79 0 0 1 1.57-3.18 6.8 6.8 0 0 1 4-2.92 5 5 0 0 1 4.08.94 5.21 5.21 0 0 1 2.15 4.38 7.69 7.69 0 0 1 -.51 2.45 22.66 22.66 0 0 1 -1.28 2.55 29 29 0 0 0 -2.47 5.2l.66.5a3.5 3.5 0 0 0 2.73.89 5.3 5.3 0 0 0 3-2.27 5.58 5.58 0 0 0 1.32-3.12 4.77 4.77 0 0 0 -1.3-2.91l2.17-2.25a7.68 7.68 0 0 1 1.77 3 6.1 6.1 0 0 1 -.14 3.37 12.45 12.45 0 0 1 -2 3.81 11.21 11.21 0 0 1 -2.76 2.8 5.12 5.12 0 0 1 -2.44.93 5 5 0 0 1 -2.32-.48 17.88 17.88 0 0 1 -2.45-1.6l-3.4-2.5a44.79 44.79 0 0 0 -4.62-3.14 7 7 0 0 0 -2.28-.68l2-2.67a6.71 6.71 0 0 1 2.22.9zm5.86 4a23.36 23.36 0 0 1 2.1-4.88 12 12 0 0 0 1.12-2.6 2.75 2.75 0 0 0 -.09-1.62 2.8 2.8 0 0 0 -3.22-1.72 4.13 4.13 0 0 0 -2.34 1.76 6.52 6.52 0 0 0 -1.24 3.06 4.93 4.93 0 0 0 .53 3 7.65 7.65 0 0 0 2.25 2.29z"/><path d="m565.33 643.89 15.05 11.11-1.69 2.3-2.28-1.68a7.74 7.74 0 0 1 .92 3.17 3.51 3.51 0 0 1 -.69 2 6.18 6.18 0 0 1 -2.75 2l-1.72-2.62a4.54 4.54 0 0 0 1.93-1.46 3 3 0 0 0 .6-1.87 3.38 3.38 0 0 0 -.7-2 12.32 12.32 0 0 0 -2.67-2.61l-7.88-5.79z"/><path d="m555.48 667.46-2.26 2.4a8 8 0 0 1 -1.89-4.95 9.72 9.72 0 0 1 7.77-9 9.87 9.87 0 0 1 7.13 2.26q3.8 2.79 4.46 6.29a8.21 8.21 0 0 1 -1.63 6.62 8 8 0 0 1 -5.68 3.42q-3.46.4-7.19-2.34l-.67-.51 8.25-11.23a7.17 7.17 0 0 0 -4.83-1.39 5.18 5.18 0 0 0 -3.63 2.18 4.84 4.84 0 0 0 -1 2.94 6.08 6.08 0 0 0 1.17 3.31zm10.28-5.35-6.18 8.41a6.32 6.32 0 0 0 3.56 1.13 4.85 4.85 0 0 0 3.8-2.08 5 5 0 0 0 1-3.82 5.78 5.78 0 0 0 -2.18-3.64z"/><path d="m546.34 669.74 15.06 11.06-1.69 2.3-2.14-1.57a6.71 6.71 0 0 1 -1 6.61 7.77 7.77 0 0 1 -2.33 2.14 4.87 4.87 0 0 1 -2.54.77 6.09 6.09 0 0 1 -2.47-.59 18.05 18.05 0 0 1 -2.58-1.68l-9.26-6.8 1.88-2.55 9.16 6.73a8.55 8.55 0 0 0 2.55 1.42 3 3 0 0 0 2-.15 4.18 4.18 0 0 0 1.77-1.44 5.14 5.14 0 0 0 1-3.57q-.17-1.95-3.06-4.07l-8.22-6z"/><path d="m532.66 693.13-2.52-1.29a11.68 11.68 0 0 1 1.19-2.09 5.42 5.42 0 0 1 2-1.83 3 3 0 0 1 1.95-.23 11.36 11.36 0 0 1 3.24 1.9l8.68 6.41 1.38-1.87 2 1.46-1.37 1.87 3.73 2.74-.33 3.66-5.29-3.86-1.89 2.57-2-1.46 1.89-2.57-8.8-6.47a5.51 5.51 0 0 0 -1.5-.9 1.31 1.31 0 0 0 -.82.07 2.1 2.1 0 0 0 -.83.74 10.29 10.29 0 0 0 -.71 1.15z"/><path d="m386.4 519.55v-3.28h5.6v-3.44h4.06v3.44h15.34v-3.44h4.22v3.44h5.47v3.28h-5.47v12.35h6.72v3.1h-10a23.36 23.36 0 0 0 10.47 5.63l-.47.94a22.63 22.63 0 0 0 -1.25 2.66 44.48 44.48 0 0 1 -7.34-3.75v2h-8v3.28h13.91v2.81h-32v-2.77h14.06v-3.28h-8v-2a63 63 0 0 1 -7.34 4.22 16.41 16.41 0 0 0 -1.72-3.59 30.3 30.3 0 0 0 10.34-6.15h-9.84v-3.1h6.84v-12.35zm19.38 17v3.13h6.72a32.69 32.69 0 0 1 -4.69-4.69h-8.12a29.93 29.93 0 0 1 -4.84 4.69h6.88v-3.12zm-9.69-17v2.34h15.31v-2.34zm0 4.84v2.5h15.31v-2.5zm0 5v2.5h15.31v-2.5z"/><path d="m426.25 523.15v-4.06h15.31v-6.09h4.22v6.09h15.47v4.06h-13.44a38.1 38.1 0 0 0 14.84 16.09 18.09 18.09 0 0 0 -2.19 4.22q-10.31-7.19-14.69-16.87v13.28h8v3.75h-8v6.56h-4.22v-6.56h-8.12v-3.75h8.13v-13.13q-4.22 9.69-14.69 17.19-1.41-2.81-2.19-4.22a40.89 40.89 0 0 0 15-16.56z"/><path d="m468.59 550.33v-19.84a44.5 44.5 0 0 1 -3.12 5.31q-.16-1.72-.62-4.22a6.6 6.6 0 0 1 -.16-1.25 68.57 68.57 0 0 0 6.56-17.33l3.75.78a75.08 75.08 0 0 1 -2.5 8.13v28.44zm6.88.16a4.72 4.72 0 0 1 -.31-.94 21.19 21.19 0 0 0 -1.09-2.19q1.25-.31.94-.16 7.5-1.41 10-2l1.56 2.5q-5.48 1.54-11.1 2.79zm-.16-33.12v-2.81h27.19v2.81h-8.44v2.5h7.5v7.5h-25.94v-7.5h7.38v-2.5zm1.69 27.34v-15.31h23v15.31zm2-22.34v2.63h4v-2.66zm1.88 9.38v2h15.16v-2zm0 4.22v2h15.16v-2zm0 4.22v2.19h15.16v-2.19zm5.47-22.81v2.5h4.22v-2.5zm0 5v2.62h4.22v-2.66zm14.84 27.81q-7-1.72-10.94-2.5l1.41-2.5q1.09.16 3.75.63 5 .94 7 1.41zm-3.12-27.81h-4.06v2.62h4.06z"/><path d="m508.75 550.18v-19.69q-1.41 2.5-3.12 5.16-.16-.78-.62-2.34a15 15 0 0 0 -.62-2.81 65.37 65.37 0 0 0 7.5-17.5l4.06.94a74.9 74.9 0 0 1 -3.28 8.91v27.34zm7.34-30.62v-3.28h10.47v-3.28h4.06v3.28h11.25v3.28h-11.25v3.13h9.06v23.11h3v3.28h-28.15v-3.28h3.13v-23.12h8.91v-3.12zm5.47 6.25v3h14.22v-3zm0 5.78v3h14.22v-3zm0 5.78v3h14.22v-3zm0 5.78v2.66h14.22v-2.66z"/></svg>