<svg fill="none" height="68" viewBox="0 0 32 68" width="32" xmlns="http://www.w3.org/2000/svg"><g fill="#fff"><path d="m9.42369 0h13.15221c2.5913 0 4.9491 1.05747 6.6553 2.76487 1.71 1.70399 2.7684 4.05883 2.7684 6.64684v27.98319c0 2.5918-1.0588 4.9429-2.7684 6.6507-1.7062 1.7041-4.064 2.7648-6.6553 2.7648h-13.15221c-2.5913 0-4.94914-1.0607-6.65529-2.7648-1.71-1.7078-2.7684-4.0589-2.7684-6.6507v-27.98319c0-2.58801 1.05882-4.94285 2.7684-6.64684 1.70615-1.70781 4.06399-2.76487 6.65529-2.76487zm13.15221 2.09151h-13.15221c-2.01507 0-3.84559.82379-5.17513 2.15165-1.32954 1.32785-2.15438 3.15603-2.15438 5.16855v27.98319c0 2.0125.82484 3.8445 2.15438 5.1724 1.32954 1.3278 3.16006 2.1516 5.17513 2.1516h13.15221c2.0151 0 3.8456-.8238 5.1751-2.1516 1.3296-1.3279 2.1544-3.1599 2.1544-5.1724v-27.98319c0-2.01252-.8248-3.8407-2.1544-5.16855-1.3295-1.32786-3.1596-2.15165-5.1747-2.15165z"/><path d="m17.0473 9.5127v9.0017h-2.0942v-9.0017z"/><path d="m6.11691 52.6894 9.86819 6.7296 9.8795-7.1133 1.2204 1.6889-11.0698 7.9748-11.07721-7.5535z"/><path d="m6.11691 58.7206 9.86819 6.7297 9.8795-7.1134 1.2204 1.689-11.0698 7.9747-11.07721-7.5534z"/></g></svg>