<svg fill="none" height="68" viewBox="0 0 72 68" width="72" xmlns="http://www.w3.org/2000/svg"><g fill="#fff"><path d="m24.2935 17.3194c-2.8773 1.6612-3.8735 5.3795-2.2123 8.2568l10.4006 18.0146c-1.8217-1.2839-4.3693-2.3377-6.4624-1.7489-2.8717.7593-4.7659 4.501-4.1264 7.2081.3898 1.4897 1.4646 2.8204 3.1933 4.2088 8.1191 6.2117 16.8357 11.6433 25.3684 14.662.4051.1393.8693.0956 1.2412-.1168l17.6666-10.1998c.277-.1634.4988-.4182.6235-.7145 1.078-2.4829 1.2238-5.7363.8488-9.2962-.3748-3.5599-1.3071-7.4024-2.6637-10.8943s-3.0921-6.4933-5.3281-8.7562c-2.158-2.1841-5.2089-3.2772-8.0978-2.0316-.6394.3656-1.2807.8102-1.775 1.2701-.799-.6088-1.6646-1.0216-2.4882-1.0989-1.3793-.1295-2.5015.2268-3.3004.7058-.7669.46-1.3102 1.1497-1.6811 1.9521-.5296-.2671-1.0772-.547-1.6016-.6021-1.3769-.1444-2.5216.2563-3.3413.7295-.6779.3914-1.2254.9582-1.7032 1.5831l-6.3041-10.9191c-2.0778-3.4704-5.8439-3.6145-8.2568-2.2125zm1.5111 2.6174c1.4726-.8503 3.2782-.3664 4.1284 1.1062l7.9333 13.7409c.3338.5981 1.1086.9093 1.7634.7082s1.1212-.8935 1.0618-1.5759c-.0582-.7679.6697-2.0225 1.3771-2.4309.3178-.1834.9832-.3916 1.5245-.3349.5414.0568 1.0218.2116 1.572 1.1645.3358.5818 1.0929.8816 1.737.6906.644-.1911 1.1138-.8552 1.0794-1.5261-.0824-1.3715.1033-1.7081.7521-2.0973.1794-.1079.8845-.3537 1.463-.2994s1.0771.2128 1.6129 1.1408c.2877.5135.9006.823 1.4854.7566.5848-.0665 1.1098-.5064 1.2777-1.0705.355-.5311.7988-.8862 1.4383-1.2393 1.6748-.7023 3.0492-.1921 4.7303 1.4404 1.6964 1.6474 3.3432 4.4516 4.5969 7.6788 1.2539 3.2272 2.147 6.8606 2.4905 10.1219.3221 3.0587.0934 5.7247-.5088 7.3823l-16.5012 9.5269c-7.722-2.7667-16.9125-8.5552-23.8217-13.9191-1.4798-1.1884-2.0413-2.0372-2.1875-2.6084-.2458-1.5458.6986-3.0438 1.967-3.5348 1.6938-.2793 2.5746.4501 3.783 1.1692l5.6072 3.7149c.5639.3652 1.3739.2904 1.8614-.1718s.605-1.2671.2704-1.8496l-13.6-23.5559c-.8502-1.4726-.3663-3.2782 1.1062-4.1284z"/><path d="m16.622 8.31107c0-.39772-.1495-.80413-.4485-1.0861l-6.79869-6.799972c-.30267-.3299495-.6821-.4091314-1.06221-.424998-.41367.0128444-.74332.110915-1.06231.424998l-6.79859 6.799972c-.609882.5551-.586842 1.57894-.023427 2.14855.563189.56977 1.589807.57438 2.148237 0l4.22544-4.22632v28.9943l-4.22544-4.2264c-.55843-.5744-1.585048-.5698-2.148237 0-.563264.5696-.556837 1.5965.023427 2.1486l6.79859 6.8c.31899.3141.64864.4123 1.06231.425.38011-.0158.75954-.095 1.06221-.425l6.79869-6.8c.5981-.5638.5868-1.579.0234-2.1486-.5632-.5696-1.5898-.5742-2.1481 0l-4.22565 4.2264c0-9.6648 0-19.3295 0-28.9943l4.22565 4.22632c.5583.5743 1.5849.56961 2.1481 0 .2817-.28476.4289-.66472.425-1.06245z"/></g></svg>