<svg fill="none" height="106" viewBox="0 0 260 106" width="260" xmlns="http://www.w3.org/2000/svg"><g fill="#04295e"><path d="m72.5202 24.79h-34.2823l-2.6371 11.0758c1.5823-.2637 3.1645-.2637 4.4831-.5274 1.3185-.2637 2.6371-.2637 4.2193-.2637 5.0105 0 9.4936.7911 13.7129 2.6371 4.2194 1.8459 7.6476 4.2193 10.5484 7.3838s5.0105 6.8565 6.329 11.0758c1.3186 4.2194 1.846 8.9661 1.3186 13.9766-.5274 5.2742-1.846 10.2847-4.2194 14.504-2.3733 4.2194-5.5379 7.9113-9.2298 11.0759-3.9556 3.1645-8.4387 5.2741-13.7129 6.8561-5.2742 1.583-11.0758 2.374-17.4048 2.374-6.0654 0-11.6033-.791-16.8775-2.11-5.27415-1.319-10.28464-3.6919-14.7677-6.5927l6.06532-24.2613c3.95568 3.6919 8.17498 6.5927 12.65808 8.7024s8.7024 2.9008 12.9218 2.9008c5.2742 0 9.4935-1.3185 12.9217-4.2193 3.4283-2.9008 5.2742-6.3291 5.5379-10.5484.5275-5.0105-1.3185-8.9661-5.2742-11.8669-3.9556-3.1646-9.2298-4.4831-15.8225-4.4831-2.9008 0-6.0654.2637-9.2299 1.0548-3.1645.5274-6.329 1.5823-9.7572 3.1645l12.3943-53.7967h52.2145z"/><path d="m83.3317 52.4782c.7911-7.9113 2.3734-15.0315 5.0105-21.6242 2.6371-6.329 6.0653-11.8669 10.0209-16.6137 4.2189-4.48305 8.9659-8.17498 14.2399-10.54837 5.275-2.63709 11.076-3.69193 17.405-3.69193 6.066 0 11.604 1.31855 16.614 3.69193 5.01 2.6371 8.966 6.06532 12.394 10.54837 3.165 4.4831 5.802 10.021 7.121 16.6137 1.582 6.5927 1.846 13.7129 1.318 21.6242-.791 7.9113-2.373 15.0314-5.01 21.6242-2.638 6.5927-6.066 11.8669-10.021 16.6137-4.22 4.7467-8.967 8.175-14.241 10.8119-5.538 2.374-11.076 3.692-17.405 3.692s-11.866-1.318-16.877-3.692c-5.0105-2.6369-8.9661-6.0652-12.3943-10.8119-3.4282-4.4831-5.8016-10.021-7.1202-16.6137-1.3185-6.5928-1.846-13.7129-1.0548-21.6242zm25.5803 0c-.264 4.4831-.264 8.4387.263 11.8669.528 3.6919 1.319 6.8565 2.637 9.4936 1.319 2.6371 2.901 4.7467 4.747 6.0653 1.846 1.5822 4.219 2.1097 6.593 2.1097 2.373 0 4.747-.7912 6.856-2.1097 2.11-1.3186 4.22-3.4282 5.802-6.0653s2.901-5.8017 4.219-9.4936c1.055-3.6919 1.846-7.6476 2.11-11.8669.264-4.2194.264-8.175-.264-11.8669-.527-3.692-1.318-6.8565-2.373-9.2299-1.055-2.6371-2.637-4.7467-4.747-6.0653-1.846-1.3185-4.219-2.1097-6.593-2.1097-2.637 0-5.01.7912-7.12 2.1097-2.11 1.3186-3.955 3.4282-5.801 6.0653-1.583 2.6371-3.165 5.8016-4.22 9.2299-1.055 3.6919-1.846 7.6475-2.109 11.8669z"/><path d="m175.63 52.4782c.791-7.9113 2.373-15.0315 5.01-21.6242 2.637-6.329 6.066-11.8669 10.021-16.6137 3.956-4.74676 8.966-8.17498 14.241-10.54837 5.274-2.37338 11.339-3.69193 17.404-3.69193 6.066 0 11.604 1.31855 16.614 3.69193 5.011 2.6371 8.966 6.06532 12.394 10.54837 3.165 4.4831 5.802 10.021 7.121 16.6137 1.582 6.5927 1.846 13.7129 1.318 21.6242-.791 7.9113-2.373 15.0314-5.01 21.6242-2.637 6.5927-6.066 11.8669-10.021 16.6137-4.22 4.7467-8.966 8.175-14.241 10.8119-5.537 2.374-11.075 3.692-17.404 3.692s-11.867-1.318-16.614-3.692c-5.011-2.6369-8.966-6.0652-12.394-10.8119-3.429-4.4831-5.802-10.021-7.121-16.6137-1.318-6.5928-2.109-13.7129-1.318-21.6242zm25.58 0c-.264 4.4831-.264 8.4387.263 11.8669.528 3.6919 1.319 6.8565 2.637 9.4936 1.319 2.6371 2.901 4.7467 4.747 6.0653 1.846 1.5822 4.22 2.1097 6.593 2.1097s4.747-.7912 6.856-2.1097c2.11-1.3186 4.22-3.4282 5.802-6.0653s2.901-5.8017 4.219-9.4936c1.055-3.6919 1.846-7.6476 2.11-11.8669.264-4.2194.264-8.175-.264-11.8669-.527-3.692-1.318-6.8565-2.373-9.2299-1.055-2.6371-2.637-4.7467-4.747-6.0653-1.846-1.3185-4.219-2.1097-6.593-2.1097-2.637 0-5.01.7912-7.12 2.1097-2.109 1.3186-3.955 3.4282-5.801 6.0653-1.583 2.6371-3.165 5.8016-4.22 9.2299-1.054 3.6919-1.846 7.6475-2.109 11.8669z"/></g></svg>