<svg fill="none" height="103" viewBox="0 0 260 103" width="260" xmlns="http://www.w3.org/2000/svg"><g fill="#04295e"><path d="m72.1506 60.8125h11.5957l-1.8038 19.3261h-11.5956l-1.8038 19.8414h-23.4489l1.8037-19.8414h-46.8979l1.54609-16.2339 42.25961-61.07035h33.2409zm-23.4489 0 3.3498-38.3944-25.5104 38.3944z"/><path d="m90.9614 51.2785c.773-7.7304 2.3191-14.6878 4.8959-21.1298 2.5768-6.4421 5.9267-11.5957 9.7917-16.2339 4.123-4.38061 8.761-7.98814 13.915-10.30727 5.154-2.57681 10.823-3.60753 17.007-3.60753 5.927 0 11.338 1.2884 16.234 3.60753s8.761 5.92666 12.111 10.30727c3.092 4.3805 5.669 9.7918 6.957 16.2339 1.546 6.1843 1.804 13.3994 1.289 21.1298-.773 7.7304-2.32 14.6878-4.896 21.1298-2.577 6.1844-5.927 11.8534-9.792 16.2339-4.123 4.6383-8.761 7.9881-13.915 10.5649-5.411 2.3189-10.823 3.6079-17.007 3.6079s-11.596-1.289-16.492-3.6079c-4.895-2.5768-8.761-5.9266-12.1105-10.5649-3.3499-4.3805-5.669-9.7919-6.9574-16.2339s-1.8038-13.3994-1.0307-21.1298zm24.9946 0c-.257 4.3806-.257 8.2458.258 11.5956.515 3.6076 1.288 6.6997 2.577 9.2765 1.288 2.5769 2.834 4.6383 4.638 5.9267 1.804 1.5461 4.123 2.0614 6.442 2.0614s4.638-.773 6.7-2.0614c2.061-1.2884 4.123-3.3498 5.669-5.9267 1.546-2.5768 2.834-5.6689 4.123-9.2765 1.03-3.6075 1.804-7.4727 2.061-11.5956.258-4.1229.258-7.9881-.257-11.5956-.516-3.6076-1.289-6.6997-2.32-9.2766-1.03-2.5768-2.576-4.6382-4.638-5.9266-2.061-1.2884-4.123-2.0615-6.442-2.0615-2.577 0-4.896.7731-6.957 2.0615-2.062 1.2884-3.865 3.3498-5.669 5.9266-1.546 2.5769-3.092 5.669-4.123 9.2766-1.031 3.6075-1.804 7.4727-2.062 11.5956z"/><path d="m248.147 60.8125h11.853l-1.804 19.3261h-11.853l-1.804 19.8414h-23.449l1.804-19.8414h-46.898l1.546-16.2339 42.26-61.07035h33.241zm-23.449 0 3.35-38.3944-25.768 38.3944z"/></g></svg>