<svg fill="none" height="19" viewBox="0 0 19 19" width="19" xmlns="http://www.w3.org/2000/svg"><path d="m9.38867 18.4697c4.82523 0 8.81543-3.9902 8.81543-8.8154 0-4.83399-3.9902-8.815433-8.82422-8.815433-4.82519 0-8.806638 3.981443-8.806638 8.815433 0 4.8252 3.990238 8.8154 8.815428 8.8154zm-3.1289-5.1152c-.31641 0-.57129-.2461-.57129-.5625 0-.1582.06152-.29.17578-.4043l2.71582-2.72461-2.71582-2.72461c-.11426-.11426-.17578-.2461-.17578-.4043 0-.30762.25488-.55371.57129-.55371.1582 0 .29003.05273.40429.17578l2.71582 2.71582 2.74222-2.72461c.123-.12305.2461-.17578.4043-.17578.3076 0 .5625.24609.5625.55371 0 .1582-.0528.28125-.167.41309l-2.7334 2.72461 2.7246 2.71581c.1142.1231.167.2549.167.4131 0 .3164-.2461.5625-.5713.5625-.1582 0-.29-.0615-.4131-.1758l-2.71582-2.7158-2.69824 2.7158c-.12305.1231-.26367.1758-.42187.1758z" fill="#fff"/></svg>