<svg fill="none" height="19" viewBox="0 0 19 19" width="19" xmlns="http://www.w3.org/2000/svg"><path d="m9.38867 18.4697c4.82523 0 8.81543-3.9902 8.81543-8.8154 0-4.83399-3.9902-8.815433-8.82422-8.815433-4.82519 0-8.806638 3.981443-8.806638 8.815433 0 4.8252 3.990238 8.8154 8.815428 8.8154zm0-1.1426c-4.2539 0-7.67285-3.4277-7.67285-7.6728 0-4.25391 3.41895-7.68164 7.66406-7.68164 4.25392 0 7.68162 3.42773 7.69042 7.68164 0 4.2451-3.4277 7.6728-7.68163 7.6728zm-2.38183-3.7529h2.27636c2.3906 0 3.7793-1.4238 3.7793-3.98143 0-2.49609-1.3799-3.9375-3.7793-3.9375h-2.27636c-.34278 0-.52735.2461-.52735.60645v6.69728c0 .3691.18457.6152.52735.6152zm.52734-.8701v-6.17871h1.62598c1.75784 0 2.79494 1.10742 2.79494 3.08496 0 2.04785-1.0283 3.09375-2.79494 3.09375z" fill="#111"/></svg>