<svg width="32" height="18" viewBox="0 0 32 18" fill="none" xmlns="http://www.w3.org/2000/svg"><path fill-rule="evenodd" clip-rule="evenodd" d="M32 5.21726C32 8.58715 30.835 11.5598 28.505 14.1357C26.175 16.7119 23.5196 18 20.5384 18C19.7651 18 19.1686 17.8368 18.7494 17.5108C18.3294 17.1845 18.12 16.609 18.12 15.7826C18.12 14.8042 18.3627 13.8696 18.8485 12.9783C20.3504 13.3262 21.7191 13.2666 22.9565 12.7989C24.193 12.3316 24.9216 10.9783 25.1429 8.73902C23.8619 8.41304 22.9396 7.88619 22.3768 7.15734C21.8137 6.42924 21.5319 5.5651 21.5319 4.56491C21.5319 3.1954 22.0173 2.09233 22.9894 1.25532C23.961 0.418692 25.2528 0 26.8653 0C28.5219 0 29.7914 0.434897 30.675 1.30431C31.5578 2.17411 32 3.47842 32 5.21726ZM13.8467 5.21726C13.8467 8.58715 12.6871 11.5598 10.3686 14.1357C8.0493 16.7119 5.38815 18 2.38512 18C1.63398 18 1.04861 17.8368 0.629396 17.5108C0.209416 17.1845 0 16.609 0 15.7826C0 14.8042 0.231621 13.8696 0.695245 12.9783C2.21935 13.3262 3.59414 13.2666 4.81962 12.7989C6.04549 12.3316 6.7683 10.9783 6.98958 8.73902C5.73079 8.41304 4.81962 7.88619 4.25646 7.15734C3.6933 6.42924 3.41191 5.5651 3.41191 4.56491C3.41191 3.1954 3.89735 2.09233 4.86939 1.25532C5.84105 0.418692 7.13277 0 8.74531 0C10.4015 0 11.6656 0.434897 12.5381 1.30431C13.4103 2.17411 13.8467 3.47842 13.8467 5.21726Z" fill="#000928" fill-opacity="0.1"/></svg>
