<svg width="26" height="20" viewBox="0 0 26 20" fill="none" xmlns="http://www.w3.org/2000/svg">
<path fill-rule="evenodd" clip-rule="evenodd" d="M12.7518 7.39994L13.0013 7.64945C14.3085 8.95667 14.3908 11.025 13.2482 12.428L12.9987 12.1785C11.6915 10.8713 11.6092 8.80299 12.7518 7.39994ZM12.9103 4.72999L9.91246 1.73217C7.73636 -0.443928 4.2082 -0.443927 2.0321 1.73217C-0.144001 3.90827 -0.144001 7.43643 2.0321 9.61253L6.53516 14.1156C8.30971 15.8901 10.9834 16.2176 13.0897 15.098L16.0876 18.0958C18.2637 20.2719 21.7918 20.2719 23.9679 18.0958C26.144 15.9197 26.144 12.3915 23.9679 10.2154L19.4649 5.71236C17.6903 3.93781 15.0166 3.61035 12.9103 4.72999ZM14.4312 6.25097C16.5046 8.34064 16.5833 11.6637 14.6672 13.847L17.5018 16.6816C18.8968 18.0766 21.1586 18.0766 22.5537 16.6816C23.9487 15.2865 23.9487 13.0247 22.5537 11.6296L18.0506 7.12657C17.0714 6.14731 15.665 5.85545 14.4312 6.25097ZM11.5688 13.577C9.4954 11.4873 9.41672 8.16422 11.3328 5.98095L8.49824 3.14639C7.10319 1.75133 4.84137 1.75133 3.44631 3.14639C2.05126 4.54144 2.05126 6.80327 3.44631 8.19832L7.94937 12.7014C8.92863 13.6806 10.335 13.9725 11.5688 13.577Z" fill="#000928" fill-opacity="0.87"/>
</svg>
