<svg width="26" height="10" viewBox="0 0 26 10" fill="none" xmlns="http://www.w3.org/2000/svg">
<path d="M9.1117 0.5H7.79433C7.58185 0.5 7.41187 0.669983 7.41187 0.839966V8.91416C7.41187 9.12664 7.58185 9.25413 7.79433 9.25413H9.1117C9.32418 9.25413 9.49416 9.08415 9.49416 8.91416V0.839966C9.45166 0.669983 9.32418 0.5 9.1117 0.5Z" fill="#000928" fill-opacity="0.87"/>
<path d="M18.0783 0.5H16.7609C16.5484 0.5 16.3785 0.669983 16.3785 0.839966V5.64199L12.6813 0.669983C12.6813 0.669983 12.6813 0.627487 12.6388 0.627487C12.6388 0.627487 12.6388 0.627487 12.5963 0.584992C12.5963 0.584992 12.5963 0.584992 12.5538 0.584992H11.2365C11.024 0.584992 10.854 0.754975 10.854 0.924958V8.99916C10.854 9.21163 11.024 9.33912 11.2365 9.33912H12.5538C12.7663 9.33912 12.9363 9.16914 12.9363 8.99916V4.15464L16.6334 9.16914C16.6759 9.21163 16.6759 9.25413 16.7184 9.25413C16.7184 9.25413 16.7184 9.25413 16.7609 9.25413C16.7609 9.25413 16.7609 9.25413 16.8034 9.25413C16.8459 9.25413 16.8459 9.25413 16.8884 9.25413H18.2058C18.4183 9.25413 18.5882 9.08415 18.5882 8.91416V0.839966C18.4183 0.669983 18.2483 0.5 18.0783 0.5Z" fill="#000928" fill-opacity="0.87"/>
<path d="M5.96697 7.29932H2.43982V0.882462C2.43982 0.669983 2.26984 0.5 2.05736 0.5H0.782486C0.570008 0.5 0.400024 0.669983 0.400024 0.882462V8.95666C0.400024 9.04165 0.44252 9.12664 0.485016 9.21164C0.570008 9.25413 0.654999 9.29663 0.739991 9.29663H5.92448C6.13696 9.29663 6.26444 9.12664 6.26444 8.91416V7.5968C6.30694 7.46931 6.17945 7.29932 5.96697 7.29932Z" fill="#000928" fill-opacity="0.87"/>
<path d="M25.26 2.5398C25.4725 2.5398 25.6 2.36981 25.6 2.15734V0.882462C25.6 0.669983 25.4725 0.5 25.26 0.5H20.0756C19.9906 0.5 19.9056 0.542496 19.8206 0.584992C19.7781 0.669983 19.7356 0.754975 19.7356 0.839966V8.91416C19.7356 8.99916 19.7781 9.08415 19.8206 9.16914C19.9056 9.21163 19.9906 9.25413 20.0756 9.25413H25.26C25.4725 9.25413 25.6 9.08415 25.6 8.87167V7.5543C25.6 7.34182 25.43 7.17184 25.26 7.17184H21.7329V5.81197H25.26C25.4725 5.81197 25.6 5.64199 25.6 5.42951V4.23963C25.6 4.06965 25.4725 3.89966 25.26 3.89966H21.7329V2.5398H25.26Z" fill="#000928" fill-opacity="0.87"/>
</svg>
