<svg width="7" height="13" viewBox="0 0 7 13" fill="none" xmlns="http://www.w3.org/2000/svg">
<path d="M6.91211 6.41699C6.91211 6.20117 6.82959 6.01709 6.66455 5.85205L1.71338 1.00879C1.57373 0.869141 1.40234 0.799316 1.19922 0.799316C0.786621 0.799316 0.456543 1.1167 0.456543 1.5293C0.456543 1.73242 0.539062 1.9165 0.678711 2.0625L5.14746 6.41699L0.678711 10.7715C0.54541 10.9111 0.456543 11.0952 0.456543 11.2983C0.456543 11.7173 0.786621 12.0347 1.19922 12.0347C1.40234 12.0347 1.57373 11.9648 1.71338 11.8252L6.66455 6.98193C6.83594 6.81689 6.91211 6.63281 6.91211 6.41699Z" fill="#000928"/>
</svg>
