<svg width="23" height="18" viewBox="0 0 23 18" fill="none" xmlns="http://www.w3.org/2000/svg">
<path fill-rule="evenodd" clip-rule="evenodd" d="M20.67 5.02451C20.67 4.8456 20.6661 4.66795 20.6589 4.49095C20.928 4.28691 22.5922 3.00206 23 2.17616C23 2.17616 21.6486 2.71719 20.3174 2.84524L20.3203 2.84367L20.3246 2.84088C20.4465 2.76243 22.1504 1.64518 22.381 0.313838C22.381 0.313838 21.4251 0.805329 20.0867 1.23531C19.8652 1.30621 19.6333 1.37593 19.3941 1.44055C18.5314 0.553598 17.3052 0 15.944 0C13.3331 0 11.2175 2.03747 11.2175 4.55068C11.2175 4.90533 11.2599 5.25052 11.34 5.58195C10.9751 5.56746 5.41908 5.26745 1.63929 0.857977C1.63929 0.857977 -0.619712 3.82882 2.98548 6.88373C2.98548 6.88373 1.88948 6.84166 0.944055 6.29746C0.944055 6.29746 0.59678 9.89664 4.67956 10.8168C4.67956 10.8168 3.87619 11.1099 2.59454 10.9009C2.59454 10.9009 3.31127 13.809 6.93863 14.0808C6.93863 14.0808 4.07097 16.5763 0 15.9914C2.08241 17.2637 4.55254 18 7.20057 18C14.6397 18 20.67 12.1901 20.67 5.02451Z" fill="#000928" fill-opacity="0.87"/>
</svg>
