<svg fill="none" height="11" viewBox="0 0 11 11" width="11" xmlns="http://www.w3.org/2000/svg"><path clip-rule="evenodd" d="m7.09855 7.87677c-.74505.57922-1.68147.92418-2.69826.92418-2.43022 0-4.40029-1.97019-4.40029-4.40059 0-2.43041 1.97007-4.40036 4.40029-4.40036 2.43023 0 4.40053 1.97009 4.40053 4.40036 0 1.01692-.34496 1.95333-.92416 2.6983l2.96224 2.96234c.2148.2148.2148.5631 0 .7779s-.5631.2148-.7779 0zm.60196-3.47625c0 1.82276-1.47761 3.30039-3.30034 3.30039-1.82272 0-3.30033-1.47763-3.30033-3.30039 0-1.82275 1.47761-3.30038 3.30033-3.30038 1.82273 0 3.30034 1.47763 3.30034 3.30038z" fill="#000" fill-rule="evenodd"/></svg>