<svg width="16" height="16" viewBox="0 0 16 16" fill="none" xmlns="http://www.w3.org/2000/svg">
<g clip-path="url(#clip0_7868_19421)">
<path d="M8 16C12.4183 16 16 12.4183 16 8C16 3.58172 12.4183 0 8 0C3.58172 0 0 3.58172 0 8C0 12.4183 3.58172 16 8 16Z" fill="white" fill-opacity="0.746193"/>
<path d="M0.322266 5.77245H4.73017L4.80198 0.677536C3.72758 1.14666 2.76942 1.84619 1.9953 2.72662C1.22119 3.60704 0.650035 4.64685 0.322266 5.77245V5.77245Z" fill="#008000"/>
<path d="M4.5846 15.2234L4.61237 10.406L0.369324 10.3741C0.698594 11.4298 1.24319 12.4059 1.96872 13.2405C2.69425 14.0752 3.58496 14.7504 4.5846 15.2234V15.2234Z" fill="#008000"/>
<path d="M11.2485 0.695969V5.8117H15.6925C15.3712 4.68574 14.8068 3.64402 14.0389 2.76007C13.271 1.87613 12.3185 1.17151 11.2485 0.695969V0.695969Z" fill="#008000"/>
<path d="M15.6626 10.2866L11.2878 10.2489V15.2824C12.3322 14.8115 13.2633 14.1218 14.018 13.2599C14.7728 12.398 15.3336 11.384 15.6626 10.2866V10.2866Z" fill="#008000"/>
<path d="M7.10178 14.0214C7.01535 13.935 6.96017 13.783 6.86771 13.3766C6.82146 13.1734 6.7629 12.967 6.73758 12.9181C6.66805 12.7836 6.48308 12.5945 6.15304 12.3206C5.67264 11.9219 5.59723 11.7902 5.42641 11.0522C5.28812 10.4547 5.22436 10.2796 5.04481 10.0043C4.86742 9.73223 4.86409 9.65242 5.01596 9.31301C5.16381 8.98261 5.17505 8.90236 5.12052 8.56641C5.02357 7.96913 5.12869 7.65035 5.78105 6.56319C5.95754 6.26908 6.20171 5.81383 6.32366 5.55152C6.67792 4.78949 6.76591 4.64918 7.13033 4.26523C7.41111 3.96941 7.47903 3.86737 7.7461 3.34026C7.86693 3.1018 8.00454 2.86007 8.0519 2.80308C8.18511 2.64281 8.40626 2.5058 8.88414 2.28746C9.12556 2.17717 9.40522 2.03306 9.50561 1.96723C9.66094 1.86536 9.70478 1.84966 9.79992 1.86175C10.0396 1.89222 10.4808 2.17088 10.8371 2.5169C10.9892 2.66461 11.0033 2.68893 11.0033 2.80401C11.0033 2.8982 10.971 2.98897 10.8745 3.16595C10.708 3.47158 10.6913 3.55102 10.6563 4.20742C10.6071 5.13075 10.5526 5.35088 10.2667 5.78248C10.1666 5.93366 10.0703 6.10939 10.0527 6.17298C10.0352 6.23657 10.0208 6.45969 10.0207 6.66881C10.0205 7.11692 9.93362 7.68381 9.76116 8.36212C9.42616 9.6797 8.99277 10.6133 8.37558 11.347C8.03759 11.7488 7.86637 12.0206 7.77712 12.2971C7.71202 12.4988 7.69803 12.608 7.67849 13.0669C7.66554 13.3711 7.63914 13.6515 7.61726 13.7172C7.56315 13.8799 7.35922 14.0786 7.2464 14.0786C7.1978 14.0786 7.13352 14.0532 7.10178 14.0214V14.0214Z" fill="#008000"/>
</g>
<defs>
<clipPath id="clip0_7868_19421">
<rect width="16" height="16" fill="white"/>
</clipPath>
</defs>
</svg>
