<svg width="16" height="16" viewBox="0 0 16 16" fill="none" xmlns="http://www.w3.org/2000/svg">
<g clip-path="url(#clip0_7868_19416)">
<path d="M8 16C12.4183 16 16 12.4183 16 8C16 3.58172 12.4183 0 8 0C3.58172 0 0 3.58172 0 8C0 12.4183 3.58172 16 8 16Z" fill="#0000AA"/>
<path d="M8 16.0001L4 1.07189L14.9282 12.0001L0 8.00009L14.9282 4.00009L4 14.9283L8 9.15527e-05L12 14.9283L1.0718 4.00009L16 8.00009L1.0718 12.0001L12 1.07189L8 16.0001Z" fill="white"/>
<path d="M8.00001 12.5333C10.5037 12.5333 12.5333 10.5037 12.5333 7.99999C12.5333 5.4963 10.5037 3.46666 8.00001 3.46666C5.49632 3.46666 3.46667 5.4963 3.46667 7.99999C3.46667 10.5037 5.49632 12.5333 8.00001 12.5333Z" fill="#0000AA"/>
<path d="M8 12C10.2091 12 12 10.2091 12 8C12 5.79086 10.2091 4 8 4C5.79086 4 4 5.79086 4 8C4 10.2091 5.79086 12 8 12Z" fill="white"/>
</g>
<defs>
<clipPath id="clip0_7868_19416">
<rect width="16" height="16" fill="white"/>
</clipPath>
</defs>
</svg>
