<svg width="16" height="16" viewBox="0 0 16 16" fill="none" xmlns="http://www.w3.org/2000/svg">
<circle cx="8" cy="8" r="8" fill="#252525"/>
<path d="M4.94 5.46H12V4.78H5.38C5.53 4.5 5.66 4.21 5.76 3.9L5.06 3.81C4.79 4.62 4.27 5.31 3.5 5.87L3.94 6.45C4.32 6.15 4.66 5.82 4.94 5.46ZM4.97 5.97V7.22H3.8V7.88H4.97V9.55H3.66V10.22H12.34V9.55H11.22V7.88H12.21V7.22H11.22V5.97H10.52V7.22H9.37V5.97H8.68V7.22H7.51V5.97H6.81V7.22H5.66V5.97H4.97ZM5.66 9.55V7.88H6.81V9.55H5.66ZM7.51 9.55V7.88H8.68V9.55H7.51ZM9.37 9.55V7.88H10.52V9.55H9.37ZM4.92 10.65C4.58 11.41 4.17 12.06 3.71 12.61L4.29 13.04C4.77 12.45 5.18 11.75 5.52 10.94L4.92 10.65ZM7.1 10.84L6.44 10.99C6.62 11.57 6.78 12.23 6.91 12.98L7.63 12.82C7.47 12.11 7.3 11.45 7.1 10.84ZM9.27 10.78L8.61 10.93C8.85 11.51 9.06 12.17 9.23 12.92L9.96 12.76C9.76 12.05 9.53 11.39 9.27 10.78ZM11.08 10.59L10.53 10.93C11.09 11.69 11.53 12.37 11.85 12.99L12.45 12.57C12.13 12.01 11.68 11.35 11.08 10.59Z" fill="white"/>
</svg>
