<svg width="16" height="16" viewBox="0 0 16 16" fill="none" xmlns="http://www.w3.org/2000/svg">
<g clip-path="url(#clip0_7889_19383)">
<path d="M16 16H0V0H16V16Z" fill="#28C8C8"/>
<path d="M11.0844 7.89692C10.6743 7.72862 10.3873 7.48016 10.2454 7.22674C10.2399 7.21663 10.2388 7.20488 10.242 7.1939C10.3318 6.8952 10.3654 6.44346 10.3676 6.11318C10.3677 6.09258 10.3532 6.0749 10.3329 6.07111L9.67355 5.94945C9.64848 5.94479 9.62506 5.96335 9.62361 5.9888C9.57376 6.80882 9.28478 7.72425 8.73771 7.89935C8.71789 7.90576 8.70555 7.92549 8.70876 7.94609L8.84188 8.81313C8.84547 8.83693 8.86831 8.85287 8.89202 8.8483C9.34716 8.76211 9.65752 8.52512 9.90472 8.12944C9.92124 8.10301 9.95913 8.10272 9.97633 8.12867C10.1678 8.41746 10.4738 8.67098 10.9267 8.8383C10.9522 8.84773 10.9798 8.8315 10.9838 8.80478L11.1106 7.9424C11.1134 7.92306 11.1025 7.90431 11.0844 7.89692" fill="#F4F4EE"/>
<path d="M7.16635 7.89585C6.85629 7.74329 6.56769 7.47958 6.42631 7.22665C6.42068 7.21664 6.41961 7.20488 6.42301 7.1938C6.5126 6.8952 6.54622 6.44346 6.54855 6.11309C6.54875 6.09249 6.53408 6.0749 6.51377 6.07111L5.85447 5.94945C5.82931 5.94479 5.80598 5.96325 5.80443 5.98881C5.75478 6.80872 5.4657 7.72415 4.91854 7.89935C4.89871 7.90576 4.88647 7.92549 4.88958 7.94609L5.0227 8.81303C5.02649 8.83694 5.04923 8.85287 5.07294 8.84831C5.52973 8.76173 5.84077 8.52337 6.08836 8.12498C6.1041 8.09971 6.14044 8.09796 6.15832 8.12196C6.37967 8.4194 6.61375 8.67797 7.00515 8.83655C7.03061 8.84685 7.05908 8.83052 7.06316 8.80332L7.18997 7.94026C7.19269 7.92189 7.18307 7.90401 7.16635 7.89585" fill="#F4F4EE"/>
<path d="M10.9347 5.55206V4.87537C10.9347 4.85186 10.9156 4.83291 10.8921 4.83301L5.01065 4.85166C4.98733 4.85176 4.96838 4.87071 4.96838 4.89413V5.55206C4.96838 5.57548 4.98743 5.59452 5.01075 5.59452H7.3673C7.39072 5.59452 7.40976 5.61347 7.40976 5.63689V8.81384C7.40976 8.83736 7.42871 8.8564 7.45213 8.8564H8.45317C8.47658 8.8564 8.49553 8.83735 8.49553 8.81384V5.63689C8.49553 5.61347 8.51458 5.59452 8.538 5.59452H10.8922C10.9156 5.59452 10.9347 5.57548 10.9347 5.55206Z" fill="#F4F4EE"/>
<path d="M6.04864 2.71475C6.04864 2.69133 6.06759 2.67229 6.0911 2.67229H6.74806C6.77148 2.67229 6.79053 2.69133 6.79053 2.71475V3.66934C6.79053 3.69276 6.77148 3.71181 6.74806 3.71181H6.0911C6.06759 3.71181 6.04864 3.69276 6.04864 3.66934V2.71475ZM7.58926 2.71475C7.58926 2.69133 7.6084 2.67229 7.63182 2.67229H8.27421C8.29772 2.67229 8.31677 2.69133 8.31677 2.71475V3.66934C8.31677 3.69276 8.29772 3.71181 8.27421 3.71181H7.63182C7.6084 3.71181 7.58926 3.69276 7.58926 3.66934V2.71475ZM9.1155 2.71475C9.1155 2.69133 9.13454 2.67229 9.15796 2.67229H9.81502C9.83844 2.67229 9.85739 2.69133 9.85739 2.71475V3.66934C9.85739 3.69276 9.83844 3.71181 9.81502 3.71181H9.15796C9.13454 3.71181 9.1155 3.69276 9.1155 3.66934V2.71475ZM5.16187 4.3504H10.7419C10.7653 4.3504 10.7843 4.33136 10.7843 4.30794V2.07616C10.7843 2.05274 10.7653 2.03369 10.7419 2.03369H5.16187C5.13845 2.03369 5.11951 2.05274 5.11951 2.07616V4.30794C5.11951 4.33136 5.13845 4.3504 5.16187 4.3504Z" fill="#F4F4EE"/>
<path d="M11.7256 11.277H11.9831C11.9847 11.277 11.9861 11.2756 11.9861 11.2741V11.0236C11.9861 11.0218 11.9873 11.0205 11.989 11.0205H13.4398C13.4414 11.0205 13.4427 11.0218 13.4427 11.0236V11.2741C13.4427 11.2756 13.4441 11.277 13.4457 11.277H13.7006C13.7023 11.277 13.7035 11.2756 13.7035 11.2741L13.7046 10.8572C13.7046 10.8555 13.7033 10.8542 13.7017 10.8542H13.2517C13.2498 10.8542 13.249 10.8516 13.2506 10.8504C13.3356 10.7943 13.3927 10.7524 13.4074 10.7414C13.4091 10.7401 13.4088 10.7375 13.4069 10.7365L13.1325 10.5965C13.131 10.5957 13.1292 10.5965 13.1285 10.5981C13.0774 10.7216 13.0247 10.8061 12.9948 10.8494C12.9926 10.8525 12.9891 10.8542 12.9854 10.8542H12.8428C12.8411 10.8542 12.8399 10.8529 12.8399 10.8513V10.5998C12.8399 10.5981 12.8385 10.5969 12.837 10.5969H12.5768C12.5751 10.5969 12.5737 10.5982 12.5737 10.5998V10.8513C12.5737 10.8529 12.5725 10.8542 12.5708 10.8542H12.4039C12.4017 10.8542 12.4009 10.8515 12.4027 10.8502L12.4632 10.8104C12.4647 10.8094 12.465 10.8072 12.4637 10.8058C12.3639 10.709 12.1704 10.6174 12.152 10.6087C12.151 10.6082 12.15 10.6084 12.1491 10.6089L12.0104 10.6991C12.0086 10.7002 12.0085 10.7026 12.0102 10.704C12.085 10.7648 12.1385 10.8153 12.176 10.8542H11.7256C11.7239 10.8542 11.7227 10.8555 11.7227 10.8572V11.2741C11.7227 11.2756 11.7239 11.277 11.7256 11.277" fill="#30363A"/>
<path d="M13.0437 11.2961C13.0437 11.2985 13.0417 11.3005 13.0394 11.3005H12.3665C12.3642 11.3005 12.3622 11.2984 12.3622 11.2961V11.2199C12.3622 11.2174 12.3642 11.2156 12.3665 11.2156H13.0394C13.0418 11.2156 13.0437 11.2174 13.0437 11.2199V11.2961ZM12.1079 11.0859C12.1055 11.0859 12.1036 11.0878 12.1036 11.0902V11.4258C12.1036 11.4282 12.1055 11.4301 12.1079 11.4301H13.2981C13.3005 11.4301 13.3024 11.4282 13.3024 11.4258V11.0902C13.3024 11.0878 13.3005 11.0859 13.2981 11.0859H12.1079Z" fill="#30363A"/>
<path d="M12.5777 11.853C12.5777 11.8575 12.5741 11.8611 12.5696 11.8611H12.4377C12.4344 11.8611 12.4331 11.857 12.4355 11.855L12.5332 11.7808C12.5374 11.7775 12.5372 11.7709 12.5329 11.7678C12.4632 11.7173 12.4123 11.6848 12.377 11.664C12.374 11.6623 12.3753 11.6578 12.3787 11.6578H12.5696C12.5741 11.6578 12.5777 11.6614 12.5777 11.6658L12.5777 11.853ZM12.3208 11.8611H12.1964C12.1919 11.8611 12.1883 11.8575 12.1883 11.853V11.6658C12.1883 11.6614 12.1919 11.6578 12.1964 11.6578H12.2723C12.2754 11.6578 12.2767 11.6616 12.2746 11.6636L12.2137 11.7196C12.2102 11.7228 12.2103 11.7284 12.2139 11.7315C12.2547 11.7674 12.2952 11.8176 12.3236 11.8557C12.3251 11.8581 12.3236 11.8611 12.3208 11.8611M12.8394 11.6658C12.8394 11.6614 12.843 11.6578 12.8474 11.6578H12.9713C12.9741 11.6578 12.976 11.661 12.9745 11.6635C12.9225 11.7528 12.8822 11.8076 12.8674 11.8267C12.8644 11.8307 12.8657 11.8365 12.8703 11.8388L12.8998 11.8541C12.9034 11.8558 12.9021 11.8611 12.8983 11.8611H12.8474C12.843 11.8611 12.8394 11.8575 12.8394 11.853L12.8394 11.6658ZM13.0803 11.8544C13.1408 11.8048 13.1831 11.7596 13.1979 11.7433C13.201 11.7398 13.2005 11.7343 13.1968 11.7315L13.1088 11.6646C13.106 11.6623 13.1075 11.6578 13.111 11.6578H13.2258C13.2303 11.6578 13.2339 11.6614 13.2339 11.6658V11.853C13.2339 11.8575 13.2303 11.8611 13.2258 11.8611H13.0825C13.079 11.8611 13.0775 11.8567 13.0803 11.8544M13.7396 12.3067H12.8475C12.843 12.3067 12.8394 12.3031 12.8394 12.2986V12.246C12.8394 12.2416 12.843 12.238 12.8475 12.238H13.5758C13.5803 12.238 13.5839 12.2344 13.5839 12.2299V12.1005C13.5839 12.096 13.5803 12.0924 13.5758 12.0924H12.8475C12.843 12.0924 12.8394 12.0888 12.8394 12.0844V12.0318C12.8394 12.0273 12.843 12.0237 12.8475 12.0237H13.4828C13.4873 12.0237 13.4909 12.0201 13.4909 12.0157V11.5032C13.4909 11.4987 13.4873 11.4951 13.4828 11.4951H11.9395C11.935 11.4951 11.9314 11.4987 11.9314 11.5032V12.0157C11.9314 12.0201 11.935 12.0237 11.9395 12.0237H12.5696C12.5741 12.0237 12.5777 12.0273 12.5777 12.0318V12.0844C12.5777 12.0888 12.5741 12.0924 12.5696 12.0924H11.8465C11.842 12.0924 11.8384 12.096 11.8384 12.1005V12.2299C11.8384 12.2344 11.842 12.238 11.8465 12.238H12.5696C12.5741 12.238 12.5777 12.2416 12.5777 12.246V12.2986C12.5777 12.3031 12.5741 12.3067 12.5696 12.3067H11.6827C11.6783 12.3067 11.6746 12.3103 11.6746 12.3147V12.4538C11.6746 12.4583 11.6783 12.4619 11.6828 12.4619H11.9645C11.9684 12.4619 11.9705 12.4662 11.9681 12.4691C11.9317 12.5129 11.8446 12.6087 11.6879 12.7315C11.6826 12.7357 11.6844 12.7442 11.6909 12.7458L11.9805 12.8149C11.9829 12.8154 11.9855 12.8149 11.9874 12.8133C12.0087 12.7961 12.1336 12.6893 12.1911 12.5283C12.1925 12.5242 12.1904 12.5196 12.1863 12.5181L12.061 12.4705C12.0563 12.4688 12.0575 12.4619 12.0625 12.4619H12.4791C12.4841 12.4619 12.4854 12.4689 12.4806 12.4705L12.3644 12.5127C12.3614 12.5138 12.3594 12.5165 12.3592 12.5197C12.3576 12.5411 12.3484 12.629 12.2897 12.7868C12.2878 12.792 12.2916 12.7978 12.2973 12.7978H12.6027C12.6069 12.7978 12.6105 12.7945 12.6107 12.7902C12.6125 12.756 12.6164 12.6111 12.5656 12.4678C12.5646 12.4649 12.5668 12.4619 12.5698 12.4619H12.8793C12.8843 12.4619 12.8856 12.4686 12.8811 12.4704L12.7731 12.5173C12.7688 12.5191 12.7669 12.5241 12.769 12.5282C12.7817 12.5537 12.8229 12.6434 12.8545 12.791C12.8553 12.7947 12.8586 12.7975 12.8624 12.7975H13.1693C13.1749 12.7975 13.1788 12.7919 13.1769 12.7867C13.1641 12.7511 13.1135 12.6303 12.9685 12.4694C12.9659 12.4664 12.9679 12.4619 12.9718 12.4619H13.3579C13.3617 12.4619 13.3632 12.4668 13.36 12.469L13.2498 12.5378C13.2458 12.5403 13.2448 12.5456 13.2477 12.5494C13.2681 12.5767 13.3436 12.6811 13.3959 12.8085C13.3974 12.812 13.4009 12.814 13.4046 12.8134L13.7047 12.7686C13.7104 12.7677 13.7134 12.7611 13.7102 12.7562C13.6845 12.7172 13.5883 12.5772 13.4611 12.4686C13.4583 12.4662 13.4599 12.4619 13.4635 12.4619H13.7395C13.744 12.4619 13.7476 12.4583 13.7476 12.4538V12.3147C13.7476 12.3103 13.744 12.3067 13.7395 12.3067" fill="#30363A"/>
<path d="M11.2168 11.6217V11.4568C11.2168 11.4535 11.2142 11.4507 11.2108 11.4507H9.38432C9.38092 11.4507 9.3783 11.4535 9.3783 11.4568V11.6217C9.3783 11.625 9.38091 11.6277 9.38432 11.6277H10.1407C10.144 11.6277 10.1467 11.6305 10.1467 11.6337V12.7974C10.1467 12.8008 10.1494 12.8034 10.1527 12.8034H10.4424C10.4457 12.8034 10.4484 12.8008 10.4484 12.7974V11.6338C10.4484 11.6304 10.4511 11.6277 10.4544 11.6277H11.2108C11.2142 11.6277 11.2168 11.625 11.2168 11.6217" fill="#30363A"/>
<path d="M9.67797 10.8598C9.67797 10.8548 9.68205 10.8507 9.6872 10.8507H9.90281C9.90797 10.8507 9.91204 10.8548 9.91204 10.8598V11.1544C9.91204 11.1594 9.90796 11.1635 9.90281 11.1635H9.6872C9.68205 11.1635 9.67797 11.1594 9.67797 11.1544V10.8598ZM10.178 10.8598C10.178 10.8548 10.182 10.8507 10.187 10.8507H10.4202C10.4252 10.8507 10.4293 10.8548 10.4293 10.8598V11.1544C10.4293 11.1594 10.4252 11.1635 10.4202 11.1635H10.187C10.182 11.1635 10.178 11.1594 10.178 11.1544V10.8598ZM10.6952 10.8598C10.6952 10.8548 10.6993 10.8507 10.7044 10.8507H10.9079C10.9131 10.8507 10.9172 10.8548 10.9172 10.8598V11.1544C10.9172 11.1594 10.9131 11.1635 10.9079 11.1635H10.7044C10.6993 11.1635 10.6952 11.1594 10.6952 11.1544V10.8598ZM9.38743 11.333H11.2077C11.2128 11.333 11.2168 11.3289 11.2168 11.3238V10.6904C11.2168 10.6853 11.2128 10.6812 11.2077 10.6812H9.38743C9.38238 10.6812 9.3783 10.6853 9.3783 10.6904V11.3238C9.3783 11.3289 9.38238 11.333 9.38743 11.333Z" fill="#30363A"/>
<path d="M11.3404 12.4731C11.2966 12.4464 11.0372 12.2826 10.9429 12.1036C10.9409 12.0996 10.9406 12.0948 10.9419 12.0905C11.0046 11.904 11.0091 11.7412 11.0094 11.709C11.0094 11.7058 11.0067 11.7031 11.0035 11.7031H10.7413C10.7383 11.7031 10.7357 11.7057 10.7356 11.7088C10.7102 12.232 10.511 12.4492 10.4816 12.4785C10.4795 12.4806 10.4794 12.4838 10.4811 12.4861L10.5611 12.5891C10.563 12.5915 10.5664 12.5922 10.569 12.5906C10.6861 12.5166 10.7719 12.421 10.8351 12.3201C10.8365 12.3176 10.84 12.3179 10.841 12.3206C10.8778 12.4163 10.9555 12.5757 11.1007 12.712C11.1031 12.7141 11.1066 12.7141 11.1089 12.7119L11.3415 12.4822C11.3441 12.4795 11.3436 12.4751 11.3404 12.4731" fill="#30363A"/>
<path d="M9.80261 12.0441C9.80038 12.0389 9.79999 12.0331 9.80145 12.0278C9.84751 11.8662 9.8512 11.7369 9.8515 11.7089C9.8515 11.7057 9.84896 11.7031 9.84576 11.7031H9.5835C9.58039 11.7031 9.57787 11.7057 9.57787 11.7088C9.56572 12.2757 9.26382 12.5325 9.22368 12.5642C9.22126 12.5661 9.22087 12.5695 9.22272 12.572L9.30269 12.675C9.30454 12.6772 9.30765 12.6778 9.31007 12.6765C9.4979 12.5708 9.62053 12.4242 9.7006 12.2769C9.70195 12.2744 9.70546 12.275 9.70594 12.2777C9.72382 12.3875 9.77289 12.5441 9.90436 12.6739C9.9069 12.6765 9.91116 12.676 9.9132 12.673L10.0884 12.397C10.0901 12.3944 10.0894 12.391 10.0869 12.3893C10.0582 12.3701 9.90047 12.2574 9.80262 12.0441" fill="#30363A"/>
<path d="M7.37874 11.3747H7.78451C7.78996 11.3747 7.79452 11.3788 7.79501 11.3842C7.80327 11.4706 7.81716 11.5629 7.83747 11.6574C7.83882 11.6641 7.83397 11.6704 7.82707 11.6704H7.37874C7.37281 11.6704 7.36814 11.6655 7.36814 11.6597V11.3853C7.36814 11.3794 7.37281 11.3747 7.37874 11.3747M7.37874 10.861H8.43147C8.43739 10.861 8.44206 10.8658 8.44206 10.8716V11.1869C8.44206 11.1929 8.43739 11.1977 8.43147 11.1977H7.37874C7.37281 11.1977 7.36814 11.1929 7.36814 11.1869V10.8716C7.36814 10.8658 7.37281 10.861 7.37874 10.861ZM7.81891 12.575L7.77995 12.4784C7.77791 12.4736 7.77276 12.4707 7.76761 12.472C7.73049 12.4811 7.58094 12.5149 7.37922 12.5224C7.3731 12.5226 7.36814 12.5178 7.36814 12.5118V11.858C7.36814 11.8521 7.37281 11.8473 7.37873 11.8473H7.87896C7.88362 11.8473 7.88771 11.8504 7.88907 11.8547C8.0321 12.3161 8.33828 12.7654 8.89759 12.7699C8.90274 12.7699 8.90711 12.7663 8.90818 12.7614L8.95715 12.5216C8.95869 12.5142 8.95249 12.5076 8.9451 12.5087C8.87077 12.5206 8.67935 12.5151 8.55089 12.429C8.41553 12.338 8.26919 12.1722 8.18126 11.8609C8.1793 11.8542 8.18446 11.8473 8.19156 11.8473H8.85095C8.85687 11.8473 8.86164 11.8425 8.86164 11.8366V11.681C8.86164 11.6751 8.85687 11.6704 8.85095 11.6704H8.14734C8.1421 11.6704 8.13772 11.6667 8.13685 11.6615C8.12227 11.5764 8.11178 11.4836 8.10595 11.3823C8.10565 11.3782 8.10896 11.3747 8.11304 11.3747H8.74863C8.75446 11.3747 8.75912 11.3698 8.75912 11.364V10.6951C8.75912 10.6891 8.75436 10.6844 8.74853 10.6844L7.09821 10.6841C7.09237 10.6841 7.08761 10.6887 7.08761 10.6947V12.3126C7.08673 12.3702 7.0811 12.4821 7.0502 12.5045C7.0469 12.5069 7.04486 12.5108 7.04554 12.5148L7.08091 12.7584C7.0816 12.7636 7.08606 12.7675 7.0914 12.7676C7.15165 12.7679 7.49825 12.762 7.81415 12.5883C7.81891 12.5858 7.82105 12.5799 7.81891 12.575" fill="#30363A"/>
<path d="M5.70281 11.4747C5.70281 11.4718 5.70515 11.4694 5.70805 11.4694H5.799C5.80202 11.4694 5.80435 11.4718 5.80435 11.4747V11.6511C5.80435 11.654 5.80201 11.6563 5.799 11.6563H5.70805C5.70514 11.6563 5.70281 11.654 5.70281 11.6511V11.4747ZM5.51721 11.7672C5.51721 11.7705 5.51983 11.7731 5.52314 11.7731L5.98246 11.7735C5.98567 11.7735 5.98829 11.7709 5.98829 11.7677V11.6281L6.10616 11.7231C6.10927 11.7256 6.11374 11.7244 6.11539 11.7208C6.17184 11.5933 6.17816 11.4681 6.17874 11.442C6.17884 11.4391 6.1769 11.4366 6.17408 11.4361L6.06962 11.4142C6.0668 11.4137 6.06418 11.4156 6.06369 11.4183C6.04708 11.5105 6.00539 11.5835 5.98829 11.6105V11.3586C5.98829 11.3553 5.98567 11.3525 5.98246 11.3525H5.5247C5.52149 11.3525 5.51877 11.3553 5.51867 11.3586L5.51721 11.7672Z" fill="#30363A"/>
<path d="M5.51886 11.3013C5.51886 11.3042 5.5212 11.3067 5.5243 11.3067H5.98294C5.98605 11.3067 5.98838 11.3042 5.98838 11.3013V11.1953C5.98838 11.1923 5.98604 11.1899 5.98294 11.1899H5.5243C5.52119 11.1899 5.51886 11.1923 5.51886 11.1953V11.3013Z" fill="#30363A"/>
<path d="M5.52498 11.1271H5.98207C5.98556 11.1271 5.98838 11.1243 5.98838 11.1208V11.0165C5.98838 11.013 5.98556 11.0103 5.98207 11.0103H5.52498C5.52158 11.0103 5.51886 11.013 5.51886 11.0165V11.1208C5.51886 11.1243 5.52159 11.1271 5.52498 11.1271Z" fill="#30363A"/>
<path d="M5.46929 10.9665H6.03792C6.04171 10.9665 6.04482 10.9634 6.04482 10.9595V10.8144C6.04482 10.8106 6.04171 10.8073 6.03792 10.8073H5.89168C5.89003 10.8073 5.88915 10.8056 5.89014 10.8043L5.9429 10.737C5.94544 10.7337 5.94486 10.7292 5.94144 10.7269C5.82513 10.6467 5.63371 10.5908 5.60018 10.5813C5.59707 10.5805 5.59387 10.5817 5.59231 10.5844L5.53625 10.6786C5.5344 10.6817 5.53528 10.6857 5.5382 10.6878C5.59018 10.7245 5.64373 10.7665 5.68949 10.804C5.69076 10.8052 5.68999 10.8073 5.68823 10.8073H5.4693C5.46542 10.8073 5.4624 10.8106 5.4624 10.8144V10.9595C5.4624 10.9634 5.46542 10.9665 5.4693 10.9665" fill="#30363A"/>
<path d="M4.91438 11.8214L4.8039 11.7961C4.79904 11.7951 4.79409 11.798 4.79273 11.803C4.68127 12.2271 4.49082 12.5754 4.45778 12.634C4.45506 12.6387 4.45701 12.6449 4.46187 12.6471L4.71499 12.7692C4.72014 12.7717 4.72626 12.769 4.72811 12.7637C4.86473 12.3551 4.91497 11.8979 4.92167 11.8315C4.92217 11.8268 4.91905 11.8225 4.91438 11.8214" fill="#30363A"/>
<path d="M4.81559 11.0354C4.81996 11.0407 4.82792 11.0407 4.83249 11.0357L4.99408 10.857C4.99826 10.8524 4.99797 10.8451 4.99312 10.8409C4.84834 10.7169 4.61552 10.6362 4.56859 10.6207C4.56363 10.619 4.55829 10.621 4.55547 10.6255L4.4996 10.7162C4.49658 10.7211 4.49775 10.7274 4.50222 10.7309C4.65399 10.848 4.78255 10.9964 4.81559 11.0354" fill="#30363A"/>
<path d="M4.7581 11.6477C4.76189 11.6532 4.76976 11.6537 4.77423 11.6486L4.93757 11.4647C4.94107 11.4608 4.94107 11.4549 4.93748 11.451C4.80659 11.3101 4.58057 11.2032 4.53733 11.1836C4.53296 11.1815 4.528 11.1828 4.52509 11.1866C4.51139 11.2041 4.47291 11.2534 4.45843 11.272C4.45523 11.2761 4.4557 11.2818 4.4594 11.2855C4.59932 11.4203 4.72681 11.6019 4.7581 11.6477" fill="#30363A"/>
<path d="M5.32801 12.2693C5.32441 12.2693 5.32169 12.266 5.32237 12.2625L5.33413 12.2019C5.33471 12.1991 5.33714 12.1972 5.33986 12.1972H6.41601C6.41922 12.1972 6.42184 12.1946 6.42184 12.1914V11.8192C6.42184 11.8161 6.41923 11.8135 6.41601 11.8135H5.13347C5.13027 11.8135 5.12764 11.8161 5.12764 11.8192V11.9635C5.12764 11.9667 5.13026 11.9692 5.13347 11.9692H6.12839C6.1316 11.9692 6.13422 11.9718 6.13422 11.9751V12.0356C6.13422 12.0388 6.1316 12.0413 6.12839 12.0413H5.08314C5.08041 12.0413 5.07809 12.0434 5.0776 12.0461L5.00511 12.4177C5.00442 12.4212 5.00715 12.4246 5.01075 12.4246L6.20612 12.4252C6.20972 12.4252 6.21264 12.4285 6.21196 12.432C6.19427 12.5271 6.15608 12.6285 6.07388 12.6285H5.25824C5.25582 12.6285 5.25358 12.6302 5.2528 12.6324L5.20343 12.7767C5.20208 12.7805 5.20489 12.7844 5.20887 12.7844H6.15763C6.49413 12.7844 6.52231 12.3322 6.52455 12.2752C6.52464 12.2719 6.52212 12.2693 6.51891 12.2693L5.32801 12.2693Z" fill="#30363A"/>
<path d="M5.01364 11.7378C5.07058 11.6104 5.08982 11.4756 5.09371 11.444C5.0942 11.4401 5.09175 11.4364 5.08787 11.4356C5.06961 11.4312 5.01898 11.419 5.0012 11.4148C4.99751 11.4139 4.99382 11.4158 4.99226 11.4193C4.93503 11.55 4.86448 11.6258 4.84097 11.6487C4.83708 11.6525 4.83805 11.6589 4.84281 11.6613C4.87498 11.6774 4.97506 11.7275 5.00305 11.7415C5.00703 11.7436 5.01179 11.7418 5.01363 11.7378" fill="#30363A"/>
<path d="M5.37846 11.4183L5.3017 11.4578C5.29888 11.4594 5.29742 11.4626 5.2984 11.4657C5.32842 11.5656 5.35689 11.6842 5.36496 11.7185C5.36611 11.7233 5.37166 11.7251 5.37545 11.7224L5.50575 11.6276C5.50848 11.6256 5.50925 11.622 5.50771 11.619C5.45116 11.5099 5.40034 11.4384 5.38693 11.4202C5.38498 11.4175 5.38139 11.4167 5.37848 11.4183" fill="#30363A"/>
<path d="M4.94373 11.0295V11.1187C4.94373 11.1235 4.94752 11.1273 4.95228 11.1273H5.10415C5.10503 11.1273 5.10542 11.1283 5.10484 11.1288C5.03012 11.2052 4.96336 11.2524 4.94733 11.2633C4.9451 11.265 4.94373 11.2675 4.94373 11.2704V11.3577C4.94373 11.3625 4.94752 11.3663 4.95228 11.3663H5.10445C5.10561 11.3663 5.1066 11.3673 5.1066 11.3683V11.7653C5.1066 11.77 5.11039 11.7738 5.11515 11.7738H5.27509C5.27975 11.7738 5.28364 11.77 5.28364 11.7653V11.3683C5.28364 11.3673 5.2846 11.3663 5.28579 11.3663H5.33865C5.34 11.377 5.34088 11.3857 5.34147 11.392C5.34196 11.3977 5.34768 11.4011 5.35293 11.3991L5.48907 11.3455C5.49286 11.344 5.49519 11.3398 5.49412 11.3357C5.46779 11.225 5.40599 11.1494 5.38393 11.1253C5.37965 11.1206 5.37236 11.1203 5.36751 11.1244L5.30716 11.177C5.30474 11.1792 5.30376 11.1825 5.30463 11.1856C5.31201 11.2137 5.31804 11.2408 5.3229 11.2658H5.15363C5.15305 11.2658 5.15286 11.2651 5.15333 11.2649C5.23126 11.2173 5.3464 11.1302 5.44503 10.9871C5.44764 10.9836 5.44687 10.9786 5.44357 10.9757L5.30559 10.8609C5.30131 10.8573 5.29471 10.8588 5.29247 10.8639C5.26526 10.9231 5.23125 10.9769 5.1951 11.0246C5.19403 11.0259 5.19249 11.0268 5.19073 11.0268H5.09822C5.09734 11.0268 5.09676 11.0257 5.09745 11.0251C5.11203 11.0104 5.21823 10.8992 5.32318 10.6745C5.32541 10.6696 5.32268 10.6638 5.31764 10.6625L5.12213 10.6121C5.11718 10.6108 5.11232 10.6142 5.11164 10.6192C5.08249 10.8285 4.96064 11.0032 4.94538 11.0246C4.94431 11.026 4.94373 11.0277 4.94373 11.0295" fill="#30363A"/>
<path d="M6.03468 11.0284V11.1212C6.03468 11.1244 6.03721 11.127 6.04051 11.127H6.18762C6.19122 11.127 6.19306 11.1315 6.19054 11.134C6.11601 11.209 6.05071 11.2547 6.0372 11.2638C6.03566 11.2649 6.03467 11.2666 6.03467 11.2686V11.3603C6.03467 11.3634 6.0372 11.366 6.0405 11.366H6.19179C6.1949 11.366 6.19752 11.3686 6.19752 11.3718V11.7678C6.19752 11.771 6.20006 11.7736 6.20326 11.7736H6.36873C6.37204 11.7736 6.37457 11.771 6.37457 11.7678V11.3691C6.37457 11.3674 6.37603 11.366 6.37768 11.366H6.43054C6.43249 11.366 6.43394 11.3674 6.43413 11.3693C6.43695 11.3952 6.43821 11.4154 6.4387 11.4257C6.43889 11.4295 6.44268 11.4319 6.44628 11.4307L6.59582 11.3808C6.59874 11.3798 6.60029 11.3768 6.59961 11.374C6.56939 11.2449 6.48923 11.1432 6.47077 11.1212C6.46873 11.1187 6.46503 11.1184 6.4626 11.1205L6.39701 11.1776C6.39528 11.1792 6.39467 11.1816 6.39547 11.1838C6.40431 11.2086 6.41131 11.235 6.41704 11.261C6.41743 11.2632 6.41569 11.2655 6.41325 11.2655H6.25623C6.25244 11.2655 6.25098 11.2605 6.25419 11.2585C6.33212 11.2095 6.4425 11.1232 6.53744 10.9848C6.53909 10.9823 6.53871 10.9789 6.53636 10.9771L6.39372 10.8582C6.39081 10.8559 6.38643 10.8569 6.38488 10.8604C6.35748 10.9208 6.32288 10.9757 6.28615 11.0242C6.28508 11.0257 6.28343 11.0264 6.28159 11.0264H6.1954C6.19219 11.0264 6.19054 11.0226 6.19278 11.0203C6.21785 10.994 6.31735 10.8823 6.41559 10.6711C6.41713 10.6679 6.41529 10.664 6.4118 10.663L6.21008 10.611C6.20678 10.6101 6.20347 10.6125 6.20299 10.6159C6.17432 10.8291 6.04858 11.0074 6.03576 11.0251C6.03507 11.026 6.03468 11.0271 6.03468 11.0284" fill="#30363A"/>
<path d="M6.48748 11.4404L6.3941 11.4696C6.45464 11.6144 6.4835 11.7383 6.4835 11.7383L6.64917 11.6734C6.59388 11.545 6.48748 11.4404 6.48748 11.4404" fill="#30363A"/>
<path d="M3.66502 12.5413C3.66502 12.5476 3.65987 12.5527 3.65366 12.5527H2.69877C2.69236 12.5527 2.68721 12.5476 2.68721 12.5413V12.0271C2.68721 12.0207 2.69236 12.0156 2.69877 12.0156H3.65366C3.65988 12.0156 3.66502 12.0207 3.66502 12.0271V12.5413ZM3.94011 11.8345H2.41183C2.40542 11.8345 2.40027 11.8395 2.40027 11.8458V12.8477C2.40027 12.855 2.40707 12.8604 2.41416 12.8589L2.67837 12.7999C2.68352 12.7987 2.68721 12.7941 2.68721 12.7888V12.7453C2.68721 12.739 2.69236 12.7339 2.69877 12.7339H3.65365C3.65987 12.7339 3.66502 12.739 3.66502 12.7453V12.8292C3.66502 12.8354 3.67017 12.8406 3.67639 12.8406H3.94059C3.94691 12.8406 3.95196 12.8354 3.95196 12.8292L3.95147 11.8458C3.95147 11.8395 3.94641 11.8345 3.9401 11.8345" fill="#30363A"/>
<path d="M4.25689 11.6285C4.22055 11.5684 3.96325 11.1557 3.57175 10.8619C3.56826 10.8593 3.5633 10.8596 3.56009 10.8626L3.46108 10.9559C3.45739 10.9592 3.45719 10.9648 3.4605 10.9684C3.49198 11.0026 3.64172 11.1709 3.80438 11.4467C3.80788 11.4526 3.8035 11.4604 3.79661 11.4604H2.59492C2.58617 11.4604 2.58267 11.4489 2.58986 11.444C2.94599 11.1932 3.2098 10.7946 3.25022 10.7316C3.25314 10.7272 3.25138 10.721 3.24663 10.7187L2.93384 10.5639C2.92937 10.5617 2.92383 10.5636 2.9217 10.5681C2.568 11.2946 2.24472 11.448 2.21615 11.4604H2.21411V11.6325C2.21411 11.6375 2.21809 11.6415 2.22305 11.6415H3.90554C3.90894 11.6415 3.91205 11.6434 3.9136 11.6465C3.93877 11.6961 3.96364 11.7481 3.98794 11.8025C3.99028 11.8077 3.99649 11.8094 4.00105 11.8064L4.25408 11.6407C4.25816 11.638 4.25933 11.6327 4.2569 11.6285" fill="#30363A"/>
<path d="M3.37095 13.9547H3.54032C3.54362 13.9547 3.54634 13.9521 3.54634 13.9487V13.3091C3.54634 13.3058 3.54362 13.3032 3.54032 13.3032H3.37095C3.36765 13.3032 3.36493 13.3058 3.36493 13.3091V13.9487C3.36493 13.9521 3.36766 13.9547 3.37095 13.9547Z" fill="#30363A"/>
<path d="M2.89372 13.6939L2.96067 13.5098C2.96271 13.5045 2.97039 13.5045 2.97243 13.5098L3.03938 13.6939C3.03996 13.6955 3.0388 13.6971 3.03723 13.6971H2.89585C2.8943 13.6971 2.89312 13.6955 2.8937 13.6939M2.85425 13.3073L2.62153 13.9465C2.62007 13.9505 2.62307 13.9547 2.62736 13.9547H2.79449C2.79711 13.9547 2.79935 13.9531 2.80022 13.9507L2.86212 13.7808C2.863 13.7784 2.86533 13.7767 2.86785 13.7767H3.0652C3.06774 13.7767 3.07006 13.7784 3.07093 13.7808L3.13283 13.9507C3.13371 13.9531 3.13604 13.9547 3.13866 13.9547H3.27382C3.2781 13.9547 3.28111 13.9505 3.27965 13.9465L3.04693 13.3073C3.04605 13.3048 3.04383 13.3032 3.0412 13.3032H2.85998C2.85736 13.3032 2.85512 13.3048 2.85425 13.3073" fill="#30363A"/>
<path d="M4.80784 13.6939L4.87479 13.5098C4.87683 13.5045 4.88451 13.5045 4.88655 13.5098L4.9535 13.6939C4.95408 13.6955 4.95292 13.6971 4.95135 13.6971H4.80997C4.80843 13.6971 4.80724 13.6955 4.80782 13.6939M4.76827 13.3073L4.53555 13.9465C4.5342 13.9505 4.53709 13.9547 4.54148 13.9547H4.70861C4.71114 13.9547 4.71347 13.9531 4.71434 13.9507L4.77624 13.7808C4.77712 13.7784 4.77945 13.7767 4.78197 13.7767H4.97932C4.98186 13.7767 4.98418 13.7784 4.98505 13.7808L5.04695 13.9507C5.04783 13.9531 5.05006 13.9547 5.05278 13.9547H5.18794C5.19222 13.9547 5.19523 13.9505 5.19377 13.9465L4.96105 13.3073C4.96017 13.3048 4.95785 13.3032 4.95532 13.3032H4.7741C4.77148 13.3032 4.76924 13.3048 4.76827 13.3073" fill="#30363A"/>
<path d="M2.66808 13.3018H2.16095C2.15745 13.3018 2.15454 13.3046 2.15454 13.3082V13.3751C2.15454 13.3787 2.15745 13.3815 2.16095 13.3815H2.3173C2.3208 13.3815 2.32361 13.3844 2.32361 13.3879V13.9482C2.32361 13.9517 2.32643 13.9546 2.33003 13.9546H2.49861C2.50221 13.9546 2.50503 13.9517 2.50503 13.9482V13.3879C2.50503 13.3844 2.50794 13.3815 2.51144 13.3815H2.66808C2.67157 13.3815 2.67439 13.3787 2.67439 13.3751V13.3082C2.67439 13.3046 2.67157 13.3018 2.66808 13.3018" fill="#30363A"/>
<path d="M4.44578 13.3076L4.33705 13.7192C4.33598 13.723 4.33044 13.723 4.32957 13.7192L4.22084 13.3076C4.22015 13.3051 4.21773 13.3032 4.21511 13.3032H4.04195C4.03922 13.3032 4.0369 13.3051 4.03622 13.3076L3.92749 13.719C3.92652 13.7229 3.92107 13.7229 3.92 13.719L3.81137 13.3076C3.81068 13.3051 3.80826 13.3032 3.80564 13.3032H3.63617C3.63229 13.3032 3.62947 13.3068 3.63044 13.3106L3.79952 13.9504C3.8001 13.953 3.80253 13.9547 3.80515 13.9547H3.98219H3.98229H3.98219L4.09239 13.5378C4.09346 13.5339 4.0989 13.5339 4.09987 13.5378L4.20889 13.9504C4.20958 13.953 4.212 13.9547 4.21462 13.9547H4.38719C4.38992 13.9547 4.39225 13.953 4.39293 13.9504L4.5619 13.3106C4.56298 13.3068 4.56017 13.3032 4.55627 13.3032H4.45152C4.44879 13.3032 4.44647 13.3051 4.44579 13.3076" fill="#30363A"/>
<path d="M5.73034 13.7457L5.44728 13.306C5.44621 13.3042 5.44447 13.3032 5.44242 13.3032H5.27422C5.27102 13.3032 5.26849 13.3059 5.26849 13.309V13.9491C5.26849 13.9522 5.27103 13.9548 5.27422 13.9548H5.4226C5.42571 13.9548 5.42833 13.9522 5.42833 13.9491V13.4877C5.42833 13.4839 5.4331 13.4824 5.43523 13.4855L5.73558 13.9521C5.73655 13.9539 5.7385 13.9547 5.74044 13.9547H5.89135C5.89455 13.9547 5.89718 13.9522 5.89718 13.9491V13.309C5.89718 13.3058 5.89456 13.3032 5.89135 13.3032H5.74307C5.73986 13.3032 5.73724 13.3058 5.73724 13.309V13.7436C5.73724 13.7474 5.73238 13.7487 5.73033 13.7456" fill="#30363A"/>
<path d="M11.6991 13.6939L11.766 13.5098C11.7681 13.5045 11.7757 13.5045 11.7778 13.5098L11.8447 13.6939C11.8453 13.6955 11.8441 13.6971 11.8426 13.6971H11.7012C11.6997 13.6971 11.6985 13.6955 11.6991 13.6939M11.6595 13.3073L11.4268 13.9465C11.4254 13.9505 11.4283 13.9547 11.4326 13.9547H11.5998C11.6024 13.9547 11.6047 13.9531 11.6056 13.9507L11.6675 13.7808C11.6684 13.7784 11.6707 13.7767 11.6732 13.7767H11.8706C11.8731 13.7767 11.8753 13.7784 11.8763 13.7808L11.9381 13.9507C11.9391 13.9531 11.9413 13.9547 11.944 13.9547H12.0792C12.0835 13.9547 12.0864 13.9505 12.085 13.9465L11.8523 13.3073C11.8514 13.3048 11.8491 13.3032 11.8466 13.3032H11.6652C11.6627 13.3032 11.6605 13.3048 11.6595 13.3073" fill="#30363A"/>
<path d="M13.2192 13.3018H12.7121C12.7086 13.3018 12.7057 13.3046 12.7057 13.3082V13.3751C12.7057 13.3787 12.7086 13.3815 12.7121 13.3815H12.8684C12.8719 13.3815 12.8748 13.3844 12.8748 13.3879V13.9482C12.8748 13.9517 12.8776 13.9546 12.8812 13.9546H13.0498C13.0534 13.9546 13.0562 13.9517 13.0562 13.9482V13.3879C13.0562 13.3844 13.0591 13.3815 13.0626 13.3815H13.2192C13.2227 13.3815 13.2255 13.3787 13.2255 13.3751V13.3082C13.2255 13.3046 13.2227 13.3018 13.2192 13.3018" fill="#30363A"/>
<path d="M11.1669 13.6377H11.14C11.1366 13.6377 11.1341 13.6351 11.1341 13.6318V13.4008C11.1341 13.3975 11.1366 13.3949 11.14 13.3949H11.1987C11.2634 13.3949 11.309 13.4451 11.309 13.5196C11.309 13.619 11.2204 13.6377 11.1669 13.6377M11.1987 13.3032H10.9719C10.9687 13.3032 10.9661 13.3058 10.9661 13.3091V13.9493C10.9661 13.9525 10.9687 13.9552 10.9719 13.9552H11.1282C11.1314 13.9552 11.1341 13.9525 11.1341 13.9493V13.7362C11.1341 13.7329 11.1366 13.7303 11.14 13.7303H11.1682C11.2273 13.7303 11.4645 13.7285 11.4645 13.5175C11.4645 13.3064 11.2832 13.3032 11.1987 13.3032" fill="#30363A"/>
<path d="M12.3658 13.5944H12.3384C12.3354 13.5944 12.3329 13.592 12.3329 13.5889V13.4004C12.3329 13.3974 12.3354 13.3949 12.3384 13.3949H12.3976C12.4522 13.3949 12.4946 13.4165 12.4946 13.4911C12.4946 13.5904 12.4024 13.5944 12.3658 13.5944M12.5139 13.6726C12.5112 13.6713 12.5114 13.6675 12.5141 13.6665C12.5835 13.644 12.6501 13.5962 12.6501 13.4951C12.6501 13.3031 12.4821 13.3032 12.3976 13.3032H12.1704C12.1674 13.3032 12.165 13.3056 12.165 13.3088V13.9497C12.165 13.9528 12.1674 13.9552 12.1704 13.9552H12.3273C12.3305 13.9552 12.3329 13.9528 12.3329 13.9497V13.6926C12.3329 13.6896 12.3354 13.687 12.3384 13.687H12.3671C12.3671 13.687 12.4022 13.6865 12.4681 13.7957L12.5626 13.9521C12.5636 13.9538 12.5654 13.9547 12.5673 13.9547H12.7227C12.7271 13.9547 12.7297 13.95 12.7274 13.9463L12.6078 13.7591C12.6078 13.7591 12.5711 13.6981 12.5139 13.6726" fill="#30363A"/>
<path d="M13.7329 13.3064L13.6018 13.576C13.5997 13.5803 13.5935 13.5803 13.5914 13.576L13.4603 13.3064C13.4594 13.3044 13.4574 13.3032 13.4551 13.3032H13.2791C13.2748 13.3032 13.272 13.3077 13.2738 13.3116L13.4759 13.7272C13.4763 13.7279 13.4765 13.7289 13.4765 13.7297V13.9489C13.4765 13.9522 13.4791 13.9548 13.4824 13.9548H13.6388C13.642 13.9548 13.6446 13.9522 13.6446 13.9489V13.7226C13.6446 13.7217 13.6448 13.721 13.6452 13.7201L13.8451 13.309C13.8463 13.3063 13.8444 13.3032 13.8414 13.3032H13.7381C13.7358 13.3032 13.7338 13.3044 13.7328 13.3064" fill="#30363A"/>
<path d="M7.14103 13.675H7.34392C7.34674 13.675 7.34917 13.6726 7.34917 13.6696V13.5885C7.34917 13.5856 7.34675 13.5833 7.34392 13.5833H7.14103C7.13822 13.5833 7.13579 13.5808 7.13579 13.578V13.3989C7.13579 13.396 7.13821 13.3936 7.14103 13.3936H7.37035C7.37337 13.3936 7.37569 13.3914 7.37569 13.3884V13.3071C7.37569 13.3042 7.37336 13.3018 7.37035 13.3018L6.9739 13.3031C6.97099 13.3031 6.96875 13.3055 6.96875 13.3084V13.9494C6.96875 13.9523 6.97098 13.9546 6.9739 13.9546L7.3754 13.9551C7.37832 13.9551 7.38075 13.9527 7.38075 13.9499V13.8686C7.38075 13.8658 7.37832 13.8634 7.3754 13.8634H7.14103C7.13822 13.8634 7.13579 13.8611 7.13579 13.8581V13.6802C7.13579 13.6773 7.13821 13.675 7.14103 13.675" fill="#30363A"/>
<path d="M8.94997 13.3032H8.79644C8.79275 13.3032 8.78973 13.3062 8.78973 13.3099V13.948C8.78973 13.9517 8.79275 13.9547 8.79644 13.9547H8.90002V13.9552H9.19211C9.1959 13.9552 9.19901 13.9522 9.19901 13.9485V13.8703C9.19901 13.8666 9.1959 13.8636 9.19211 13.8636H8.96367C8.95988 13.8636 8.95677 13.8605 8.95677 13.8567V13.3099C8.95677 13.3062 8.95375 13.3032 8.94996 13.3032" fill="#30363A"/>
<path d="M7.77612 13.8637C7.667 13.8637 7.61142 13.7453 7.61142 13.6292C7.61142 13.5131 7.66943 13.3951 7.77612 13.3951C7.8901 13.3951 7.94082 13.5131 7.94082 13.6292C7.94082 13.7453 7.89165 13.8637 7.77612 13.8637ZM7.77612 13.2925C7.58052 13.2925 7.44623 13.4434 7.44623 13.6295C7.44623 13.8154 7.5641 13.9664 7.77612 13.9664C7.97153 13.9664 8.10601 13.8154 8.10601 13.6295C8.10601 13.4434 7.98902 13.2925 7.77612 13.2925Z" fill="#30363A"/>
<path d="M6.57353 13.6377H6.54652C6.54322 13.6377 6.54069 13.6351 6.54069 13.6318V13.4008C6.54069 13.3975 6.54322 13.3949 6.54652 13.3949H6.60531C6.67002 13.3949 6.71559 13.4451 6.71559 13.5196C6.71559 13.619 6.62697 13.6377 6.57353 13.6377M6.60531 13.3032H6.37851C6.37521 13.3032 6.37268 13.3058 6.37268 13.3091V13.9493C6.37268 13.9525 6.37522 13.9552 6.37851 13.9552H6.53486C6.53806 13.9552 6.54069 13.9525 6.54069 13.9493V13.7362C6.54069 13.7329 6.54322 13.7303 6.54652 13.7303H6.5748C6.63387 13.7303 6.87116 13.7285 6.87116 13.5175C6.87116 13.3064 6.68984 13.3032 6.60531 13.3032" fill="#30363A"/>
<path d="M9.46101 13.675H9.66381C9.66672 13.675 9.66915 13.6726 9.66915 13.6696V13.5885C9.66915 13.5856 9.66673 13.5833 9.66381 13.5833H9.46101C9.4581 13.5833 9.45567 13.5808 9.45567 13.578V13.3989C9.45567 13.396 9.4581 13.3936 9.46101 13.3936H9.69033C9.69325 13.3936 9.69558 13.3914 9.69558 13.3884V13.3071C9.69558 13.3042 9.69324 13.3018 9.69024 13.3018L9.29379 13.3031C9.29097 13.3031 9.28864 13.3055 9.28864 13.3084V13.9494C9.28864 13.9523 9.29098 13.9546 9.29388 13.9546L9.69539 13.9551C9.6982 13.9551 9.70063 13.9527 9.70063 13.9499V13.8686C9.70063 13.8658 9.69821 13.8634 9.69539 13.8634H9.46101C9.4581 13.8634 9.45567 13.8611 9.45567 13.8581V13.6802C9.45567 13.6773 9.4581 13.675 9.46101 13.675" fill="#30363A"/>
<path d="M8.39522 13.6377H8.36821C8.3649 13.6377 8.36228 13.6351 8.36228 13.6318V13.4008C8.36228 13.3975 8.3649 13.3949 8.36821 13.3949H8.427C8.49171 13.3949 8.53718 13.4451 8.53718 13.5196C8.53718 13.619 8.44866 13.6377 8.39522 13.6377M8.427 13.3032H8.2001C8.1969 13.3032 8.19427 13.3058 8.19427 13.3091V13.9493C8.19427 13.9525 8.19689 13.9552 8.2001 13.9552H8.35645C8.35966 13.9552 8.36228 13.9525 8.36228 13.9493V13.7362C8.36228 13.7329 8.3649 13.7303 8.36821 13.7303H8.39639C8.45547 13.7303 8.69285 13.7285 8.69285 13.5175C8.69285 13.3064 8.51153 13.3032 8.427 13.3032" fill="#30363A"/>
<path d="M9.79098 13.4898H9.86794C9.87036 13.4898 9.8726 13.4883 9.87367 13.4862L9.96705 13.2945C9.96851 13.2916 9.96647 13.2881 9.96306 13.2881H9.81333C9.81012 13.2881 9.8074 13.2905 9.80701 13.2936L9.78466 13.4827C9.78417 13.4865 9.78709 13.4898 9.79098 13.4898" fill="#30363A"/>
<path d="M10.2919 13.6C10.2104 13.568 10.1674 13.5273 10.1674 13.4635C10.1674 13.4216 10.2029 13.399 10.2769 13.399C10.3371 13.399 10.4055 13.437 10.4264 13.45C10.4285 13.4515 10.4314 13.4498 10.4314 13.4472V13.3336C10.4314 13.3312 10.4301 13.329 10.4279 13.3279C10.3813 13.3071 10.3034 13.2925 10.2518 13.2925C10.1848 13.2925 10.0023 13.2943 10.0023 13.4637C10.0023 13.5588 10.0514 13.6142 10.1643 13.6684C10.2466 13.706 10.3056 13.7388 10.3056 13.7901C10.3056 13.8543 10.2464 13.8711 10.1951 13.8711C10.1152 13.8711 10.0506 13.8269 10.0211 13.8032C10.0188 13.8015 10.0156 13.8031 10.0156 13.8058V13.9257C10.0156 13.9283 10.0172 13.9305 10.0196 13.9314C10.1142 13.964 10.4707 14.0265 10.4707 13.7832C10.4707 13.6861 10.3833 13.6361 10.2919 13.6" fill="#30363A"/>
</g>
<defs>
<clipPath id="clip0_7889_19383">
<rect width="16" height="16" fill="white"/>
</clipPath>
</defs>
</svg>
