<svg width="16" height="16" viewBox="0 0 16 16" fill="none" xmlns="http://www.w3.org/2000/svg">
<path d="M15 8C15 8.91925 14.8189 9.8295 14.4672 10.6788C14.1154 11.5281 13.5998 12.2997 12.9497 12.9497C12.2997 13.5998 11.5281 14.1154 10.6788 14.4672C9.8295 14.8189 8.91925 15 8 15C7.08075 15 6.1705 14.8189 5.32122 14.4672C4.47194 14.1154 3.70026 13.5998 3.05025 12.9497C2.40024 12.2997 1.88463 11.5281 1.53285 10.6788C1.18106 9.8295 1 8.91925 1 8C1 7.08075 1.18106 6.1705 1.53285 5.32122C1.88463 4.47194 2.40024 3.70026 3.05025 3.05025C3.70026 2.40024 4.47194 1.88463 5.32122 1.53284C6.1705 1.18106 7.08075 1 8 1C8.91925 1 9.8295 1.18106 10.6788 1.53284C11.5281 1.88463 12.2997 2.40024 12.9497 3.05025C13.5998 3.70026 14.1154 4.47194 14.4672 5.32122C14.8189 6.17049 15 7.08075 15 8Z" stroke="#DB4C65" stroke-width="2"/>
<line x1="8.20001" y1="0.800003" x2="8.20001" y2="15.2" stroke="#DB4C65" stroke-width="2"/>
<line x1="8.40069" y1="8.03658" x2="2.54789" y2="11.8693" stroke="#DB4C65" stroke-width="2"/>
</svg>
