<svg fill="none" height="19" viewBox="0 0 19 19" width="19" xmlns="http://www.w3.org/2000/svg"><path d="m9.38867 18.4697c4.82523 0 8.81543-3.9902 8.81543-8.8154 0-4.83399-3.9902-8.815433-8.82422-8.815433-4.82519 0-8.806638 3.981443-8.806638 8.815433 0 4.8252 3.990238 8.8154 8.815428 8.8154zm0-1.1426c-4.2539 0-7.67285-3.4277-7.67285-7.6728 0-4.25391 3.41895-7.68164 7.66406-7.68164 4.25392 0 7.68162 3.42773 7.69042 7.68164 0 4.2451-3.4277 7.6728-7.68163 7.6728zm-2.8916-3.5595c.25488 0 .42188-.1143.52734-.4395l.7295-2.039h3.25199l.7295 2.039c.1054.3252.2724.4395.5361.4395.2988 0 .501-.1934.501-.4658 0-.1055-.0176-.2022-.0704-.3516l-2.5751-6.85547c-.1231-.35157-.38677-.52735-.74712-.52735-.36914 0-.62402.17578-.75586.52735l-2.5664 6.85547c-.05274.1494-.07032.2461-.07032.3516 0 .2812.19336.4658.50977.4658zm1.54688-3.3223 1.30078-3.63866h.07031l1.30076 3.63866z" fill="#111"/></svg>