<svg fill="none" height="19" viewBox="0 0 19 19" width="19" xmlns="http://www.w3.org/2000/svg"><path d="m9.38867 18.4697c4.82523 0 8.81543-3.9902 8.81543-8.8154 0-4.83399-3.9902-8.815433-8.82422-8.815433-4.82519 0-8.806638 3.981443-8.806638 8.815433 0 4.8252 3.990238 8.8154 8.815428 8.8154zm0-1.1426c-4.2539 0-7.67285-3.4277-7.67285-7.6728 0-4.25391 3.41895-7.68164 7.66406-7.68164 4.25392 0 7.68162 3.42773 7.69042 7.68164 0 4.2451-3.4277 7.6728-7.68163 7.6728zm-2.18847-3.7265h2.57519c1.75781 0 2.87401-.8526 2.87401-2.2236 0-1.0635-.7031-1.81938-1.8281-1.96001v-.04394c.8262-.20215 1.3623-.90528 1.3623-1.78418 0-1.16895-.9668-1.95996-2.417-1.95996h-2.5664c-.37793 0-.58887.21972-.58887.60644v6.75875c0 .378.21094.6065.58887.6065zm.46582-4.50001v-2.63672h1.88964c.98434 0 1.56444.4834 1.56444 1.30078s-.7031 1.33594-1.85448 1.33594zm0 3.66501v-2.874h2.09179c1.12499 0 1.79299.5449 1.79299 1.459 0 .9492-.7207 1.415-2.21486 1.415z" fill="#111"/></svg>