<svg fill="none" height="19" viewBox="0 0 19 19" width="19" xmlns="http://www.w3.org/2000/svg"><path d="m9.38867 18.4697c4.82523 0 8.81543-3.9902 8.81543-8.8154 0-4.83399-3.9902-8.815433-8.82422-8.815433-4.82519 0-8.806638 3.981443-8.806638 8.815433 0 4.8252 3.990238 8.8154 8.815428 8.8154zm0-1.1426c-4.2539 0-7.67285-3.4277-7.67285-7.6728 0-4.25391 3.41895-7.68164 7.66406-7.68164 4.25392 0 7.68162 3.42773 7.69042 7.68164 0 4.2451-3.4277 7.6728-7.68163 7.6728zm.02637-3.5859c1.53806 0 2.77736-.791 3.12886-1.9863.044-.1582.0528-.2461.0528-.3516 0-.2988-.1758-.4834-.4658-.4834-.2286 0-.3692.1143-.4747.3692-.2812.958-1.1162 1.538-2.22358 1.538-1.50293 0-2.53125-1.3007-2.53125-3.20796 0-1.90723 1.02832-3.2168 2.53125-3.2168 1.10738 0 1.94238.58008 2.22358 1.53809.1055.25488.2461.36914.4747.36914.29 0 .4658-.18457.4658-.4834 0-.11426-.0088-.19336-.0528-.35156-.3515-1.17773-1.6084-1.99512-3.12886-1.99512-2.17969 0-3.61231 1.64356-3.61231 4.13965 0 2.49606 1.42383 4.12206 3.61231 4.12206z" fill="#111"/></svg>