<svg width="17" height="17" viewBox="0 0 17 17" fill="none" xmlns="http://www.w3.org/2000/svg">
<path d="M1.25391 9.11328H7.83594V15.6953C7.83594 16.0566 8.13867 16.3594 8.5 16.3594C8.86133 16.3594 9.16406 16.0566 9.16406 15.6953V9.11328H15.7559C16.1074 9.11328 16.4102 8.81055 16.4102 8.44922C16.4102 8.08789 16.1074 7.78516 15.7559 7.78516H9.16406V1.19336C9.16406 0.841797 8.86133 0.539062 8.5 0.539062C8.13867 0.539062 7.83594 0.841797 7.83594 1.19336V7.78516H1.25391C0.892578 7.78516 0.589844 8.08789 0.589844 8.44922C0.589844 8.81055 0.892578 9.11328 1.25391 9.11328Z" fill="#6A6A6A"/>
</svg>
