<svg xmlns="http://www.w3.org/2000/svg" viewBox="0 0 1280 600">
  <defs>
    <style>
      @keyframes bounceIn {
      from,
      20%,
      40%,
      60%,
      80%,
      to {
      animation-timing-function: cubic-bezier(0.215, 0.61, 0.355, 1);
      }

      0% {
      opacity: 0;
      transform: scale3d(0.3, 0.3, 0.3);
      }

      5% {
      transform: scale3d(1.1, 1.1, 1.1);
      }

      10% {
      transform: scale3d(0.9, 0.9, 0.9);
      }

      15% {
      opacity: 1;
      transform: scale3d(1.03, 1.03, 1.03);
      }

      20% {
      transform: scale3d(1, 1, 1);
      }

      95% {
      opacity: 1;
      transform: scale3d(1, 1, 1);
      }

      to {
      opacity: 0;
      transform: scale3d(0.3, 0.3, 0.3);
      }
      }
      .text-box{
      fill:#fff;
      stroke:#111;
      stroke-miterlimit:10;
      stroke-width:3px;
      transform-origin: center bottom;
      }
      .text-box-1 {
      animation: bounceIn 5s infinite;
      }
      .text-box-2 {
      animation: bounceIn 5s infinite 0.25s
      }
      .text-box-3 {
      animation: bounceIn 5s infinite 0.5s
      }
      .text-box-4 {
      animation: bounceIn 5s infinite 0.75s
      }
      .text-box-5 {
      animation: bounceIn 5s infinite 1s
      }
      .text-box-6 {
      animation: bounceIn 5s infinite 1.25s
      }
    </style>
  </defs>
  <g id="圖層_6" data-name="圖層 6">
    <path class="text-box text-box-1"
          d="M97.4,185.67H278.14a28,28,0,0,0,28-28v-3.23a28,28,0,0,0-28-28H69.43v31.2A28,28,0,0,0,97.4,185.67Z"/>
    <path class="text-box text-box-2"
          d="M1001.86,24H1182.6a28,28,0,0,1,28,28v3.23a28,28,0,0,1-28,28H973.89V52A28,28,0,0,1,1001.86,24Z"/>
    <path class="text-box text-box-3"
          d="M1066.31,430.66H885.58a28,28,0,0,1-28-28v-3.23a28,28,0,0,1,28-28h208.7v31.2A28,28,0,0,1,1066.31,430.66Z"/>
    <path class="text-box text-box-4"
          d="M836,448.7H655.3a28,28,0,0,0-28,28v3.23a28,28,0,0,0,28,28H864v-31.2A28,28,0,0,0,836,448.7Z"/>
    <path class="text-box text-box-5"
          d="M427.17,444.52H246.43a28,28,0,0,1-28-28v-3.22a28,28,0,0,1,28-28H455.14v31.19A28,28,0,0,1,427.17,444.52Z"/>
    <path class="text-box text-box-6"
          d="M564.31,276.65H745a28,28,0,0,1,28,28v3.23a28,28,0,0,1-28,28H536.34v-31.2A28,28,0,0,1,564.31,276.65Z"/>
  </g>

  <defs>
    <style>.cls-1{fill:#d0cfcf;transform-origin: center bottom;}</style>
  </defs>
  <g id="圖層_6" data-name="圖層 6">
    <rect class="cls-1 text-box-4" x="662.83" y="482.23" width="165.67" height="11.83"/>
    <rect class="cls-1 text-box-5" x="257.91" y="418.88" width="82.84" height="11.83"/>
    <rect class="cls-1 text-box-1" x="104.93" y="140.31" width="165.67" height="11.83"/>
    <rect class="cls-1 text-box-6" x="575.78" y="290.45" width="122.28" height="11.83"/>
    <rect class="cls-1 text-box-2" x="1009.4" y="57.56" width="165.67" height="11.83"/>
    <rect class="cls-1 text-box-2" x="1009.4" y="37.84" width="142" height="11.83"/>
    <rect class="cls-1 text-box-6" x="575.78" y="310.18" width="157.78" height="11.83"/>
    <rect class="cls-1 text-box-1" x="104.93" y="160.03" width="118.34" height="11.83"/>
    <rect class="cls-1 text-box-4" x="662.83" y="462.51" width="118.34" height="11.83"/>
    <rect class="cls-1 text-box-5" x="257.91" y="399.16" width="157.78" height="11.83"/>
    <rect class="cls-1 text-box-3" x="896.06" y="405.02" width="102.56" height="11.83"/>
    <rect class="cls-1 text-box-3" x="896.06" y="385.3" width="159.75" height="11.83"/>
  </g>
  <defs>
    <style>.text-red{fill:#ff3f3f;transform-origin:center bottom;}</style>
  </defs>
  <g id="圖層_6" data-name="圖層 6">
    <rect class="text-red text-box-6" x="619.17" y="290.45" width="78.89" height="11.83">
      <animate attributeName="x" to="639.17" dur="2s" repeatCount="indefinite"></animate>
    </rect>
    <rect class="text-red text-box-1" x="128.6" y="140.31" width="59.17" height="11.83">
      <animate attributeName="x" to="188.6" dur="1s" repeatCount="indefinite"></animate>
    </rect>
    <rect class="text-red text-box-2" x="1009.4" y="37.84" width="19.72" height="11.83">
      <animate attributeName="x" to="1099.4" dur="1.2s" repeatCount="indefinite"></animate>
    </rect>
    <rect class="text-red text-box-2" x="1052.79" y="57.56" width="39.45" height="11.83">
      <animate attributeName="x" to="1092.79" dur="2s" repeatCount="indefinite"></animate>
    </rect>
    <rect class="text-red text-box-3" x="996.37" y="385.3" width="39.45" height="11.83">
      <animate attributeName="x" to="1026.37" dur="2s" repeatCount="indefinite"></animate>
    </rect>
    <rect class="text-red text-box-3" x="896.06" y="405.02" width="78.89" height="11.83">
      <animate attributeName="x" to="936.06" dur="3s" repeatCount="indefinite"></animate>
    </rect>
    <rect class="text-red text-box-4" x="705.67" y="482.23" width="59.17" height="11.83">
      <animate attributeName="x" to="785.67" dur="3s" repeatCount="indefinite"></animate>
    </rect>
    <rect class="text-red text-box-5" x="261.58" y="418.88" width="59.17" height="11.83">
      <animate attributeName="x" to="301.58" dur="2s" repeatCount="indefinite"></animate>
    </rect>
  </g>

</svg>
