<svg fill="none" height="23" viewBox="0 0 20 23" width="20" xmlns="http://www.w3.org/2000/svg"><path d="m10 22.917c.4951 0 .8506-.3428.8506-.8506v-14.23144l-.0635-2.74219 3.4531 3.69434 3.7325 3.71969c.165.1651.4062.2539.6474.2539.4824 0 .8379-.3554.8379-.8378 0-.2667-.1142-.4825-.3174-.6983l-8.5058-8.48046c-.1143-.12695-.2666-.21582-.419-.2666h8.4932c.5078 0 .8506-.35547.8506-.86328 0-.49512-.3428-.850588-.8506-.850588h-17.44338c-.495112 0-.837886.355468-.837886.850588 0 .50781.342774.86328.837886.86328h8.50586c-.15234.05078-.29199.13965-.41894.2666l-8.493165 8.48046c-.203125.2158-.317383.4316-.317383.6983 0 .4824.355469.8378.837888.8378.24121 0 .48242-.0888.64746-.2539l3.71973-3.71969 3.46582-3.70703-.07617 2.75488v14.23144c0 .5078.35547.8506.86328.8506z" fill="#6a6a6a"/></svg>