<svg fill="none" height="19" viewBox="0 0 19 19" width="19" xmlns="http://www.w3.org/2000/svg"><path d="m9.38867 18.4697c4.82523 0 8.81543-3.9902 8.81543-8.8154 0-4.83399-3.9902-8.815433-8.82422-8.815433-4.82519 0-8.806638 3.981443-8.806638 8.815433 0 4.8252 3.990238 8.8154 8.815428 8.8154zm-.96679-4.5615c-.23731 0-.41309-.0967-.59766-.3252l-2.38184-2.8564c-.10547-.1407-.16699-.2901-.16699-.4483 0-.3076.23731-.55369.54492-.55369.19336 0 .34278.07031.50977.28129l2.05664 2.54 4.04298-6.39844c.1318-.20215.3076-.31641.4922-.31641.29 0 .5625.21094.5625.52735 0 .14062-.0791.29883-.1582.43066l-4.35061 6.79394c-.14063.2197-.3252.3252-.55371.3252z" fill="#fff"/></svg>