<svg fill="none" height="26" viewBox="0 0 26 26" width="26" xmlns="http://www.w3.org/2000/svg"><g clip-rule="evenodd" fill-rule="evenodd"><path d="m0 23.9733c0 1.1046.895431 2 2 2h21.9733c1.1046 0 2-.8954 2-2v-21.9733c0-1.104568-.8954-2-2-2h-21.9733c-1.104568 0-2 .895431-2 2z" fill="#4a4a4a"/><path d="m21.622 8.22445c-.8919-1.52802-2.1016-2.73782-3.6295-3.62952-1.5281-.89182-3.1964-1.33761-5.006-1.33761-1.8094 0-3.47817.44597-5.00601 1.33761-1.52801.89164-2.7377 2.1015-3.62951 3.62952-.8917 1.52802-1.33755 3.19655-1.33755 5.00575 0 2.1732.63401 4.1274 1.90238 5.863 1.26826 1.7359 2.90667 2.937 4.91507 3.6035.23372.0433.40682.0129.51932-.0908.1126-.1038.1688-.2338.1688-.3894 0-.026-.0022-.2596-.0066-.7012s-.0065-.8268-.0065-1.1555l-.2986.0516c-.1905.0349-.43073.0497-.72082.0455-.28991-.0041-.59083-.0345-.90248-.091-.3117-.056-.60167-.1858-.87008-.3892-.26823-.2035-.4587-.4698-.57129-.7985l-.12982-.2988c-.08653-.199-.22281-.42-.40895-.6622-.18621-.2425-.37443-.4069-.5649-.4935l-.09091-.065c-.06059-.0433-.11679-.0955-.16879-.156-.05194-.0605-.09079-.1211-.11679-.1818s-.00445-.1105.06491-.1495c.06935-.0391.19473-.0581.37661-.0581l.25959.0388c.17317.0347.38733.1384.64283.3116.25532.173.46522.3982.62975.675.19923.3551.43921.6256.72071.8118.28126.1862.56489.2791.85048.2791.28564 0 .53238-.0217.7402-.0648.20765-.0432.40245-.1084.58435-.1949.0779-.5802.2901-1.026.6362-1.3376-.4934-.0519-.937-.1299-1.331-.2338-.39379-.104-.80073-.2728-1.22052-.5067-.42009-.2336-.76851-.5238-1.04545-.8698-.277-.3464-.50431-.8011-.68163-1.3636-.1775-.5629-.26622-1.2121-.26622-1.9479 0-1.0477.34203-1.9392 1.02597-2.6751-.32035-.78771-.29015-1.6707.09085-2.64899.25105-.078.6234-.01949 1.11675.17525.49353.19485.85481.36169 1.08436.50004.22949.13829.41339.2555.55189.35061.8053-.22499 1.6363-.33752 2.4933-.33752s1.6882.11253 2.4935.33752l.4935-.31152c.3374-.20788.7359-.39835 1.1945-.57153.4588-.17306.8096-.22067 1.0522-.14267.3894.97828.4241 1.86122.1036 2.64891.6839.7359 1.0261 1.6277 1.0261 2.6752 0 .7358-.0891 1.387-.2662 1.9542-.1774.5672-.4067 1.0214-.688 1.3635-.2816.342-.6322.63-1.052.8635-.4199.2338-.8271.4026-1.2208.5066-.394.1039-.8376.182-1.331.234.45.3894.6751 1.0041.6751 1.8438v2.7398c0 .1557.0541.2856.1625.3894.1082.1037.279.1342.5128.0908 2.0087-.6665 3.6471-1.8677 4.9153-3.6035 1.268-1.7356 1.9023-3.6898 1.9023-5.863-.0005-1.8089-.4465-3.47733-1.3378-5.00535z" fill="#fff"/></g></svg>