<svg fill="none" height="26" viewBox="0 0 26 26" width="26" xmlns="http://www.w3.org/2000/svg"><g fill="#4a4a4a"><path d="m18.8047 8.59092c-.1195-.32388-.3102-.61703-.5579-.85766-.2407-.24777-.5336-.43845-.8577-.55797-.2628-.10208-.6577-.22358-1.3849-.25668-.7867-.03588-1.0226-.04361-3.0142-.04361-1.9918 0-2.2277.00753-3.01422.04341-.72724.0333-1.12228.1548-1.38491.25688-.32407.11952-.61723.3102-.85766.55797-.24776.24063-.43844.53358-.55816.85766-.10208.26283-.22359.65786-.25669 1.3851-.03587.78648-.0436 1.02238-.0436 3.01418 0 1.9917.00773 2.2275.0436 3.0142.0331.7273.15461 1.1221.25669 1.3849.11972.3241.3102.6171.55796.8577.24063.2478.53359.4384.85766.558.26283.1022.65787.2237 1.38511.2568.78652.0359 1.02222.0435 3.01402.0435 1.992 0 2.2279-.0076 3.0142-.0435.7272-.0331 1.1223-.1546 1.3851-.2568.6505-.251 1.1647-.7651 1.4156-1.4157.1021-.2628.2236-.6576.2569-1.3849.0359-.7867.0434-1.0225.0434-3.0142 0-1.9918-.0075-2.2277-.0434-3.01418-.0331-.72724-.1546-1.12227-.2569-1.3851zm-5.8147 8.22938c-2.1155 0-3.83046-1.7148-3.83046-3.8303s1.71496-3.83021 3.83046-3.83021c2.1153 0 3.8302 1.71471 3.8302 3.83021s-1.7149 3.8303-3.8302 3.8303zm3.9817-6.91682c-.4944 0-.8952-.40079-.8952-.89513s.4008-.89512.8952-.89512c.4943 0 .8951.40078.8951.89512-.0002.49434-.4008.89513-.8951.89513z"/><path d="m15.4764 12.99c0 1.3732-1.1132 2.4864-2.4864 2.4864s-2.4863-1.1132-2.4863-2.4864 1.1131-2.4863 2.4863-2.4863 2.4864 1.1131 2.4864 2.4863z"/><path d="m24.1063 0h-22.23261c-1.034858 0-1.87369.838832-1.87369 1.87369v22.23261c0 1.0349.838832 1.8737 1.87369 1.8737h22.23261c1.0349 0 1.8737-.8388 1.8737-1.8737v-22.23261c0-1.034858-.8388-1.87369-1.8737-1.87369zm-3.7022 16.0653c-.0361.794-.1623 1.3361-.3467 1.8106-.3875 1.002-1.1795 1.794-2.1815 2.1815-.4743.1844-1.0166.3104-1.8104.3467-.7955.0363-1.0496.045-3.0753.045-2.0259 0-2.2798-.0087-3.07545-.045-.79384-.0363-1.33615-.1623-1.81047-.3467-.49791-.1873-.94864-.4808-1.32128-.8604-.37938-.3724-.67293-.8234-.86024-1.3211-.18433-.4743-.31059-1.0166-.34667-1.8104-.03667-.7957-.04519-1.0498-.04519-3.0755s.00852-2.2798.04499-3.07525c.03608-.79404.16214-1.33615.34648-1.81067.18731-.49771.48106-.94864.86063-1.32108.37244-.37957.82337-.67313 1.32108-.86044.47452-.18433 1.01663-.31039 1.81067-.34667.79545-.03627 1.04955-.04499 3.07525-.04499s2.2798.00872 3.0753.04519c.794.03608 1.3361.16214 1.8106.34628.4977.18731.9487.48106 1.3213.86063.3794.37264.6731.82337.8602 1.32108.1846.47452.3106 1.01663.3469 1.81067.0363.79545.0448 1.04955.0448 3.07525s-.0085 2.2798-.045 3.0753z"/></g></svg>