<svg fill="none" height="19" viewBox="0 0 32 19" width="32" xmlns="http://www.w3.org/2000/svg"><path clip-rule="evenodd" d="m32 5.30009c0 3.42339-1.165 6.44331-3.495 9.06001-2.33 2.6171-4.9854 3.9257-7.9666 3.9257-.7733 0-1.3698-.1658-1.789-.4969-.42-.3316-.6294-.9162-.6294-1.7558 0-.9938.2427-1.9433.7285-2.8487 1.5019.3533 2.8706.2929 4.108-.1822 1.2365-.4748 1.9651-1.8496 2.1864-4.12443-1.281-.33116-2.2033-.86637-2.7661-1.6068-.5631-.73965-.8449-1.61751-.8449-2.63358 0-1.39126.4854-2.51184 1.4575-3.36214.9716-.84991 2.2634-1.27525 3.8759-1.27525 1.6566 0 2.9261.441802 3.8097 1.32502.8828.88361 1.325 2.20863 1.325 3.97507zm-18.1533 0c0 3.42339-1.1596 6.44331-3.4781 9.06001-2.3193 2.6171-4.98045 3.9257-7.98348 3.9257-.75114 0-1.33651-.1658-1.755724-.4969-.41998-.3316-.629396-.9162-.629396-1.7558 0-.9938.231621-1.9433.695245-2.8487 1.524105.3533 2.898895.2929 4.124375-.1822 1.22587-.4748 1.94868-1.8496 2.16996-4.12443-1.25879-.33116-2.16996-.86637-2.73312-1.6068-.56316-.73965-.84455-1.61751-.84455-2.63358 0-1.39126.48544-2.51184 1.45748-3.36214.97166-.84991 2.26338-1.27525 3.87592-1.27525 1.65619 0 2.92029.441802 3.79279 1.32502.8722.88361 1.3086 2.20863 1.3086 3.97507z" fill="#000928" fill-rule="evenodd"/></svg>