<svg fill="none" height="48" viewBox="0 0 52 48" width="52" xmlns="http://www.w3.org/2000/svg" xmlns:xlink="http://www.w3.org/1999/xlink"><filter id="a" color-interpolation-filters="sRGB" filterUnits="userSpaceOnUse" height="48" width="51.451" x="0" y="0"><feFlood flood-opacity="0" result="BackgroundImageFix"/><feColorMatrix in="SourceAlpha" type="matrix" values="0 0 0 0 0 0 0 0 0 0 0 0 0 0 0 0 0 0 127 0"/><feOffset/><feGaussianBlur stdDeviation="1"/><feColorMatrix type="matrix" values="0 0 0 0 0 0 0 0 0 0 0 0 0 0 0 0 0 0 0.25 0"/><feBlend in2="BackgroundImageFix" mode="normal" result="effect1_dropShadow"/><feBlend in="SourceGraphic" in2="effect1_dropShadow" mode="normal" result="shape"/></filter><clipPath id="b"><path d="m2 2h47.451v44h-47.451z"/></clipPath><g clip-path="url(#b)" fill="#ebf02c" filter="url(#a)"><path d="m29.1742 38.916c0 .407-.12.759-.3492 1.045s-.5566.495-.9931.649l1.9425 2.343h-1.506l-1.6588-2.123h-.382v2.112h-1.2114v-5.808h1.7243c.3602 0 .6876.033.9822.11.2947.077.5566.187.7749.33s.382.33.502.55c.12.231.1746.495.1746.792zm-1.2005.022c0-.297-.12-.506-.3492-.649-.2292-.132-.5347-.198-.8949-.198h-.502v1.815h.3602c.4147 0 .753-.077 1.004-.242s.3819-.407.3819-.726z"/><path d="m30.3856 37.145h3.4595v.968h-2.2481v1.408h2.139v.968h-2.139v1.496h2.27v.968h-3.4814z"/><path d="m40.1747 42.953h-1.255l-.4038-1.221h-2.3682l-.4038 1.221h-1.255l2.1826-5.808h1.3096zm-2.8484-4.829-.8621 2.64h1.7243z"/><path d="m40.9387 37.145h1.7352c.502 0 .9713.077 1.3751.22.4147.143.7639.352 1.0586.605.2947.264.5129.561.6766.924.1637.352.2401.737.2401 1.155s-.0764.803-.2401 1.155-.3819.66-.6766.924-.6439.462-1.0586.605-.8731.22-1.3751.22h-1.7352zm1.768 4.84c.3055 0 .5893-.044.8512-.132s.4802-.209.6657-.385c.1855-.165.3274-.374.4366-.605.1091-.242.1527-.506.1527-.814s-.0545-.572-.1527-.814c-.1092-.242-.2511-.44-.4366-.605s-.4147-.297-.6657-.385c-.2619-.088-.5457-.132-.8512-.132h-.5566v3.872z"/><path d="m49.4511 39.73h-.1965c-.2946 0-.5347.044-.7312.143-.1964.088-.3492.231-.4692.396v2.684h-1.1896v-4.246h1.1459v.748c.0764-.253.2074-.44.382-.583s.4147-.209.7093-.209c.131 0 .2511.011.3493.044z"/><path d="m7.21655 9.37v-2.42h9.23265v2.42zm.68754 4.026v-2.189h7.86851v2.189zm0 4.147v-2.189h7.86851v2.189zm.56749-12.43v-2.189h6.84262v2.189zm8.32682 24.508c-.0764-.154-.2292-.462-.4583-.924-.1528-.462-.3056-.803-.4584-1.034 2.3573-.539 4.7909-1.078 7.2901-1.606l.9167 1.606c-2.2809.77-4.7145 1.419-7.2901 1.958zm-.2292-24.057v-1.837h7.4102v-1.727h2.8483v1.727h7.6394v1.837h-7.6394v1.386h6.4935v1.606h-15.8462v-1.606h6.4935v-1.386zm.3384 8.866v-4.598h16.981v4.598zm.7966 11.396v-10.131h15.3878v10.131zm1.5934-14.619v1.727h2.6192v-1.727zm1.0258 6.105v1.386h10.1385v-1.386zm0 2.761v1.265h10.1385v-1.265zm0 2.761v1.265h10.1385v-1.265zm3.6451-11.627v1.727h2.8483v-1.727zm10.1493 18.414c-1.9753-.385-4.5181-1.078-7.6393-2.068l.9167-1.727c2.5101.616 5.0202 1.188 7.5193 1.727zm-2.51-18.414h-2.8484v1.727h2.8484z"/><path d="m8.01318 19.49v9.669h7.63932v-9.669zm5.47852 7.579h-3.1976v-5.269h3.1866v5.269z"/><path d="m23.5865 32.129-10.6732 7.414v-7.414h-8.06493v-30.129h-2.84837v33h7.82483v11l15.42047-11h24.2057v-2.871z"/><path d="m49.451 7.258h-5.2166v-5.258h-2.8484v5.258h-5.2274v2.871h5.2274v5.258h2.8484v-5.258h5.2166z"/></g></svg>