<svg fill="none" height="26" viewBox="0 0 27 26" width="27" xmlns="http://www.w3.org/2000/svg"><path clip-rule="evenodd" d="m.333374 2c0-1.104569.895426-2 1.999996-2h21.98463c1.1046 0 2 .895429 2 2v21.9847c0 1.1045-.8954 2-2 2h-21.98463c-1.10457 0-1.999996-.8955-1.999996-2zm20.607926 7.80764c0-.15423-.0032-.30738-.0091-.45996.2234-.17589 1.6054-1.28352 1.9441-1.9955 0 0-1.1223.46641-2.2277.57679 0 0 .0006-.00033.0018-.00107.001-.00061.0024-.00149.0041-.00269.1012-.06762 1.5162-1.03076 1.7077-2.17847 0 0-.7938.4237-1.9052.79437-.184.06112-.3766.12122-.5752.17693-.7164-.76461-1.7348-1.24185-2.8651-1.24185-2.1683 0-3.9252 1.75643-3.9252 3.92298 0 .30573.0352.60333.1017.88903-.303-.0125-4.917-.2711-8.05593-4.07238 0 0-1.87599 2.56106 1.11795 5.19458 0 0-.91017-.0363-1.69531-.5054 0 0-.28839 3.1027 3.10216 3.896 0 0-.66717.2527-1.73151.0725 0 0 .5952 2.5069 3.60756 2.7412 0 0-2.38146 2.1513-5.7622 1.6471 1.72934 1.0968 3.78066 1.7315 5.97972 1.7315 6.17776 0 11.18566-5.0084 11.18566-11.18566z" fill="#4a4a4a" fill-rule="evenodd"/></svg>