<svg fill="none" height="24" viewBox="0 0 24 24" width="24" xmlns="http://www.w3.org/2000/svg" xmlns:xlink="http://www.w3.org/1999/xlink"><mask id="a" height="6" maskUnits="userSpaceOnUse" width="10" x="7" y="10"><path clip-rule="evenodd" d="m7 10h9.9782v5.6955h-9.9782z" fill="#fff" fill-rule="evenodd"/></mask><path d="m12 24c6.6274 0 12-5.3726 12-12 0-6.62742-5.3726-12-12-12-6.62742 0-12 5.37258-12 12 0 6.6274 5.37258 12 12 12z" fill="#f5ebff" fill-opacity=".5"/><g mask="url(#a)"><path clip-rule="evenodd" d="m16.7931 10.1878c-.1233-.1252-.2695-.1878-.4385-.1878h-8.73079c-.16901 0-.31512.0626-.43857.1878-.12341.1254-.18512.2737-.18512.4451s.06171.3196.18512.4449l4.36546 4.4297c.1236.1253.2697.188.4386.188.1688 0 .3151-.0627.4384-.188l4.3654-4.4297c.1233-.1253.1853-.2735.1853-.4449s-.062-.3197-.1853-.4451z" fill="#04295e" fill-rule="evenodd"/></g></svg>