<svg viewBox="0 0 460 352" xmlns="http://www.w3.org/2000/svg"><g fill="#ded120"><path d="m349.68 105.13s4.51 17.31 31.89 14.61 65-5.84 74.47 22-1.52 39.57-10 46.94-31.36 10.35-51.31 4.49-43.62-25.6-60.78-6.35z"/><path d="m157.33 251.83s-19.13-6-32 19.81-46.57 76.12-72.64 79.06-62-13.51-50-51.76 56.48-61.24 71.31-68.94 30.82-16.44 30-33.42z"/><path d="m82.42 143.81s-8.83-15.3-29.66-14.31-30-25.84-16.27-45.28 25.76-16.22 37.44-10.75 24.9 2 28.82-.75z"/></g><g fill="#fff" stroke="#69cad2" stroke-miterlimit="10"><path d="m346 92.41s11.43 15.5 20.46 16.11 26 .61 29.94 9.94 4.8 29.79-2.73 40.62-15.81 15.92-22.43 13.24-23.47-5-35.66 7.81z" stroke-width=".87"/><g stroke-width="2"><path d="m97.34 188.59s6.47 18.21-1.58 26-19.52 16.63-19.71 27.94 10.95 22.8 18.74 28.59 19 12.77 30.47 3.92 17.45-28 38.84-22z"/><path d="m109.31 66.26s-1.31 7.74-12.08 9.05-18.54 16.16-21.91 36.84-3.12 27.31 5.35 32.32 8.72 11.63 8.72 11.63z"/><circle cx="220.69" cy="137.94" r="135.95" transform="matrix(.8660254 -.5 .5 .8660254 -39.4 128.83)"/></g></g></svg>