<svg viewBox="0 0 662 350" xmlns="http://www.w3.org/2000/svg"><g fill="#ded120"><path d="m400.95 170.56s2.46-26.83 76.88-22.56 194.88-24.64 183.28-98-107.66-44.18-150.53-26.23-106.23 79.08-135.35 58.09c0 0 28.48 25.26 25.72 88.7z"/><path d="m99.64 132s-13.64 28.14-48.71 24.24-60.29 53.76-47.4 75.56 37.07 28.8 62 14.68c26.34-14.89 28.44-13.41 47.17-4.29z"/><path d="m334.55 314s21.32 0 32.85 22.36 45.08 15.64 57.13-10.36 1.39-36.69-11.36-45.6-17.13-24.81-16.6-30.57z"/></g><g fill="#fff" stroke="#69cad2" stroke-miterlimit="10" stroke-width="2"><path d="m417.16 178.62s-2.08-24.32 26-32.23 33.38-25.45 33.12-35.29c-.27-10.39-11.73-37-23.65-40.24s-19-.21-27.87 3.6-28.11 7.91-36.24-1.19z"/><path d="m399.36 239.08s-7.34 6-2.17 18.08-5.7 29.12-25.28 45.12-26.66 19.73-37 13.91-17.42-2.09-17.42-2.09z"/><path d="m97.87 134.69s3.85 5.48-18.93 15.19-28.48 21.83-23 46.54 9 26.34 26.1 28.74 24.77 13.36 24.77 13.36z"/><circle cx="255.15" cy="165.18" r="164.04"/></g></svg>