<svg viewBox="0 0 246 420" xmlns="http://www.w3.org/2000/svg"><path d="m66 142.85s16.75-8.73-9.56-36.9-45.5-84.12 6.07-100.74 62.9 29.79 64.72 51.87-18.08 64.84 4.83 70.27c0 0-25.5-3.94-66.06 15.5z" fill="#ded120"/><path d="m201.24 320.47s-12.86 19 2.49 39.9-12.09 58.15-30.68 57.94-32-13-32.15-34.1c-.2-22.24-1.92-23-14.6-31.6z" fill="#ded120"/><g fill="#fff" stroke="#69cad2" stroke-miterlimit="10" stroke-width="2"><path d="m54.91 135.48s16.24-7.62 11-28.42 3.88-30.6 10.24-34.06c6.71-3.64 27.85-6.12 34.31.26s7.12 12 7.95 19.06 5.29 20.8 14.08 22.63z"/><path d="m200.21 322.58s-4.9-.44-2.72 17.63-3.43 26.15-21.18 31.72-20.08 3.94-27.88-6.05-17.6-10.88-17.6-10.88z"/><circle cx="123" cy="233.67" r="120.56" transform="matrix(.8660254 -.5 .5 .8660254 -100.36 92.81)"/></g></svg>