<svg viewBox="0 0 476 480" xmlns="http://www.w3.org/2000/svg"><path d="m326.56 50.84s14.44 14.65 40.2-3.84 61.45-43.2 86.91-20.89 21.26 40.33 17.1 52.53-25.31 28.37-48.57 34-58.23-.41-64.26 28.66z" fill="#373d5d"/><path d="m363.26 205s-2.11 29.74 28.71 43.24 24.15 73.22 3.12 85.05-44.37 6.11-58.27-17.47c-14.66-24.88-17.1-24.64-36.93-26.05z" fill="#ded120"/><path d="m219.23 307.82s-22.51 5-20.52 38.18-2.6 102.69-26.9 120.63-69.57 22.21-79.66-22.82 21.06-93.57 31.44-109.75 21.27-34.13 10.66-50.58z" fill="#373d5d"/><path d="m82.37 243.24s-17.62-10.17-37.82 2.76-44.75-8.47-42.28-35.74 16.35-31 31.14-32.26 26-12.33 28.31-17.34z" fill="#f16e6d"/><g fill="#fff" stroke="#69cad2" stroke-miterlimit="10" stroke-width="2"><path d="m315.57 40.28s20.32 8.88 29.67 4.29 26.31-14.37 35.57-7.32 21.94 26.94 20.67 42.07-6.58 25-14.74 26.1-26.26 8.55-31.06 28.31z"/><path d="m123 279.3s16.94 14.43 13.39 26.82-9.88 27.82-3.57 39.2 24 16.46 35.14 17.73 26.3 1.79 32.64-13.63 1.29-37.94 26.08-44.24z"/><path d="m64.53 150.45s3.21 8.46-6.84 16-9.18 26.78-.63 49.34 12.61 29 23.94 29.14 15.39 6.58 15.39 6.58z"/><path d="m363.47 208s-5.79 2.69 8.39 21.59 13.14 31.64-3.22 49.41-20 17.46-35.28 11.3-26.84-.78-26.84-.78z"/><circle cx="218.96" cy="158.18" r="156.52" transform="matrix(.5 -.8660254 .8660254 .5 -27.51 268.71)"/></g></svg>