<svg viewBox="0 0 650 540" xmlns="http://www.w3.org/2000/svg"><path d="m199.22 246.79s6.48-31.17-60.58-29-164.04-35.87-130.17-120.37 109.26-47.16 141.31-24.76 68.22 95.58 100.73 72.34c0 0-33.27 28.2-51.29 101.79z" fill="#ded120"/><path d="m460.9 93.41s24.1 11.42 47.19-22.41 55.56-79.75 96.38-63.9 43.69 39.61 44 56.28-18.21 45.68-44 62.83-71 25.26-65.42 63.27z" fill="#f16e6d"/><path d="m334 464.79s-30.48 7.29-39.38 43.06-59.12 37.79-85.18 4.87-14.44-51.72.8-68.78 16.07-41.17 13.37-49.19z" fill="#373d5d"/><g fill="#fff" stroke="#69cad2" stroke-miterlimit="10" stroke-width="2"><path d="m177.79 253.1s7.74-29.12-24.74-44.76-35.12-38.09-32.7-50c2.56-12.57 22.18-42.43 37.37-43.85s23.15 3.81 33.1 10.35 32.47 15.64 44.3 6.32z"/><path d="m442.87 85.43s28.63 1.8 38-7.92 25.62-29.11 40-24.64 38.59 23 43.73 42 3.06 33.29-6.37 38.25-28.23 22.02-25.23 48.17z"/><path d="m230.53 408.12s10.07 4.75 9.83 20.75 18.1 32.7 45 45.38 35.69 14.84 43.88 4.61 17-8.07 17-8.07z"/><circle cx="377.6" cy="271.49" r="202.46" transform="matrix(.17364818 -.98480775 .98480775 .17364818 44.66 596.21)"/></g></svg>