<svg viewBox="0 0 430 350" xmlns="http://www.w3.org/2000/svg"><path d="m315.93 266.67s-23.3 11.33-20.07 40.33-44.59 50-62.63 39.28-23.87-30.72-12.17-51.42c12.34-21.83 11.11-23.57 3.56-39.09z" fill="#ded120"/><path d="m176 203s-13.57-14.75-37.63 1.15-78.37 42.63-102.37 32.14-47-42.69-17.47-69.83 79.53-24.79 96.21-24 34.91 1.18 42.68-13.95z" fill="#ded120"/><g fill="#fff" stroke="#69cad2" stroke-miterlimit="10" stroke-width="2"><path d="m155.68 118.22s-3.5 19-14.36 21.72-25.22 4.64-31 14.34-1.95 25.21 1.93 34.14 10.03 20.58 24.38 18.58 29.1-15.51 44.61.41z"/><path d="m313.73 268.14s-4.54-3.19-12.59 15.69-18.09 23.6-38.57 19-21.83-7.48-23.82-21.63-11.07-20.53-11.07-20.53z"/><circle cx="288.46" cy="137.79" r="135.95"/></g></svg>