<svg viewBox="0 0 500 450" xmlns="http://www.w3.org/2000/svg"><path d="m362.52 345s-29.25 14.23-25.19 50.7-56 62.75-78.64 49.33-30-38.58-15.28-64.58c15.5-27.42 14-29.59 4.47-49.09z" fill="#f16e6d"/><path d="m186.81 265s-15.36-18.94-40.82-.16-83.32 49.78-109.88 35.7-52.77-55.14-21.89-87.69 85.33-27.51 103.48-25.83 38 2.94 45.76-15.56z" fill="#373d5d"/><path d="m173.18 100.53s0-22.18-23.27-34.19-16.36-46.91 10.73-59.46 38.19-1.45 47.46 11.83 25.82 17.82 31.82 17.29z" fill="#ded120"/><g fill="#fff" stroke="#69cad2" stroke-miterlimit="10" stroke-width="2"><path d="m161.28 158.6s-4.39 23.87-18 27.27-31.67 5.83-39 18-2.45 31.66 2.42 42.87 12.66 25.82 30.68 23.4 36.54-19.47 56 .51z"/><path d="m251.1 33.08s-6.24 7.64-18.82 2.26-30.31 5.93-47 26.31-20.54 27.74-14.47 38.51 2.19 18.12 2.19 18.12z"/><path d="m359.76 346.86s-5.7-4-15.81 19.7-22.72 29.64-48.43 23.91-27.41-9.39-29.91-27.16-13.9-25.78-13.9-25.78z"/><circle cx="328.02" cy="183.17" r="170.72"/></g></svg>