<svg viewBox="0 0 280 450" xmlns="http://www.w3.org/2000/svg"><path d="m105.71 315.31.82.22a17.57 17.57 0 0 1 -1.53 1.26h6.18v.71q-3.83 3.56-11.43 5.47c0-.11-.11-.29-.22-.55-.07-.07-.11-.13-.11-.16q6.94-1.64 10.72-4.76h-6l-.77.49a21.62 21.62 0 0 1 2.24 1.48l-.49.55-1-.71q-.82-.6-1.31-.93-.44.27-1.48.82a7.44 7.44 0 0 0 -.77.38 3.45 3.45 0 0 0 -.44-.66 18.21 18.21 0 0 0 5.59-3.61zm1.64 5.36.66.38q-.66.55-1.31 1h5.09v.77q-3.94 4.38-11.81 5.74l-.16-.33c-.07-.18-.13-.31-.16-.38q7.38-1.15 11.21-5.14h-5.14a6.77 6.77 0 0 1 -1.26.82q.44.33 1.31.93.55.38.82.6l-.55.55a21.49 21.49 0 0 0 -2.24-1.7 25.65 25.65 0 0 1 -3 1.42l-.44-.71a23.52 23.52 0 0 0 6.98-3.95z"/><path d="m113.31 320.4h12.91v.71h-4.32v5.14q-.11 1.15 1.09 1h1q1.26.05 1.42-1a6.48 6.48 0 0 0 .16-1.37 1.51 1.51 0 0 0 .05-.33q.33.11.77.22a.91.91 0 0 1 -.05.27 7 7 0 0 1 -.16 1.31 1.76 1.76 0 0 1 -2.13 1.64h-1.2q-1.75.05-1.7-1.59v-5.36h-3.15a4.44 4.44 0 0 1 -.05.88 6.32 6.32 0 0 1 -4 6.56 4.38 4.38 0 0 0 -.55-.66 7 7 0 0 0 3-2.3 6.62 6.62 0 0 0 .82-3.55 4.87 4.87 0 0 0 .05-.93h-3.94zm1.31-4h10.38v.71h-10.38z"/><path d="m127.69 317.78h1.42q.44-1.31.66-2.24l.77.16q-.33 1.09-.66 2.08h2.79v10.5h-.77v-1.09h-3.5v1.2h-.71zm.71.66v3.72h3.5v-3.72zm0 4.38v3.77h3.5v-3.77zm5.47-2.08a2.4 2.4 0 0 1 -.33-.22l-.33-.16a21.22 21.22 0 0 0 2.08-4.81l.77.16q-.33 1-.77 2h4.54v.88q-.11 4.87-.27 7.49.05 2.13-2.35 2.19h-2.13a.42.42 0 0 0 -.05-.16 1.53 1.53 0 0 0 -.16-.6q.76.05 2.24.05 1.75.05 1.75-1.59.11-1.37.16-5.74.05-1.26.05-1.8h-4a22 22 0 0 1 -1.2 2.3zm.6.66.55-.44c.07.11.18.26.33.44q1.2 1.48 1.86 2.46l-.6.44q-1.04-1.55-2.14-2.92z"/><path d="m141.47 324.56a1.62 1.62 0 0 0 -.38-.49 9.08 9.08 0 0 0 2-2.84l.6.22-.16.33a1.85 1.85 0 0 1 -.27.44h2l.44-1 .6.16-.38.82h2.57v.55h-2.62v1.15h2.46v.55h-2.46v1.2h2.46v.55h-2.46v1.09h2.57v.55h-5.54v.77h-.66v-4.92a4.41 4.41 0 0 1 -.77.87zm-.16-7.87h2.41v-1h.6v2.46h-.6v-.87h-2.41zm.49 1.91h2.79v2.35h-2.79zm.6.55v1.26h1.6v-1.26zm.49 3.61v1.15h2.24v-1.15zm0 1.7v1.2h2.24v-1.2zm0 1.75v1.09h2.24v-1.1zm2.57-7.6h2.79v2.35h-2.79zm.27-3h.66v1h2.08v.55h-2.07v.88h-.66zm.33 3.5v1.26h1.59v-1.26zm3.06-3h4.43v8h-1.09v2.89q0 .71.44.66h.27q.49.05.55-.6a13.48 13.48 0 0 0 .11-1.48 1.91 1.91 0 0 0 .6.11 14 14 0 0 1 -.11 1.59 1.05 1.05 0 0 1 -1.15 1h-.27q-1.15.05-1.09-1.26v-2.84h-1.09v.16a4 4 0 0 1 -2 4.16 1.56 1.56 0 0 1 -.16-.22 3.14 3.14 0 0 0 -.27-.33 3.46 3.46 0 0 0 1.8-3.66v-.11h-.93zm.66.66v1.8h3.12v-1.8zm0 2.41v1.86h3.12v-1.86zm0 2.46v1.86h3.12v-1.86z"/><path d="m155 328.11a18.89 18.89 0 0 0 .93-2.19l.6.16q-.33.93-.87 2.3a4.92 4.92 0 0 0 -.66-.27zm.55-5.69h2.68v-1.31h-2.57v-4.87h5.74v4.87h-2.52v1.31h2.52v.6h-2.52v1.37q.82-.11 2.35-.22h.44v.6q-.55.06-2.46.16-2.9.22-3.94.33l-.11-.71q1.42 0 3.06-.16v-1.39h-2.68zm.77-5.58v3.66h1.91v-3.66zm.38 1.09.55-.16.16.49a10.15 10.15 0 0 1 .44 1.37l-.55.16c0-.11-.09-.29-.16-.55zm.88 10.17q-.06-.44-.22-1.37a6.25 6.25 0 0 0 -.11-.71l.6-.05a2.29 2.29 0 0 0 .05.44q.22 1.15.27 1.64zm1.8-.16a15.66 15.66 0 0 0 -.55-2l.6-.11a15.61 15.61 0 0 1 .55 2zm1.42-11.1h-1.91v3.66h1.91zm-1.59 2.79a17.61 17.61 0 0 0 .55-1.86l.55.16a11.52 11.52 0 0 1 -.44 1.48 4 4 0 0 1 -.11.44zm2.08 8q-.16-.33-.44-.93t-.44-.93l.55-.22q.49.93.93 1.8zm3.28-12.09h.71v2.9h3v.66h-3v3.34h2.52v6.07h-.71v-.82h-4v.82h-.71v-6.07h2.24zm-1.53 7.55v3.91h4v-3.94z"/><path d="m177.9 317.06v-.66h3.34v8h1v.66h-12.93v-.66h1v-7.66a15.09 15.09 0 0 0 2.84-.93l.38.55a11.71 11.71 0 0 1 -2.57.82v1.91h2.57v.6h-2.53v2h2.63v.6h-2.63v2.08h3.39v-3.12h.66v3.12h1.75v-3.94h-2.4v-4.87h.66v1.75h2.57v.6h-2.57v1.91h2.41v4.54h3.12v-2.08h-2.3v-.6h2.3v-2h-2.3v-.6h2.3v-2.08zm-4.1 8.8.49.66q-2.9 1.37-4.37 2a1.88 1.88 0 0 0 -.33-.49.65.65 0 0 0 -.11-.16 32.9 32.9 0 0 0 4.31-2zm7.88 2.63a38.38 38.38 0 0 0 -4.48-1.91l.44-.66 1.53.66q2 .82 2.9 1.26z"/><path d="m183.26 318h4.21v.6h-4.21zm.44 1.91h3.39v.6h-3.39zm0 2h3.39v.6h-3.39zm0 2h3.39v4.48h-.66v-.87h-2.08v.88h-.66zm3.06-7.16h-2.76v-.6h2.73zm-2.41 7.77v2.48h2.08v-2.52zm4-5.63h3.23v-1.15h-3.58v-.55h2.41l-.33-.33a6.45 6.45 0 0 0 -.93-.87l.49-.49a11.83 11.83 0 0 1 1.42 1.31l-.44.38h2.57l-.38-.38q.87-.76 1.42-1.31l.55.44-.71.66-.66.6h2.68v.55h-3.77v1.15h3.28v.6h-3.28v1.09h3.94v.6h-8.48v-.6h3.88v-1.09h-3.26zm4.1 2.68h.66q0 .77.11 2.19h3v.6h-3a10.72 10.72 0 0 0 .38 1.75 8.57 8.57 0 0 0 1.48-1.37l.49.44a13.81 13.81 0 0 1 -1.75 1.59 1.16 1.16 0 0 0 .22.27 2.9 2.9 0 0 1 .16.27q.27.49.66.44t.6-.66a3.73 3.73 0 0 0 .16-.6 3.39 3.39 0 0 1 .11-.55l.44.22a.15.15 0 0 0 .11.05 5 5 0 0 1 -.22 1.15q-.27 1.15-1.15 1.09a1.23 1.23 0 0 1 -1.09-.6 2.68 2.68 0 0 1 -.55-.82 12.11 12.11 0 0 1 -1.8 1l-.38.16a2.47 2.47 0 0 0 -.38-.6 9.7 9.7 0 0 0 2.3-1.09 11.44 11.44 0 0 1 -.44-2.19h-2.19v1.15l.82-.16q.49-.05.77-.11v.6l-.93.16a6.22 6.22 0 0 0 -.66.11v.82q.05 1.48-1.37 1.48h-.93a2.08 2.08 0 0 0 -.11-.66q.55.05.88.05.93.05.88-.93v-.71q-1.42.22-1.91.33l-.11-.66 2-.27v-1.2h-2.08v-.6h2.08v-1q-.82.06-1.7.05a2.35 2.35 0 0 0 -.05-.38.47.47 0 0 1 -.05-.22q1.48 0 3.88-.22l.11.6h-.16a8.27 8.27 0 0 1 -1.37.11v1.09h2.13q0-1.21 0-2.25zm1.42.49.55-.38q.66.77 1.09 1.2l-.55.44q-.38-.62-1.04-1.32z"/><path d="m197.2 322h6v.6h-2.3v1.75h2.13v.6h-2.13v2.13a7.34 7.34 0 0 0 2.3.33q3.39.16 7.22 0a3.7 3.7 0 0 0 -.27.77h-4.43q-1.42 0-2.62-.05-3.39-.06-4.54-2.08a6.92 6.92 0 0 1 -1 2.46 2.24 2.24 0 0 0 -.56-.51 7.78 7.78 0 0 0 1.15-4.48h.66a6 6 0 0 1 -.05.71 3.64 3.64 0 0 1 -.05.77 4.13 4.13 0 0 0 1.48 1.86v-4.27h-3zm.88-5.91h4.48v4.65h-4.48zm.66.6v1.42h3.12v-1.42zm0 2v1.42h3.12v-1.41zm6.89 6.18.44.55a20.77 20.77 0 0 1 -2.3 1.53l-.44-.55a14 14 0 0 0 2.29-1.52zm-2.08-8.75h6.45v.6h-3.23l-.38 1.53h3.12v6.07h-5.51v-6.07h1.7l.33-1.53h-2.46zm1.15 2.73v1.26h4.1v-1.26zm0 1.8v1.26h4.1v-1.26zm0 1.8v1.26h4.1v-1.26zm4.92 4.38q-1-.66-2.3-1.42l.44-.55q1.2.66 2.3 1.37z"/><path d="m99.47 352.75a3.73 3.73 0 0 0 -.27-.66.15.15 0 0 1 -.05-.11 22.15 22.15 0 0 0 2.9-6.45l.77.16q-.6 1.8-1.26 3.34v9.57h-.71v-8.09a26 26 0 0 1 -1.38 2.24zm3.45-5.36h4.27v-1.86h.71v1.86h4.43v.61h-4.43v1.64h3.72v4h-.71v-.55h-3.06a5.73 5.73 0 0 1 -1 3.17 13.12 13.12 0 0 0 5.41 1.37 4.67 4.67 0 0 0 -.38.71 14.22 14.22 0 0 1 -5.52-1.53 14 14 0 0 1 -3.55 1.7 2.86 2.86 0 0 0 -.33-.49.65.65 0 0 0 -.11-.16 11.59 11.59 0 0 0 3.34-1.53 9.6 9.6 0 0 1 -1.75-2.13l.66-.38a7.66 7.66 0 0 0 1.64 2 5.34 5.34 0 0 0 .93-2.73h-3.66v-3.5h3.72v-1.59h-4.27zm4.21 5.14q.05-.71.05-1.59v-.6h-3v2.19zm.77-1.64v1.64h3v-2.19h-3z"/><path d="m120.47 358.38h-.77v-4.27h-4.32a8.69 8.69 0 0 1 -1.59 4.48 2.27 2.27 0 0 0 -.71-.49 7.67 7.67 0 0 0 1.31-2.79 18.84 18.84 0 0 0 .33-4.16v-4.85h10.83v10.5q.05 1.58-1.7 1.59-.77.05-1.64.05a2.34 2.34 0 0 0 -.16-.82q.55.05 1.64.05t1.09-.93v-2.62h-4.32zm-5-7.22q0 .49-.05 1.31v.93h4.27v-2.84h-4.19zm0-4.16v2.84h4.21v-2.84zm9.3 0h-4.32v2.84h4.32zm-4.32 3.55v2.84h4.32v-2.84z"/><path d="m138.63 346.52.6.44a25.61 25.61 0 0 1 -3 3h4.1v.66h-5a23.69 23.69 0 0 1 -3 1.8h5.69v6.18h-.71v-.82h-6.61v.82h-.77v-5q-1.15.49-2.46 1c0-.07-.09-.2-.16-.38a2.4 2.4 0 0 1 -.22-.33 31.07 31.07 0 0 0 7-3.23h-6.78v-.66h5.25v-2h-3.88v-.66h3.88v-1.75h.77v1.75h3.34v.66h-3.34v2h1.67a22.61 22.61 0 0 0 3.63-3.48zm-7.55 6.48a.42.42 0 0 0 -.16.05.61.61 0 0 0 -.22.11v1.59h6.67v-1.75zm-.38 2.41v1.64h6.67v-1.64z"/><path d="m142 348.43h5.36v-3h.77v3h5.36v6h-.77v-.77h-4.59v5h-.77v-5h-4.59v.77h-.77zm.77.71v3.77h4.59v-3.77zm10 0h-4.59v3.77h4.59z"/><path d="m156.62 349.63.77.22q-.71 2.73-1.42 5.36a5.5 5.5 0 0 0 -.82-.27 47.73 47.73 0 0 0 1.47-5.31zm2-1.53h.82v7.9q-.06 1.37 1.37 1.31h2.68q1.42.05 1.64-1.15a14.87 14.87 0 0 0 .27-1.86l.44.11.38.16q-.06.6-.22 1.48a3.6 3.6 0 0 1 -.11.55q-.33 1.48-2.3 1.48h-3a1.72 1.72 0 0 1 -2-1.91zm4.32 1.48q-.77-1.42-2.24-3.77l.71-.38q.16.27.49.77.76 1.15 1.8 3zm4.65 4.81q-1.09-2.52-2.24-4.81l.77-.33q.22.49.77 1.53 1 2.13 1.53 3.23z"/><path d="m169.69 347.78h1.42q.44-1.31.66-2.24l.77.16q-.33 1.09-.66 2.08h2.79v10.5h-.77v-1.09h-3.5v1.2h-.71zm.71.66v3.72h3.5v-3.72zm0 4.38v3.77h3.5v-3.77zm5.47-2.08a2.4 2.4 0 0 1 -.33-.22l-.33-.16a21.22 21.22 0 0 0 2.08-4.81l.77.16q-.33 1-.77 2h4.54v.88q-.11 4.87-.27 7.49.05 2.13-2.35 2.19h-2.13a.42.42 0 0 0 -.05-.16 1.53 1.53 0 0 0 -.16-.6q.76.05 2.24.05 1.75.05 1.75-1.59.11-1.37.16-5.74.05-1.26.05-1.8h-4a22 22 0 0 1 -1.2 2.3zm.6.66.55-.44c.07.11.18.26.33.44q1.2 1.48 1.86 2.46l-.6.44q-1.04-1.55-2.14-2.92z"/><path d="m183.2 347.94h4.92v.66h-4.92zm.38 1.91h4.1v.66h-4.1zm0 1.91h4.1v.66h-4.1zm5 .77v-.66h6.56v.71a13.31 13.31 0 0 1 -2.46 3.61 13.5 13.5 0 0 0 3.66 1.53 5.33 5.33 0 0 0 -.44.71 19.31 19.31 0 0 1 -3.83-1.75 16.51 16.51 0 0 1 -4 1.86l-.22-.38a2.53 2.53 0 0 1 -.22-.33v.27h-.63v-.87h-2.68v.88h-.71v-4.43h4v4.16a14.4 14.4 0 0 0 3.83-1.64 7.9 7.9 0 0 1 -2.3-3.66zm-1.31-5.8h-3.27v-.6h3.34zm-3 7.6v2.41h2.73v-2.41zm10.34-4.43h.11a.54.54 0 0 0 .6-.55 3.75 3.75 0 0 0 .11-.6 1.51 1.51 0 0 0 .05-.33 6.51 6.51 0 0 0 .66.22 4.5 4.5 0 0 1 -.05.55 2.61 2.61 0 0 0 -.05.33 1.17 1.17 0 0 1 -1.31 1.09h-.27q-1.31.06-1.26-1.48v-2.3h-2.57a8 8 0 0 1 -.33 2.79 3.59 3.59 0 0 1 -1.42 1.64 3 3 0 0 0 -.6-.55 3.22 3.22 0 0 0 1.72-3.21v-1.31h4v2.81q-.08 1 .69.91zm-.27 2.63h-4.34a7.09 7.09 0 0 0 2.08 3.17 9.19 9.19 0 0 0 2.33-3.17z"/><path d="m202.89 348.7h-5.74v-.7h5.74zm-.49 2h-4.81v-.7h4.81zm0 2h-4.81v-.7h4.81zm-4.65 5.74v-4.44h4.54v4.32h-.71v-.66h-3.12v.71zm4.32-11.65h-4.16v-.66h4.16zm-3.61 7.93v2.28h3.12v-2.35zm7.93-9.19h.71v4.81h3.28v.66h-3.28v7.55h-.71v-7.55h-3.28v-.71h3.28z"/><path d="m102.65 388.55h-.77v-7.22a27 27 0 0 1 -2.3 2.24 6.37 6.37 0 0 0 -.49-.6 19 19 0 0 0 4.43-5h-3.94v-.66h4.32q.49-.87.93-1.86l.77.16a15 15 0 0 1 -.87 1.7h7.44v.69h-7.82a12.86 12.86 0 0 1 -1.26 1.86h7.49v6.95q.05 1.48-1.64 1.48-.71.05-1.91.05a1.35 1.35 0 0 0 -.22-.77h2q1.09.05 1-.87v-1.2h-7.16zm0-8v1.8h7.16v-1.8zm0 2.46v1.86h7.16v-1.87z"/><path d="m113.36 380.35h2.08v-2.25h-1.75v-.6h1.75v-2h.66v2h1.53v.6h-1.53v2.24h1.9v.6h-1.48v2.19h1.31v.6h-1.31v3a6.33 6.33 0 0 0 3.55.66h2q3.23.05 4.38 0a2.15 2.15 0 0 0 -.27.71h-1.64q-3.61.05-4.65 0-3.94.05-5.25-2.62a7.79 7.79 0 0 1 -1 3 2.89 2.89 0 0 0 -.64-.48 8 8 0 0 0 .93-2.41 20 20 0 0 0 .22-3.45h.66q0 1.26-.05 2.24a6.55 6.55 0 0 0 1.09 1.75v-5.2h-2.46zm4.38 5-.11-.71.93-.16v-7.87h-.77v-.61h8.26v.6h-4.32v10.23h-.66v-2.08l-2.79.49a3.6 3.6 0 0 0 -.54.14zm1.48-8.75v2.13h1.86v-2.13zm0 2.73v2.13h1.86v-2.13zm0 5.09.93-.16.93-.16v-2h-1.86zm3.39-5.63v-.6h3.23v.66a19.85 19.85 0 0 1 -1.15 4.48q.22.44.6 1.31t.71 1.48l-.6.33q-.11-.22-.27-.6-.27-.71-.77-1.75a18.8 18.8 0 0 1 -1.64 2.57 4.58 4.58 0 0 1 -.49-.44 12 12 0 0 0 1.8-2.84q-.55-1.2-1.53-3.12l.55-.22q.66 1.31 1.31 2.52a16.12 16.12 0 0 0 .82-3.77z"/><path d="m133.16 384.83q-2.57-2.52-3.61-7.6h-1.2v-.71h9.84v.77a15.17 15.17 0 0 1 -3.88 7.55 14.38 14.38 0 0 0 6 2.73l-.11.11q-.27.38-.44.66a15.34 15.34 0 0 1 -6-3 19.5 19.5 0 0 1 -6.12 3.12 5 5 0 0 0 -.49-.71 17 17 0 0 0 6.01-2.92zm-2.79-7.6a12.72 12.72 0 0 0 3.39 7.05 13.46 13.46 0 0 0 3.61-7.05z"/><path d="m146.94 386.2-.55.71q-1-.93-1.86-1.64a10.67 10.67 0 0 1 -2.79 3l-.6-.6a8.29 8.29 0 0 0 2.79-2.84 13 13 0 0 0 -1.64-1.31l-.22.71-.77-.22q.76-2.41 1.31-4.92h-1.31v-.71h1.48q.16-.76.44-2.3a5.82 5.82 0 0 1 .11-.66l.77.05a26.48 26.48 0 0 1 -.55 2.9h2.57v.71a16.08 16.08 0 0 1 -1.2 5.47 25.43 25.43 0 0 1 2.02 1.65zm-1.59-7.11h-1.91a35.44 35.44 0 0 1 -.93 3.66q.82.55 1.8 1.31a12.49 12.49 0 0 0 1.05-4.97zm3.83 8.48q1 .05 1-.93v-4.27h-3.78v-.71h3.77v-2.19l2.73-2.35h-6v-.66h6.89v.82l-2.9 2.46v1.91h3.45v.71h-3.45v4.38q.05 1.53-1.64 1.59h-1.59q-.06-.38-.16-.82.86.05 1.69.05z"/><path d="m155.26 386.85-.16-.77 1.42-.38a3.35 3.35 0 0 0 .49-.11v-4h-1.7v-.6h1.69v-3.61h-1.75v-.66h4.27v.66h-1.75v3.61h1.53v.6h-1.53v3.88q.44-.16 1.26-.38l.6-.16a5 5 0 0 0 .05.71q-2.29.56-4.42 1.21zm4.76-6.34h8.2v.71h-3v5.41q-.06.66.82.66h.6q.82.05.88-.66a6.62 6.62 0 0 0 .16-1.59l.71.22q-.11 1.2-.16 1.53a1.29 1.29 0 0 1 -1.53 1.2h-.82q-1.42.05-1.37-1.31v-5.47h-2.08a10.75 10.75 0 0 1 -.71 4.54 6.74 6.74 0 0 1 -2.57 2.84 4.67 4.67 0 0 0 -.6-.6 6.26 6.26 0 0 0 2.52-2.52 10.52 10.52 0 0 0 .6-4.27h-1.67zm.77-3.77h6.67v.71h-6.67z"/><path d="m169.69 377.78h1.42q.44-1.31.66-2.24l.77.16q-.33 1.09-.66 2.08h2.79v10.5h-.77v-1.09h-3.5v1.2h-.71zm.71.66v3.72h3.5v-3.72zm0 4.38v3.77h3.5v-3.77zm5.47-2.08a2.4 2.4 0 0 1 -.33-.22l-.33-.16a21.22 21.22 0 0 0 2.08-4.81l.77.16q-.33 1-.77 2h4.54v.88q-.11 4.87-.27 7.49.05 2.13-2.35 2.19h-2.13a.42.42 0 0 0 -.05-.16 1.53 1.53 0 0 0 -.16-.6q.76.05 2.24.05 1.75.05 1.75-1.59.11-1.37.16-5.74.05-1.26.05-1.8h-4a22 22 0 0 1 -1.2 2.3zm.6.66.55-.44c.07.11.18.26.33.44q1.2 1.48 1.86 2.46l-.6.44q-1.04-1.55-2.14-2.92z"/><path d="m183.26 381.38h1.86v-4.21h-1.42v-.71h7.16v.71h-1.7v4.21h2.13v.62h-2.13v6.45h-.71v-6.45h-2.57q.11 4.43-2.24 6.45a5.28 5.28 0 0 1 -.6-.55 6 6 0 0 0 1.64-2.35 10.7 10.7 0 0 0 .44-3.55h-1.86zm2.63-4.21v4.21h2.57v-4.21zm4.32 10.72a13.64 13.64 0 0 0 5.58-4.32l.6.44a15.35 15.35 0 0 1 -5.69 4.54 4.89 4.89 0 0 1 -.5-.66zm.66-8.91a13.54 13.54 0 0 0 4.38-3.28l.55.49a16.52 16.52 0 0 1 -4.43 3.45 2.19 2.19 0 0 0 -.51-.64zm.16 4.16a14.72 14.72 0 0 0 4.43-3.45l.6.49a17.71 17.71 0 0 1 -4.54 3.55 6.37 6.37 0 0 0 -.52-.6z"/><path d="m204.69 375.48h.77v2.84h4.87v.68h-4.81a26.51 26.51 0 0 0 .27 3.23 12.25 12.25 0 0 0 1.15 4.16q.66 1.37 1.53 1.31.6 0 .88-.82a10.28 10.28 0 0 0 .33-1.75.58.58 0 0 0 .22.11l.49.16a10.89 10.89 0 0 1 -.38 1.7q-.38 1.42-1.53 1.37-1.31.05-2.24-1.8a13.69 13.69 0 0 1 -1.2-4.32q-.16-1.64-.27-3.34h-7.57v-.71h7.55q-.06-1.3-.06-2.82zm-7.27 11.92-.22-.66q.66-.05 2.3-.27.6-.05.88-.11v-4.16h-2.68v-.71h6.13v.71h-2.68v4q1.53-.16 3.28-.44v.71q-1.64.22-5.3.66zm9.3-11.1.55-.49q1.09.88 1.86 1.59l-.55.55a19 19 0 0 0 -1.86-1.65z"/><path d="m100.29 418.38v-10.38h5.14v-2.57h.71v2.57h5.14v10.34h-.77v-.82h-9.46v.82zm.77-9.62v3.72h4.38v-3.72zm0 4.43v3.72h4.38v-3.72zm9.46-4.43h-4.37v3.72h4.38zm-4.37 8.15h4.38v-3.72h-4.37z"/><path d="m113.31 414.61h2.24q.33-.49.66-.93l.66.27-.49.66h4.38v.55h-1.2a5.51 5.51 0 0 1 -1.48 1.75.92.92 0 0 0 .38.05q.66.22 1.64.6l-.44.6-1.7-.71a3.66 3.66 0 0 1 -.6-.22 12.08 12.08 0 0 1 -4 1.37.16.16 0 0 0 -.05-.11 2.14 2.14 0 0 0 -.22-.6 11.34 11.34 0 0 0 3.34-.93 2.48 2.48 0 0 1 -.77-.22 5 5 0 0 0 -.71-.22 1.75 1.75 0 0 0 -.22.27l-.16.16-.6-.33a6.8 6.8 0 0 1 .44-.55q.49-.6.71-.93h-1.8zm.6-7.93h2.84v-1.15h.66v1.15h2.84v1.59h.82v.55h-.82v1.64h-2.84v1h2.84v2.19h-6.34v-2.19h2.84v-1h-2.84v-1.64h-.71v-.55h.71zm.71.55v1h2.13v-1zm0 1.59v1.09h2.13v-1.09zm0 3.17v1.09h2.13v-1.08zm.71 4a10.08 10.08 0 0 1 1.53.49 1.77 1.77 0 0 1 .38.11 5.7 5.7 0 0 0 1.48-1.48h-2.72a3.22 3.22 0 0 0 -.33.44q-.23.32-.34.45zm4.21-8.8h-2.13v1h2.13zm-2.13 1.59v1.09h2.13v-1.09zm2.13 3.17h-2.13v1.09h2.13zm3.28-6.56.71.11a23.8 23.8 0 0 1 -.77 2.57h3.61v.6h-.82a14.21 14.21 0 0 1 -1.64 6.4 10.94 10.94 0 0 0 2.57 2.68 2.61 2.61 0 0 0 -.49.6 12 12 0 0 1 -2.52-2.62 12.35 12.35 0 0 1 -2.79 2.9 5.28 5.28 0 0 0 -.55-.6 12.53 12.53 0 0 0 3-3 11.94 11.94 0 0 1 -1.37-4.54l-.33.66q-.27.44-.38.66a3 3 0 0 1 -.22-.27l-.27-.27a19.2 19.2 0 0 0 2.27-5.85zm.71 9a14.55 14.55 0 0 0 1.31-5.69h-2.3c0 .07-.09.2-.16.38a3 3 0 0 0 -.16.38 15.65 15.65 0 0 0 1.32 4.93z"/><path d="m128.84 405.48h.66v2.84h1.37v.68h-1.37v2.79c.15-.07.36-.16.66-.27a3.67 3.67 0 0 1 .66-.27.77.77 0 0 1 .05.33 1.53 1.53 0 0 1 .05.33l-.82.33-.6.27v4.43q.05 1.48-1.37 1.42h-.77a1.51 1.51 0 0 0 -.05-.33 1.73 1.73 0 0 0 -.11-.38 3.56 3.56 0 0 0 .82.05q.87.05.82-.77v-4.16l-.77.33q-.55.22-.77.33l-.16-.71 1.7-.66v-3.06h-1.53v-.66h1.53zm5.58 0h.66v.88h4.43v.6h-4.43v.93h4.81l-.22 1.53-.66-.16.16-.82h-7.11v2.46a22.21 22.21 0 0 1 -.33 4.59 7.62 7.62 0 0 1 -1.37 3l-.27-.22a2.53 2.53 0 0 0 -.33-.22 7.21 7.21 0 0 0 1.31-2.73 18.84 18.84 0 0 0 .33-4.16v-3.28h3zm-1.86 8.42a12.06 12.06 0 0 0 3.28-1.26h-3v-.55h6.95v.55h-3.12l-1 .66a6.09 6.09 0 0 1 .82 1.15 18.06 18.06 0 0 0 2.73-1.31l.44.49-1 .49a3.74 3.74 0 0 0 -.55.27 4.16 4.16 0 0 0 2.19 2.68l-.11.05a2 2 0 0 0 -.38.49 4.52 4.52 0 0 1 -2.24-3 5.64 5.64 0 0 1 -.82.38 4.57 4.57 0 0 1 .27 1.64q.16 1.8-1.75 1.75h-1.09v-.11a4.33 4.33 0 0 0 -.22-.6 10.1 10.1 0 0 0 1.26.05q1.2.05 1.15-1a3.22 3.22 0 0 0 -.11-.87 13.48 13.48 0 0 1 -4.16 2.13c0-.07-.16-.27-.38-.6a12.07 12.07 0 0 0 4.43-2.08 3.25 3.25 0 0 0 -.16-.38c-.07-.18-.13-.31-.16-.38a9.36 9.36 0 0 1 -3.17 1.64l-.16-.33a2.53 2.53 0 0 1 -.16-.27 11.26 11.26 0 0 0 3.23-1.42 3.26 3.26 0 0 0 -.49-.49 22.55 22.55 0 0 1 -2.19.88 3.41 3.41 0 0 0 -.33-.65zm0-4.27 1.75-.11v-.66h.69v.6l2.68-.16.05.55-2.73.15v.05q-.11.93 1.09.82h1.2q1 .06 1.2-.55a1.93 1.93 0 0 0 .11-.6l.71.22a5.3 5.3 0 0 1 -.16.6q-.27.93-1.75.88h-1.5q-1.64 0-1.59-1.26v-.11l-1.7.11z"/><path d="m142.13 407.83.49-.44q1.31 1 1.91 1.48a11 11 0 0 0 1.91-2h-4.7v-.6h5.52v.73a13.08 13.08 0 0 1 -2.84 2.84h1.58v3h-3l-.22 1.7h3.45a20.46 20.46 0 0 1 -.22 2.24 1.61 1.61 0 0 1 -1.86 1.53q-.55.05-1.91.05a2.37 2.37 0 0 0 -.22-.77q.55.05 2 .05 1.2.05 1.26-1c0-.18.07-.44.11-.77s.05-.62.05-.77h-2.73l-.05.38h-.66l.38-3.28h3v-1.8h-1.91q-.88.49-1.91 1a4 4 0 0 0 -.49-.6 13.22 13.22 0 0 0 2.9-1.53 7 7 0 0 1 -.6-.49q-.86-.68-1.24-.95zm4.87 6.34v-.6h5.63v.66a10.71 10.71 0 0 1 -2.19 2.46 24.87 24.87 0 0 0 3 1.26l-.49.6a11.24 11.24 0 0 1 -3-1.59 16.26 16.26 0 0 1 -3.39 1.64l-.33-.49a.65.65 0 0 0 -.11-.16 16.49 16.49 0 0 0 3.23-1.37 8.32 8.32 0 0 1 -1.91-2.41zm1.42-3.77v.38a2.19 2.19 0 0 1 -1.37 2.35 2.36 2.36 0 0 0 -.55-.44 1.69 1.69 0 0 0 1.2-2v-.93h3.23a8.59 8.59 0 0 1 -3.28-3.94l.6-.27a13.94 13.94 0 0 0 1 1.7 24.68 24.68 0 0 0 2.68-1.64l.49.55q-.66.44-2.35 1.37l-.38.22a9.82 9.82 0 0 0 1 1.09q1.64-1 2.63-1.64l.49.55q-1.15.71-2.52 1.48a12.14 12.14 0 0 0 3.06 1.2 2.54 2.54 0 0 0 -.44.66 11.83 11.83 0 0 1 -2.46-1v1.75c0 .22.05.31.27.27h1c.15 0 .22-.05.22-.16a1.33 1.33 0 0 0 .11-.66 1.72 1.72 0 0 0 .49.11 3.42 3.42 0 0 1 -.11.82.66.66 0 0 1 -.66.55h-1.2q-.82 0-.82-.87v-1.5zm3.39 3.77h-3.66a7.41 7.41 0 0 0 1.7 2.08 10.81 10.81 0 0 0 1.96-2.08z"/><path d="m158 405.53h.71v2h2.29v.66h-2.24v2.3h2.68v.66h-2.24v2.46h2.08v.66h-2.08v2.73a8.66 8.66 0 0 0 3 .44h6.18a.58.58 0 0 0 -.11.22l-.16.49q-4.65 0-6.18-.05-3.94.05-5.09-2.68a9.54 9.54 0 0 1 -1.15 3.12l-.27-.22a2.53 2.53 0 0 0 -.33-.22 8.41 8.41 0 0 0 1-2.41 20.43 20.43 0 0 0 .22-3.5h.69q0 .44-.05 1.2v.88a5.41 5.41 0 0 0 1.53 2.3v-5.41h-3.28v-.66h2.8v-2.3h-2.35v-.66h2.35zm5 8.47q-.06 1 1.2 1h1.64q1.2.06 1.37-.93a13.11 13.11 0 0 0 .27-1.53 4.92 4.92 0 0 0 .66.27 1.51 1.51 0 0 1 -.05.33 5 5 0 0 1 -.16 1.09q-.22 1.53-2 1.42h-1.8q-1.86.06-1.8-1.48v-7.77h5v4.43h-4.33zm3.55-6.95h-3.55v3.12h3.55z"/><path d="m169.69 407.78h1.42q.44-1.31.66-2.24l.77.16q-.33 1.09-.66 2.08h2.79v10.5h-.77v-1.09h-3.5v1.2h-.71zm.71.66v3.72h3.5v-3.72zm0 4.38v3.77h3.5v-3.77zm5.47-2.08a2.4 2.4 0 0 1 -.33-.22l-.33-.16a21.22 21.22 0 0 0 2.08-4.81l.77.16q-.33 1-.77 2h4.54v.88q-.11 4.87-.27 7.49.05 2.13-2.35 2.19h-2.13a.42.42 0 0 0 -.05-.16 1.53 1.53 0 0 0 -.16-.6q.76.05 2.24.05 1.75.05 1.75-1.59.11-1.37.16-5.74.05-1.26.05-1.8h-4a22 22 0 0 1 -1.2 2.3zm.6.66.55-.44c.07.11.18.26.33.44q1.2 1.48 1.86 2.46l-.6.44q-1.04-1.55-2.14-2.92z"/><path d="m183.26 408h4.21v.6h-4.21zm.44 1.91h3.39v.6h-3.39zm0 2h3.39v.6h-3.39zm0 2h3.39v4.48h-.66v-.87h-2.08v.88h-.66zm3.06-7.16h-2.76v-.6h2.73zm-2.41 7.77v2.48h2.08v-2.52zm4-5.63h3.23v-1.15h-3.58v-.55h2.41l-.33-.33a6.45 6.45 0 0 0 -.93-.87l.49-.49a11.83 11.83 0 0 1 1.42 1.31l-.44.38h2.57l-.38-.38q.87-.76 1.42-1.31l.55.44-.71.66-.66.6h2.68v.55h-3.77v1.15h3.28v.6h-3.28v1.09h3.94v.6h-8.48v-.6h3.88v-1.09h-3.26zm4.1 2.68h.66q0 .77.11 2.19h3v.6h-3a10.72 10.72 0 0 0 .38 1.75 8.57 8.57 0 0 0 1.48-1.37l.49.44a13.81 13.81 0 0 1 -1.75 1.59 1.16 1.16 0 0 0 .22.27 2.9 2.9 0 0 1 .16.27q.27.49.66.44t.6-.66a3.73 3.73 0 0 0 .16-.6 3.39 3.39 0 0 1 .11-.55l.44.22a.15.15 0 0 0 .11.05 5 5 0 0 1 -.22 1.15q-.27 1.15-1.15 1.09a1.23 1.23 0 0 1 -1.09-.6 2.68 2.68 0 0 1 -.55-.82 12.11 12.11 0 0 1 -1.8 1l-.38.16a2.47 2.47 0 0 0 -.38-.6 9.7 9.7 0 0 0 2.3-1.09 11.44 11.44 0 0 1 -.44-2.19h-2.19v1.15l.82-.16q.49-.05.77-.11v.6l-.93.16a6.22 6.22 0 0 0 -.66.11v.82q.05 1.48-1.37 1.48h-.93a2.08 2.08 0 0 0 -.11-.66q.55.05.88.05.93.05.88-.93v-.71q-1.42.22-1.91.33l-.11-.66 2-.27v-1.2h-2.08v-.6h2.08v-1q-.82.06-1.7.05a2.35 2.35 0 0 0 -.05-.38.47.47 0 0 1 -.05-.22q1.48 0 3.88-.22l.11.6h-.16a8.27 8.27 0 0 1 -1.37.11v1.09h2.13q0-1.21 0-2.25zm1.42.49.55-.38q.66.77 1.09 1.2l-.55.44q-.38-.62-1.04-1.32z"/><path d="m197.2 412h6v.6h-2.3v1.75h2.13v.6h-2.13v2.13a7.34 7.34 0 0 0 2.3.33q3.39.16 7.22 0a3.7 3.7 0 0 0 -.27.77h-4.43q-1.42 0-2.62-.05-3.39-.06-4.54-2.08a6.92 6.92 0 0 1 -1 2.46 2.24 2.24 0 0 0 -.56-.51 7.78 7.78 0 0 0 1.15-4.48h.66a6 6 0 0 1 -.05.71 3.64 3.64 0 0 1 -.05.77 4.13 4.13 0 0 0 1.48 1.86v-4.27h-3zm.88-5.91h4.48v4.65h-4.48zm.66.6v1.42h3.12v-1.42zm0 2v1.42h3.12v-1.41zm6.89 6.18.44.55a20.77 20.77 0 0 1 -2.3 1.53l-.44-.55a14 14 0 0 0 2.29-1.52zm-2.08-8.75h6.45v.6h-3.23l-.38 1.53h3.12v6.07h-5.51v-6.07h1.7l.33-1.53h-2.46zm1.15 2.73v1.26h4.1v-1.26zm0 1.8v1.26h4.1v-1.26zm0 1.8v1.26h4.1v-1.26zm4.92 4.38q-1-.66-2.3-1.42l.44-.55q1.2.66 2.3 1.37z"/><path d="m105.54 447.45q1.58.05 4.7 0h2.13c0 .07-.09.2-.16.38a1.78 1.78 0 0 1 -.11.33q-4.43 0-6.67-.05a5.34 5.34 0 0 1 -4.27-1.59 14.8 14.8 0 0 0 -1.36 1.48 1.16 1.16 0 0 0 -.22.27l-.49-.6a19.73 19.73 0 0 1 1.75-1.75v-3.77h-1.58v-.71h2.3v4.48a5 5 0 0 0 3.98 1.53zm-4-7.11a26.27 26.27 0 0 0 -2.08-1.8l.44-.55q.55.38 1.59 1.26a7 7 0 0 0 .6.49zm.27-2.62q-1.2-1.09-2.13-1.8l.44-.55q.55.38 1.59 1.26a7 7 0 0 0 .6.49zm1.15.6h4.04v-1.48q-1.59.11-3.39.11a1.94 1.94 0 0 0 -.11-.6q3.83-.11 7.33-.33l.16.6q-1.26.11-3.28.22v1.48h4.16v.68h-4a10.68 10.68 0 0 0 4.38 2.13 4.37 4.37 0 0 0 -.38.71 9.93 9.93 0 0 1 -4.16-2.41v2h-.71v-2a10.22 10.22 0 0 1 -4.27 2.46 6.17 6.17 0 0 0 -.38-.66 11.79 11.79 0 0 0 4.45-2.23h-3.88zm6.07 4.27h-2.83a4.83 4.83 0 0 1 -2.68 4.16q-.27-.33-.55-.6a4 4 0 0 0 2.52-3.55h-1.7v-.66h6l-.33 1.48h1.86q-.06.93-.16 1.8a1.4 1.4 0 0 1 -1.64 1.26 15.14 15.14 0 0 1 -1.53.05 1.63 1.63 0 0 0 -.05-.38 1.77 1.77 0 0 0 -.11-.38q.27 0 .82.05h.77q1-.05 1-.71a5.09 5.09 0 0 0 .11-1.09h-1.2l-.11.44h-.77z"/><path d="m114 436.57h4v9h-3.34v1.2h-.66zm.71.71v3.45h2.63v-3.45zm0 7.66h2.63v-3.55h-2.62zm9 2.79q1.2.05 1.15-.93v-2.8h-4.48a7.57 7.57 0 0 1 -2.57 4.59 4.33 4.33 0 0 0 -.66-.55 6.93 6.93 0 0 0 2.13-2.84 12.72 12.72 0 0 0 .55-4.37v-4.7h5.74v10.72q.11 1.58-1.75 1.59-.88.05-1.8.05a.91.91 0 0 0 -.05-.27q-.06-.33-.11-.55.69.06 1.84.06zm-3.17-6.89a13.31 13.31 0 0 1 -.11 2.52h4.43v-3h-4.32zm0-4v2.9h4.32v-2.9z"/><path d="m127.69 437.78h1.42q.44-1.31.66-2.24l.77.16q-.33 1.09-.66 2.08h2.79v10.5h-.77v-1.09h-3.5v1.2h-.71zm.71.66v3.72h3.5v-3.72zm0 4.38v3.77h3.5v-3.77zm5.47-2.08a2.4 2.4 0 0 1 -.33-.22l-.33-.16a21.22 21.22 0 0 0 2.08-4.81l.77.16q-.33 1-.77 2h4.54v.88q-.11 4.87-.27 7.49.05 2.13-2.35 2.19h-2.13a.42.42 0 0 0 -.05-.16 1.53 1.53 0 0 0 -.16-.6q.76.05 2.24.05 1.75.05 1.75-1.59.11-1.37.16-5.74.05-1.26.05-1.8h-4a22 22 0 0 1 -1.2 2.3zm.6.66.55-.44c.07.11.18.26.33.44q1.2 1.48 1.86 2.46l-.6.44q-1.04-1.55-2.14-2.92z"/><path d="m143.22 441.55q-1-.87-2.08-1.7l.49-.55q1.09.82 2.13 1.7zm-1.75 6.56a49.82 49.82 0 0 0 1.53-4.92l.38.16.33.16q-.22.71-.66 2.24-.66 1.91-.82 2.63zm2.19-10.11q-.33-.27-1-.87l-1.09-.93.55-.49q1 .77 2.08 1.75zm2.35 4.54h.77a16.63 16.63 0 0 1 -.11 2 4.84 4.84 0 0 1 -2.3 4 2.82 2.82 0 0 0 -.55-.6 4.15 4.15 0 0 0 2.13-3.5q.05-.76.05-1.85zm-1.2-.87-.11-.77h1.09a35.39 35.39 0 0 0 2.3-3h-3.39v-.66h4.1v-1.54h.71v1.59h4.43v.66h-5.52l.44.27q-1.37 1.75-2.19 2.68 2.57-.11 5.09-.27-.6-.71-1.26-1.37l.6-.44q.87.88 2.46 2.68l.27.27-.66.49a7.84 7.84 0 0 0 -.87-1q-1.42.11-4.48.27-2.03.13-3.01.18zm3.77.88h.77v5.74h-.77zm2.57-.05h.77v4.5q0 .6.66.6h.33a.59.59 0 0 0 .66-.6 7.34 7.34 0 0 0 .16-1.64 1.28 1.28 0 0 1 .38.11 1.78 1.78 0 0 1 .33.11q-.06.88-.16 1.59-.22 1.15-1.2 1.09h-.66q-1.26 0-1.26-1.2z"/><path d="m155.26 439.58h2.08v-2.52a5.94 5.94 0 0 1 -.93.05c-.4 0-.71.05-.93.05a1.53 1.53 0 0 0 -.05-.33.77.77 0 0 0 -.05-.33l1.37-.11q2-.11 3.12-.22l.11.66c-.22 0-.53 0-.93.05s-.77.07-1 .11v2.57h1.95v.66h-2v1.91l.49-.33 1.7 1.7-.6.49a21.72 21.72 0 0 0 -1.59-1.75v6.29h-.71v-6.78a11.5 11.5 0 0 1 -1.91 4.1 1.45 1.45 0 0 0 -.22-.38 1.31 1.31 0 0 0 -.22-.33 14.06 14.06 0 0 0 2.35-4.92h-2.08zm4.32 7.6h4.21v-2.18h-3.12v-.6h3.12v-2q-.38 0-1.15.05-1.53.11-2.35.11a3 3 0 0 0 -.11-.66q3.34-.05 7.71-.44l.11.66a13.21 13.21 0 0 0 -1.37.11l-2.13.11v2.08h3.17v.6h-3.17v2.19h3.94v.66h-8.86zm1.31-10.83h6.51v3.65h-6.51zm.77.66v2.3h5v-2.31z"/><path d="m177.9 437.06v-.66h3.34v8h1v.66h-12.93v-.66h1v-7.66a15.09 15.09 0 0 0 2.84-.93l.38.55a11.71 11.71 0 0 1 -2.57.82v1.91h2.57v.6h-2.53v2h2.63v.6h-2.63v2.08h3.39v-3.12h.66v3.12h1.75v-3.94h-2.4v-4.87h.66v1.75h2.57v.6h-2.57v1.91h2.41v4.54h3.12v-2.08h-2.3v-.6h2.3v-2h-2.3v-.6h2.3v-2.08zm-4.1 8.8.49.66q-2.9 1.37-4.37 2a1.88 1.88 0 0 0 -.33-.49.65.65 0 0 0 -.11-.16 32.9 32.9 0 0 0 4.31-2zm7.88 2.63a38.38 38.38 0 0 0 -4.48-1.91l.44-.66 1.53.66q2 .82 2.9 1.26z"/><path d="m188.07 446.85.33.49q-1.26.38-4.1 1.09l-.66.16a6.17 6.17 0 0 0 -.38-.66q1.8-.37 4.81-1.08zm-4.59-6.73q1.37-.82 3-2a2 2 0 0 0 .33.6l-3 2zm3.61-3.12h-3.34v-.66h3.34zm-2.09 4h9.68v5.41h-9.68zm.71.55v1h8.26v-1zm0 1.64v1h8.26v-1zm0 1.59v1.09h8.26v-1.09zm2.3-6a1.55 1.55 0 0 0 -.6-.38 7.24 7.24 0 0 0 2.13-3l.66.22c0 .07-.09.2-.16.38a3.74 3.74 0 0 1 -.27.55h6v.6l-.87 1.48-.66-.27.77-1.2h-2.9v.16a.41.41 0 0 0 -.05.16q.82 2 4 2.57l-.05.05a1.71 1.71 0 0 0 -.27.6q-3.23-.71-3.94-2.46-.55 1.75-4.27 2.35l-.38-.6q3.77-.6 4-2.08a4.1 4.1 0 0 0 .16-.77h-2a7.4 7.4 0 0 1 -1.31 1.62zm3.17 8.59.27-.49a46.67 46.67 0 0 1 4.65 1l-.22.66q-.77-.22-2.62-.66z"/><path d="m197.47 446.58a7.54 7.54 0 0 0 -.38-.77 14.64 14.64 0 0 0 2.35-4.43h-2.19v-.66h2.3v-5.25h.71v5.25h2.19v.66h-2.19v1.53l.38-.38q1.2 1.26 1.91 2.13l-.6.44-1.09-1.37q-.38-.44-.6-.66v5.47h-.71v-6a14.25 14.25 0 0 1 -2.08 4.04zm-.22-9.46.6-.22q.55 1.2 1 2.52l-.66.22q-.22-.6-.71-1.8a6.13 6.13 0 0 0 -.22-.72zm4.21 2.57-.66-.22a21.73 21.73 0 0 0 1.09-2.57l.6.27a24.57 24.57 0 0 1 -1.02 2.52zm6.07-4.21h.71v8l2.08-.27.05.71-2.13.27v4.38h-.71v-4.32l-4.32.49-.11-.71 4.43-.49zm-4 5.3.44-.49q.6.38 1.64 1.15l.6.44-.49.55q-1.14-.88-2.23-1.65zm.44-3.34.44-.55.6.44 1.53 1.26-.49.55q-1.14-.93-2.12-1.69z"/><g fill="#f16e6d"><circle cx="88.32" cy="321.53" r="6"/><circle cx="88.32" cy="351.53" r="6"/><circle cx="88.32" cy="381.53" r="6"/><circle cx="88.32" cy="411.53" r="6"/><circle cx="88.32" cy="441.53" r="6"/></g><ellipse cx="101.14" cy="257.22" fill="#373d5d" rx="58.26" ry="45.3" transform="matrix(.96538164 -.26084151 .26084151 .96538164 -63.58 35.27)"/><path d="m164.19 118s12-1.1 10.08-34.34 11.01-87.1 43.73-81.91 19.78 48.09 11.76 67.25-35.32 47.45-25.95 60.46c0-.01-11.28-12.73-39.62-11.46z" fill="#ded120"/><path d="m235.31 201.59s-2.56 9.29 10.95 15.41 31.92 14.79 28.83 30.34-11.37 18.06-17.29 19.23-17.43-3.62-25.16-11.73-13.47-23.7-26.64-19.34z" fill="#ded120"/><path d="m181.4 252.56s-12.55 6.11-10.81 21.76-24 26.93-33.76 21.17-12.87-16.56-6.56-27.72c6.65-11.77 6-12.7 1.92-21.07z" fill="#ded120"/><path d="m106 218.23s-7.31-7.95-20.28.62-42.24 23-55.21 17.33-25.29-23-9.39-37.64 42.88-13.36 51.88-12.94 18.82.63 23-7.52z" fill="#ded120"/><path d="m100.13 147.62s0-9.52-10-14.67-7-20.14 4.61-25.52 16.39-.62 20.37 5.08 11.08 7.65 13.66 7.42z" fill="#ded120"/><g fill="#fff" stroke="#69cad2" stroke-miterlimit="10" stroke-width="2"><path d="m160.59 110.72s10.87.93 14.4-11.63 11.37-14.91 15.76-14.8c4.64.12 16.52 5.24 18 10.56s.1 8.49-1.61 12.45-3.53 12.56.53 16.19z"/><path d="m237 194.66s1.16 10.32 5.21 13 12 7.3 11.29 12.71-5.79 15.2-12.22 18.23-11.67 3.18-14 .13-9.61-8.65-18.75-6z"/><path d="m95 172.54s-1.89 10.24-7.74 11.71-13.56 2.5-16.7 7.75-1.05 13.59 1 18.4 5.43 11.08 13.17 10 15.68-8.36 24 .22z"/><path d="m133.58 118.67s-2.68 3.28-8.08 1-13 2.55-20.15 11.29-8.81 11.91-6.21 16.53.93 7.78.93 7.78z"/><path d="m180.22 253.35s-2.45-1.72-6.79 8.46-9.75 12.72-20.79 10.26-11.77-4-12.84-11.66-6-11.06-6-11.06z"/><circle cx="166.59" cy="183.09" r="73.28"/></g><path d="m113.71 170.4-.75-.52a2.25 2.25 0 0 1 -.27 2.28 2.86 2.86 0 0 1 -1.3 1 3.15 3.15 0 0 1 -1.74.17 4.64 4.64 0 0 1 -1.85-.8 5.19 5.19 0 0 1 -1.42-1.42 2.87 2.87 0 0 1 -.5-1.67 2.92 2.92 0 0 1 .54-1.6 2.4 2.4 0 0 1 .89-.8 2.43 2.43 0 0 1 1.07-.27l-3-2 .7-1 8.24 5.71zm-5.19 1.13a3.15 3.15 0 0 0 2 .7 1.77 1.77 0 0 0 1.36-.75 1.74 1.74 0 0 0 .24-1.5 3 3 0 0 0 -1.33-1.61 3.41 3.41 0 0 0 -2.12-.78 1.77 1.77 0 0 0 -1.38.76 1.7 1.7 0 0 0 -.23 1.51 3.3 3.3 0 0 0 1.45 1.67z"/><path d="m108.39 163-1.16-.81.7-1 1.16.81zm7.07 4.9-6-4.14.7-1 6 4.14z"/><path d="m118.38 163.66-7.54-1.87.74-1.07 4.46 1.2c.48.13 1 .28 1.47.45q-.38-.46-.87-1.16l-2.72-3.85.72-1 4.4 6.39z"/><path d="m122.13 154.15.85-1a3.11 3.11 0 0 1 .79 1.9 3.36 3.36 0 0 1 -.68 2.06 3.32 3.32 0 0 1 -2.24 1.52 3.84 3.84 0 0 1 -2.79-.8 4 4 0 0 1 -1.8-2.39 3.2 3.2 0 0 1 .56-2.59 3.11 3.11 0 0 1 2.18-1.35 3.94 3.94 0 0 1 2.82.83l.27.19-3.09 4.48a2.78 2.78 0 0 0 1.89.49 2 2 0 0 0 1.39-.88 1.89 1.89 0 0 0 .37-1.15 2.36 2.36 0 0 0 -.52-1.31zm-3.94 2.19 2.31-3.34a2.45 2.45 0 0 0 -1.39-.4 1.88 1.88 0 0 0 -1.45.85 2 2 0 0 0 -.34 1.5 2.24 2.24 0 0 0 .87 1.39z"/><path d="m125.65 153.18-6-4.14.63-.91.9.63a3 3 0 0 1 -.39-1.22 1.36 1.36 0 0 1 .25-.79 2.41 2.41 0 0 1 1-.81l.69 1a1.78 1.78 0 0 0 -.73.59 1.17 1.17 0 0 0 -.21.73 1.32 1.32 0 0 0 .29.76 4.79 4.79 0 0 0 1.06 1l3.12 2.17z"/><path d="m126.25 148.51.54-1.11a1.7 1.7 0 0 0 1.25.17 2 2 0 0 0 1.07-.85 1.92 1.92 0 0 0 .43-1.23 1 1 0 0 0 -.43-.8.75.75 0 0 0 -.75-.08 5.29 5.29 0 0 0 -1.06.8 11.61 11.61 0 0 1 -1.56 1.21 1.79 1.79 0 0 1 -2-.08 1.85 1.85 0 0 1 -.61-.69 2 2 0 0 1 -.22-.89 2.52 2.52 0 0 1 .15-.85 3.78 3.78 0 0 1 .49-1 4.23 4.23 0 0 1 1.06-1.09 2.05 2.05 0 0 1 1.09-.4 2.63 2.63 0 0 1 1.17.29l-.55 1.08a1.31 1.31 0 0 0 -1-.11 1.74 1.74 0 0 0 -.89.73 2 2 0 0 0 -.46 1.15.82.82 0 0 0 .33.67.68.68 0 0 0 .44.12 1.08 1.08 0 0 0 .54-.2c.11-.08.4-.31.88-.71a15.32 15.32 0 0 1 1.51-1.17 1.86 1.86 0 0 1 1-.3 1.8 1.8 0 0 1 1 .36 2.06 2.06 0 0 1 .75 1 2.32 2.32 0 0 1 .1 1.33 3.8 3.8 0 0 1 -.63 1.43 3.41 3.41 0 0 1 -1.71 1.44 2.74 2.74 0 0 1 -1.93-.22z"/><path d="m125.23 138.67-1.16-.81.7-1 1.16.81zm7.07 4.9-6-4.14.7-1 6 4.14z"/><path d="m134.7 138.19 1 .47a4.62 4.62 0 0 1 -.44.83 2.09 2.09 0 0 1 -.77.73 1.18 1.18 0 0 1 -.75.11 4.38 4.38 0 0 1 -1.28-.7l-3.46-2.38-.51.74-.79-.55.51-.74-1.48-1 .09-1.43 2.08 1.45.71-1 .79.55-.71 1 3.49 2.42a2.16 2.16 0 0 0 .59.33.52.52 0 0 0 .32 0 .82.82 0 0 0 .31-.3 3.7 3.7 0 0 0 .3-.53z"/><path d="m138.56 139.47-1-.55a2.75 2.75 0 0 0 .49-.52 1.34 1.34 0 0 0 .26-.62 1.12 1.12 0 0 0 -.08-.55 6.11 6.11 0 0 0 -.54-.83l-.19-.26-7.55-1.88.76-1.09 4.32 1.16c.55.14 1.11.32 1.68.52a16.72 16.72 0 0 1 -1.07-1.36l-2.64-3.68.7-1 4.49 6.48a14.63 14.63 0 0 1 1 1.51 2.42 2.42 0 0 1 .3 1.13 1.77 1.77 0 0 1 -.34 1 2.49 2.49 0 0 1 -.59.54z"/><path d="m181.08 127.71.48-1a2.66 2.66 0 0 1 -2.61.05 2.94 2.94 0 0 1 -1-.76 2 2 0 0 1 -.46-.93 2.31 2.31 0 0 1 .08-1 6.11 6.11 0 0 1 .45-1.06l2-4 1.1.56-1.82 3.59a7 7 0 0 0 -.52 1.19 1.29 1.29 0 0 0 .09.9 1.52 1.52 0 0 0 .7.67 2 2 0 0 0 1.06.22 1.57 1.57 0 0 0 1-.38 3.88 3.88 0 0 0 .82-1.17l1.76-3.47 1.1.56-3.29 6.47z"/><path d="m184.32 126.93 1.17.38a1.68 1.68 0 0 0 0 1.26 2 2 0 0 0 1 .94 1.93 1.93 0 0 0 1.28.26 1 1 0 0 0 .73-.54.75.75 0 0 0 0-.75 5.3 5.3 0 0 0 -.93-.94 11.32 11.32 0 0 1 -1.4-1.38 1.79 1.79 0 0 1 -.19-2 1.87 1.87 0 0 1 .6-.7 2 2 0 0 1 .85-.34 2.57 2.57 0 0 1 .86 0 3.75 3.75 0 0 1 1 .35 4.21 4.21 0 0 1 1.23.9 2 2 0 0 1 .55 1 2.6 2.6 0 0 1 -.13 1.2l-1.15-.4a1.32 1.32 0 0 0 0-1 1.74 1.74 0 0 0 -.85-.78 2 2 0 0 0 -1.21-.3.81.81 0 0 0 -.62.42.67.67 0 0 0 -.06.45 1.07 1.07 0 0 0 .27.5c.09.1.37.35.83.77a15.18 15.18 0 0 1 1.37 1.33 1.85 1.85 0 0 1 .43.94 1.81 1.81 0 0 1 -.21 1.07 2.07 2.07 0 0 1 -.84.87 2.34 2.34 0 0 1 -1.3.28 3.77 3.77 0 0 1 -1.5-.43 3.41 3.41 0 0 1 -1.66-1.5 2.74 2.74 0 0 1 -.12-1.86z"/><path d="m195.51 132.42 1.06.72a3.11 3.11 0 0 1 -1.78 1 3.35 3.35 0 0 1 -2.13-.39 3.32 3.32 0 0 1 -1.81-2 3.83 3.83 0 0 1 .41-2.88 4 4 0 0 1 2.13-2.11 3.19 3.19 0 0 1 2.61.24 3.1 3.1 0 0 1 1.67 2 3.93 3.93 0 0 1 -.44 2.91l-.15.29-4.83-2.45a2.78 2.78 0 0 0 -.23 1.94 2 2 0 0 0 1.07 1.25 1.87 1.87 0 0 0 1.19.21 2.35 2.35 0 0 0 1.23-.73zm-2.7-3.6 3.61 1.84a2.45 2.45 0 0 0 .21-1.44 1.88 1.88 0 0 0 -1-1.32 2 2 0 0 0 -1.53-.14 2.25 2.25 0 0 0 -1.29 1.06z"/><path d="m196.95 135.78 3.29-6.47 1 .5-.5 1a3 3 0 0 1 1.16-.55 1.37 1.37 0 0 1 .82.14 2.4 2.4 0 0 1 .95.93l-.89.83a1.76 1.76 0 0 0 -.68-.65 1.17 1.17 0 0 0 -.75-.11 1.31 1.31 0 0 0 -.71.39 4.82 4.82 0 0 0 -.83 1.19l-1.81 3.35z"/><path d="m157.21 127.92.56-1.1 3.37 1.71-.56 1.1z"/><path d="m165.85 132.7 1 .69a3.13 3.13 0 0 1 -1.79 1.29 3 3 0 0 1 -2.11-.28 3.11 3.11 0 0 1 -1.69-2 4 4 0 0 1 .46-2.9 5 5 0 0 1 1.28-1.66 2.71 2.71 0 0 1 1.66-.64 3.51 3.51 0 0 1 1.74.39 3 3 0 0 1 1.45 1.41 2.73 2.73 0 0 1 .09 2l-1.15-.38a2 2 0 0 0 0-1.25 1.57 1.57 0 0 0 -.77-.8 1.9 1.9 0 0 0 -1.65-.09 3.17 3.17 0 0 0 -1.47 1.62 3.27 3.27 0 0 0 -.46 2.15 1.83 1.83 0 0 0 1 1.25 1.72 1.72 0 0 0 1.28.15 2.19 2.19 0 0 0 1.13-.95z"/><path d="m172.16 136.26 1.06.72a3.12 3.12 0 0 1 -1.78 1 3.78 3.78 0 0 1 -3.94-2.41 3.83 3.83 0 0 1 .41-2.88 4 4 0 0 1 2.13-2.11 3.19 3.19 0 0 1 2.64.21 3.1 3.1 0 0 1 1.67 2 3.93 3.93 0 0 1 -.44 2.91l-.15.29-4.83-2.45a2.78 2.78 0 0 0 -.23 1.94 2 2 0 0 0 1.06 1.25 1.89 1.89 0 0 0 1.19.21 2.36 2.36 0 0 0 1.21-.68zm-2.7-3.6 3.62 1.84a2.46 2.46 0 0 0 .21-1.44 1.89 1.89 0 0 0 -1-1.32 2 2 0 0 0 -1.53-.14 2.26 2.26 0 0 0 -1.3 1.06z"/><path d="m173.61 139.62 3.29-6.47 1 .5-.47.92a2.61 2.61 0 0 1 2.6 0 3 3 0 0 1 1 .76 1.89 1.89 0 0 1 .46.92 2.38 2.38 0 0 1 -.07 1 7.15 7.15 0 0 1 -.48 1.1l-2 4-1.1-.56 2-3.94a3.4 3.4 0 0 0 .38-1.07 1.19 1.19 0 0 0 -.22-.78 1.61 1.61 0 0 0 -.66-.59 2 2 0 0 0 -1.44-.17q-.74.19-1.37 1.43l-1.8 3.54z"/><path d="m183.44 143.39-.33 1a4.56 4.56 0 0 1 -.88-.32 2.1 2.1 0 0 1 -.83-.66 1.18 1.18 0 0 1 -.21-.73 4.44 4.44 0 0 1 .52-1.36l1.89-3.72-.8-.41.43-.85.8.41.81-1.6 1.42-.1-1.15 2.26 1.1.56-.43.85-1.1-.56-1.91 3.84a2.19 2.19 0 0 0 -.25.63.52.52 0 0 0 .08.31.83.83 0 0 0 .34.27 4.1 4.1 0 0 0 .5.18z"/><path d="m189.51 145.08 1.06.72a3.1 3.1 0 0 1 -1.78 1 3.78 3.78 0 0 1 -3.94-2.41 3.84 3.84 0 0 1 .41-2.87 4 4 0 0 1 2.13-2.11 3.19 3.19 0 0 1 2.64.21 3.1 3.1 0 0 1 1.67 2 3.92 3.92 0 0 1 -.44 2.9l-.15.29-4.83-2.45a2.78 2.78 0 0 0 -.23 1.94 2 2 0 0 0 1.06 1.25 1.88 1.88 0 0 0 1.19.21 2.35 2.35 0 0 0 1.21-.68zm-2.7-3.6 3.62 1.84a2.47 2.47 0 0 0 .21-1.44 1.89 1.89 0 0 0 -1-1.32 2 2 0 0 0 -1.53-.14 2.26 2.26 0 0 0 -1.3 1.05z"/><path d="m190.95 148.43 3.29-6.47 1 .5-.5 1a3 3 0 0 1 1.16-.55 1.36 1.36 0 0 1 .82.14 2.39 2.39 0 0 1 .95.93l-.89.83a1.76 1.76 0 0 0 -.68-.65 1.17 1.17 0 0 0 -.76-.11 1.33 1.33 0 0 0 -.71.39 4.8 4.8 0 0 0 -.83 1.19l-1.8 3.37z"/><path d="m200.61 150.72 1.06.72a3.11 3.11 0 0 1 -1.78 1 3.78 3.78 0 0 1 -3.94-2.41 3.84 3.84 0 0 1 .41-2.88 4 4 0 0 1 2.13-2.11 3.19 3.19 0 0 1 2.64.21 3.1 3.1 0 0 1 1.67 2 3.92 3.92 0 0 1 -.44 2.91l-.15.29-4.82-2.45a2.78 2.78 0 0 0 -.23 1.94 2 2 0 0 0 1.07 1.25 1.88 1.88 0 0 0 1.19.21 2.36 2.36 0 0 0 1.19-.68zm-2.7-3.6 3.62 1.84a2.46 2.46 0 0 0 .21-1.44 1.89 1.89 0 0 0 -1-1.32 2 2 0 0 0 -1.53-.14 2.26 2.26 0 0 0 -1.3 1.05z"/><path d="m206.26 156.21.42-.82a2.26 2.26 0 0 1 -2.3 0 2.85 2.85 0 0 1 -1.21-1.15 3.14 3.14 0 0 1 -.4-1.7 4.62 4.62 0 0 1 .54-1.94 5.17 5.17 0 0 1 1.22-1.59 2.86 2.86 0 0 1 1.58-.72 2.91 2.91 0 0 1 1.66.31 2.44 2.44 0 0 1 .92.78 2.47 2.47 0 0 1 .42 1l1.63-3.21 1.09.55-4.54 8.94zm-1.83-5a3.16 3.16 0 0 0 -.42 2.13 1.77 1.77 0 0 0 .92 1.24 1.74 1.74 0 0 0 1.52 0 3.05 3.05 0 0 0 1.41-1.54 3.4 3.4 0 0 0 .48-2.21 1.76 1.76 0 0 0 -.94-1.26 1.71 1.71 0 0 0 -1.53 0 3.31 3.31 0 0 0 -1.44 1.65z"/><path d="m113 208.44-6.21 1.09.19 1.07-.94.16-.19-1.07-.76.13a3.4 3.4 0 0 1 -1.09.06 1.57 1.57 0 0 1 -.87-.48 2.24 2.24 0 0 1 -.51-1.18 6 6 0 0 1 -.08-1.15h1.09a4.05 4.05 0 0 0 .06.73 1.08 1.08 0 0 0 .37.74 1.29 1.29 0 0 0 .92.07l.66-.12-.24-1.39.94-.16.24 1.39 6.21-1.09z"/><path d="m111.56 200.21-1.05.18a2.66 2.66 0 0 1 1.61 2.06 2.94 2.94 0 0 1 0 1.22 2 2 0 0 1 -.47.92 2.31 2.31 0 0 1 -.83.53 6.18 6.18 0 0 1 -1.12.27l-4.43.78-.27-1.17 4-.7a7 7 0 0 0 1.27-.3 1.29 1.29 0 0 0 .67-.62 1.53 1.53 0 0 0 .11-1 2 2 0 0 0 -.46-1 1.58 1.58 0 0 0 -.88-.54 3.92 3.92 0 0 0 -1.43 0l-3.83.67-.21-1.21 7.15-1.25z"/><path d="m111 197.23-7.15 1.25-.19-1.09 1-.18a2.61 2.61 0 0 1 -1.58-2.07 3 3 0 0 1 0-1.23 1.89 1.89 0 0 1 .47-.92 2.39 2.39 0 0 1 .83-.53 6.94 6.94 0 0 1 1.17-.27l4.4-.77.21 1.21-4.35.76a3.32 3.32 0 0 0 -1.08.34 1.17 1.17 0 0 0 -.5.6 1.61 1.61 0 0 0 -.07.88 2 2 0 0 0 .72 1.25 2.46 2.46 0 0 0 2 .24l3.91-.68z"/><path d="m161.39 235.82-.12.91a2.26 2.26 0 0 1 2.16-.8 2.84 2.84 0 0 1 1.52.69 3.15 3.15 0 0 1 .94 1.47 4.59 4.59 0 0 1 .13 2 5.18 5.18 0 0 1 -.62 1.91 2.88 2.88 0 0 1 -1.26 1.2 2.91 2.91 0 0 1 -1.67.25 2.41 2.41 0 0 1 -1.12-.43 2.43 2.43 0 0 1 -.73-.83l-.48 3.56-1.21-.16 1.34-9.93zm3.37 4.11a3.16 3.16 0 0 0 -.3-2.15 1.77 1.77 0 0 0 -1.28-.87 1.74 1.74 0 0 0 -1.45.47 3 3 0 0 0 -.83 1.92 3.41 3.41 0 0 0 .28 2.24 1.77 1.77 0 0 0 1.31.88 1.71 1.71 0 0 0 1.45-.48 3.32 3.32 0 0 0 .83-2.01z"/><path d="m153.53 235.67a4.58 4.58 0 0 1 1.41-.64 3.8 3.8 0 0 1 1.38-.06 2.63 2.63 0 0 1 1.74.83 1.93 1.93 0 0 1 .44 1.57 2 2 0 0 1 -.37.93 2 2 0 0 1 -.73.62 3 3 0 0 1 -.93.28 8.52 8.52 0 0 1 -1.11 0 11.35 11.35 0 0 0 -2.23.13v.32a1.35 1.35 0 0 0 .21 1.1 2 2 0 0 0 1.33.6 2.17 2.17 0 0 0 1.31-.13 1.86 1.86 0 0 0 .75-1l1.17.32a3 3 0 0 1 -.7 1.16 2.37 2.37 0 0 1 -1.17.58 4.88 4.88 0 0 1 -1.67 0 4.38 4.38 0 0 1 -1.47-.42 2 2 0 0 1 -.77-.66 1.94 1.94 0 0 1 -.27-.88 6.8 6.8 0 0 1 .09-1.13l.22-1.63a17.28 17.28 0 0 0 .21-2.16 2.74 2.74 0 0 0 -.19-.91l1.27.17a2.68 2.68 0 0 1 .08 1.01zm-.27 2.74a9 9 0 0 1 2.06-.19 4.58 4.58 0 0 0 1.1-.1 1.08 1.08 0 0 0 .54-.33 1.09 1.09 0 0 0 0-1.42 1.6 1.6 0 0 0 -1-.47 2.55 2.55 0 0 0 -1.3.14 1.92 1.92 0 0 0 -.92.73 2.92 2.92 0 0 0 -.36 1.19z"/><path d="m147.82 235.1v-1.1a4.58 4.58 0 0 1 .94 0 2.11 2.11 0 0 1 1 .35 1.19 1.19 0 0 1 .44.62 4.48 4.48 0 0 1 0 1.46l-.56 4.14.89.12-.13.95-.89-.12-.24 1.78-1.31.57.34-2.51-1.23-.17.13-.95 1.23.17.57-4.21a2.13 2.13 0 0 0 0-.68.52.52 0 0 0 -.18-.27.83.83 0 0 0 -.41-.14 4.09 4.09 0 0 0 -.59-.01z"/><path d="m142 234.11a4.52 4.52 0 0 1 1.41-.64 3.78 3.78 0 0 1 1.38-.06 2.64 2.64 0 0 1 1.75.83 1.93 1.93 0 0 1 .44 1.57 2 2 0 0 1 -1.1 1.55 3 3 0 0 1 -.93.28 8.7 8.7 0 0 1 -1.11 0 11.27 11.27 0 0 0 -2.23.13v.32a1.36 1.36 0 0 0 .2 1.1 2.06 2.06 0 0 0 1.33.6 2.18 2.18 0 0 0 1.31-.13 1.84 1.84 0 0 0 .75-1l1.17.32a3 3 0 0 1 -.7 1.16 2.37 2.37 0 0 1 -1.17.58 4.85 4.85 0 0 1 -1.67 0 4.34 4.34 0 0 1 -1.47-.42 2 2 0 0 1 -.77-.66 2 2 0 0 1 -.27-.88 7.1 7.1 0 0 1 .09-1.13l.22-1.63a17.27 17.27 0 0 0 .21-2.16 2.81 2.81 0 0 0 -.19-.91l1.27.17a2.69 2.69 0 0 1 .08 1.01zm-.27 2.74a9.1 9.1 0 0 1 2.06-.19 4.66 4.66 0 0 0 1.1-.1 1.09 1.09 0 0 0 .54-.33 1.09 1.09 0 0 0 0-1.42 1.6 1.6 0 0 0 -1-.47 2.55 2.55 0 0 0 -1.3.14 1.93 1.93 0 0 0 -.92.73 3 3 0 0 0 -.36 1.19z"/><path d="m139.13 235.86-.17 1.23-3.74-.5.17-1.23z"/><path d="m166.35 222.36-.12.91a2.26 2.26 0 0 1 2.16-.8 2.85 2.85 0 0 1 1.52.69 3.14 3.14 0 0 1 .94 1.48 4.6 4.6 0 0 1 .13 2 5.21 5.21 0 0 1 -.62 1.91 2.88 2.88 0 0 1 -1.26 1.2 2.91 2.91 0 0 1 -1.67.25 2.43 2.43 0 0 1 -1.85-1.26l-.48 3.56-1.21-.16 1.34-9.93zm3.37 4.11a3.16 3.16 0 0 0 -.31-2.15 1.78 1.78 0 0 0 -1.28-.87 1.74 1.74 0 0 0 -1.45.47 3 3 0 0 0 -.83 1.92 3.42 3.42 0 0 0 .28 2.24 1.76 1.76 0 0 0 1.31.88 1.7 1.7 0 0 0 1.45-.48 3.29 3.29 0 0 0 .83-2z"/><path d="m163.31 222-1 7.2-1.1-.15.15-1.09a3 3 0 0 1 -.91.91 1.36 1.36 0 0 1 -.82.14 2.39 2.39 0 0 1 -1.2-.56l.57-1.08a1.75 1.75 0 0 0 .86.38 1.17 1.17 0 0 0 .75-.14 1.32 1.32 0 0 0 .54-.61 4.75 4.75 0 0 0 .39-1.4l.51-3.77z"/><path d="m157.52 229.86-.19 1.4-1.22-.16.19-1.4zm1.15-8.53-1 7.2-1.22-.17 1-7.19z"/><path d="m153.6 220.64 1.77 7.56-1.29-.17-1-4.52q-.16-.73-.27-1.51-.24.55-.64 1.31l-2.17 4.18-1.25-.17 3.69-6.83z"/><path d="m143.42 221.63-1.24-.33a3.12 3.12 0 0 1 1.33-1.57 3.36 3.36 0 0 1 2.14-.33 3.33 3.33 0 0 1 2.37 1.31 3.84 3.84 0 0 1 .56 2.85 4 4 0 0 1 -1.32 2.69 3.2 3.2 0 0 1 -2.56.67 3.1 3.1 0 0 1 -2.22-1.3 3.93 3.93 0 0 1 -.54-2.89v-.32l5.37.72a2.79 2.79 0 0 0 -.43-1.91 2 2 0 0 0 -1.42-.83 1.88 1.88 0 0 0 -1.19.2 2.35 2.35 0 0 0 -.85 1.04zm3.74 2.51-4-.54a2.46 2.46 0 0 0 .28 1.42 1.89 1.89 0 0 0 1.42.91 2 2 0 0 0 1.49-.37 2.26 2.26 0 0 0 .81-1.42z"/><path d="m140.95 218.94-1 7.19-1.1-.15.14-1a2.61 2.61 0 0 1 -2.45.88 3 3 0 0 1 -1.16-.4 1.9 1.9 0 0 1 -.74-.72 2.4 2.4 0 0 1 -.26-1 7.07 7.07 0 0 1 .09-1.19l.6-4.42 1.22.16-.59 4.38a3.4 3.4 0 0 0 0 1.13 1.2 1.2 0 0 0 .43.66 1.61 1.61 0 0 0 .82.33 2 2 0 0 0 1.41-.31 2.46 2.46 0 0 0 .82-1.8l.53-3.93z"/><path d="m218.71 177.63-1.06-.29a4.64 4.64 0 0 1 .29-.89 2.08 2.08 0 0 1 .62-.86 1.18 1.18 0 0 1 .72-.24 4.37 4.37 0 0 1 1.38.46l3.8 1.72.37-.82.87.4-.37.82 1.64.74.17 1.42-2.31-1-.51 1.13-.87-.4.51-1.13-3.87-1.75a2.11 2.11 0 0 0 -.64-.22.52.52 0 0 0 -.31.09.83.83 0 0 0 -.25.35 3.87 3.87 0 0 0 -.18.47z"/><path d="m217.22 178.25 6.61 3-.46 1-1-.45a3 3 0 0 1 .6 1.13 1.36 1.36 0 0 1 -.1.82 2.41 2.41 0 0 1 -.88 1l-.86-.86a1.78 1.78 0 0 0 .62-.71 1.17 1.17 0 0 0 .08-.76 1.32 1.32 0 0 0 -.42-.7 4.79 4.79 0 0 0 -1.22-.78l-3.46-1.57z"/><path d="m214.14 187.2a4.58 4.58 0 0 1 -.21-1.54 3.82 3.82 0 0 1 .34-1.33 2.64 2.64 0 0 1 1.29-1.43 1.93 1.93 0 0 1 1.63 0 2 2 0 0 1 1.17 1.5 3.07 3.07 0 0 1 0 1 9.82 9.82 0 0 1 -.29 1.07 11.29 11.29 0 0 0 -.52 2.17l.29.14a1.36 1.36 0 0 0 1.11.12 2.06 2.06 0 0 0 1-1.1 2.18 2.18 0 0 0 .25-1.29 1.87 1.87 0 0 0 -.73-1l.65-1a3 3 0 0 1 .91 1 2.39 2.39 0 0 1 .22 1.29 4.87 4.87 0 0 1 -.45 1.61 4.36 4.36 0 0 1 -.82 1.29 2 2 0 0 1 -.85.55 1.94 1.94 0 0 1 -.92 0 6.93 6.93 0 0 1 -1.06-.41l-1.49-.68a17.31 17.31 0 0 0 -2-.83 2.74 2.74 0 0 0 -.92-.08l.53-1.17a2.65 2.65 0 0 1 .87.12zm2.54 1a8.92 8.92 0 0 1 .41-2 4.9 4.9 0 0 0 .22-1.08 1.06 1.06 0 0 0 -.16-.61 1.09 1.09 0 0 0 -1.36-.4 1.6 1.6 0 0 0 -.75.86 2.54 2.54 0 0 0 -.24 1.28 1.92 1.92 0 0 0 .44 1.09 3 3 0 0 0 1 .69z"/><path d="m212.07 189.6 6.61 3-.46 1-.94-.43a2.61 2.61 0 0 1 .14 2.6 3 3 0 0 1 -.71 1 1.91 1.91 0 0 1 -.9.5 2.37 2.37 0 0 1 -1 0 7.09 7.09 0 0 1 -1.12-.43l-4.06-1.84.51-1.12 4 1.82a3.32 3.32 0 0 0 1.08.33 1.18 1.18 0 0 0 .75-.22 1.6 1.6 0 0 0 .56-.69 2 2 0 0 0 .11-1.44c-.15-.48-.64-.92-1.49-1.3l-3.61-1.64z"/><path d="m211 197.14-.33 1.19a1.7 1.7 0 0 0 -1.26.06 2 2 0 0 0 -.89 1 1.91 1.91 0 0 0 -.21 1.29 1 1 0 0 0 .57.71.75.75 0 0 0 .75-.06 5.37 5.37 0 0 0 .9-1 11.68 11.68 0 0 1 1.31-1.46 1.79 1.79 0 0 1 2-.28 1.86 1.86 0 0 1 .73.57 2 2 0 0 1 .38.83 2.57 2.57 0 0 1 0 .86 3.79 3.79 0 0 1 -.31 1 4.16 4.16 0 0 1 -.84 1.26 2 2 0 0 1 -1 .59 2.62 2.62 0 0 1 -1.2-.08l.35-1.16a1.31 1.31 0 0 0 1-.07 1.75 1.75 0 0 0 .75-.88 2 2 0 0 0 .24-1.22.81.81 0 0 0 -.45-.6.68.68 0 0 0 -.46 0 1.07 1.07 0 0 0 -.49.29c-.09.09-.34.38-.73.86a15.21 15.21 0 0 1 -1.27 1.42 1.85 1.85 0 0 1 -.92.47 1.81 1.81 0 0 1 -1.08-.17 2.06 2.06 0 0 1 -.91-.8 2.31 2.31 0 0 1 -.34-1.29 3.79 3.79 0 0 1 .36-1.52 3.41 3.41 0 0 1 1.43-1.72 2.73 2.73 0 0 1 1.92-.09z"/><path d="m203.43 201.92 9.14 4.15-.46 1-.86-.39a2.75 2.75 0 0 1 .39 1.16 2.44 2.44 0 0 1 -.25 1.22 2.87 2.87 0 0 1 -1.11 1.3 2.93 2.93 0 0 1 -1.67.42 4.94 4.94 0 0 1 -1.89-.46 4.85 4.85 0 0 1 -1.66-1.19 3 3 0 0 1 -.77-1.62 3 3 0 0 1 .23-1.66 2.28 2.28 0 0 1 .69-.9 2.51 2.51 0 0 1 .93-.46l-3.22-1.49zm5.34 3.65a3.15 3.15 0 0 0 -2.12-.34 1.73 1.73 0 0 0 -1.18 1 1.78 1.78 0 0 0 .05 1.57 3.3 3.3 0 0 0 1.72 1.42 3.21 3.21 0 0 0 2.13.34 1.72 1.72 0 0 0 1.19-1 1.77 1.77 0 0 0 -.1-1.57 3.3 3.3 0 0 0 -1.69-1.42z"/><path d="m201.61 214.85a4.58 4.58 0 0 1 -.2-1.54 3.81 3.81 0 0 1 .34-1.33 2.64 2.64 0 0 1 1.29-1.43 1.94 1.94 0 0 1 1.63 0 2 2 0 0 1 .79.62 2 2 0 0 1 .38.87 3.07 3.07 0 0 1 0 1 9 9 0 0 1 -.29 1.07 11.25 11.25 0 0 0 -.52 2.17l.29.14a1.35 1.35 0 0 0 1.11.12 2.06 2.06 0 0 0 1-1.1 2.17 2.17 0 0 0 .25-1.29 1.86 1.86 0 0 0 -.73-1l.65-1a3 3 0 0 1 .91 1 2.37 2.37 0 0 1 .22 1.29 4.87 4.87 0 0 1 -.45 1.61 4.36 4.36 0 0 1 -.82 1.29 2 2 0 0 1 -.86.55 1.92 1.92 0 0 1 -.92 0 6.85 6.85 0 0 1 -1.06-.41l-1.49-.68a17.49 17.49 0 0 0 -2-.83 2.75 2.75 0 0 0 -.92-.08l.53-1.17a2.63 2.63 0 0 1 .87.13zm2.55 1a8.89 8.89 0 0 1 .41-2 4.78 4.78 0 0 0 .22-1.08 1.05 1.05 0 0 0 -.62-1 1 1 0 0 0 -.9 0 1.6 1.6 0 0 0 -.75.86 2.53 2.53 0 0 0 -.24 1.28 1.91 1.91 0 0 0 .44 1.09 3 3 0 0 0 1 .69z"/><path d="m199.54 217.24 6.61 3-.46 1-1-.45a3 3 0 0 1 .6 1.13 1.36 1.36 0 0 1 -.1.82 2.42 2.42 0 0 1 -.88 1l-.87-.86a1.78 1.78 0 0 0 .62-.71 1.17 1.17 0 0 0 .08-.76 1.32 1.32 0 0 0 -.42-.7 4.79 4.79 0 0 0 -1.22-.78l-3.5-1.57z"/><path d="m197.68 227-.67 1.09a3.11 3.11 0 0 1 -1.12-1.73 3.78 3.78 0 0 1 2.23-4 3.84 3.84 0 0 1 2.89.29 4 4 0 0 1 2.2 2 3.19 3.19 0 0 1 -.09 2.65 3.11 3.11 0 0 1 -1.88 1.76 3.94 3.94 0 0 1 -2.92-.31l-.3-.14 2.24-4.93a2.78 2.78 0 0 0 -1.95-.14 2 2 0 0 0 -1.21 1.12 1.9 1.9 0 0 0 -.15 1.2 2.37 2.37 0 0 0 .73 1.14zm3.48-2.86-1.67 3.69a2.46 2.46 0 0 0 1.44.14 1.89 1.89 0 0 0 1.28-1.09 2 2 0 0 0 .07-1.53 2.24 2.24 0 0 0 -1.12-1.22z"/><path d="m194.39 228.59 6.61 3-.46 1-.94-.43a2.61 2.61 0 0 1 .14 2.6 3 3 0 0 1 -.71 1 1.91 1.91 0 0 1 -.9.5 2.38 2.38 0 0 1 -1 0 7.19 7.19 0 0 1 -1.12-.43l-4.01-1.83.51-1.12 4 1.82a3.32 3.32 0 0 0 1.08.33 1.18 1.18 0 0 0 .75-.22 1.6 1.6 0 0 0 .56-.69 2 2 0 0 0 .11-1.44c-.15-.48-.64-.92-1.49-1.3l-3.61-1.64z"/><path d="m191.07 238.58-1.06-.29a4.66 4.66 0 0 1 .28-.89 2.09 2.09 0 0 1 .63-.86 1.18 1.18 0 0 1 .72-.24 4.37 4.37 0 0 1 1.38.46l3.8 1.72.37-.82.87.4-.37.82 1.64.74.17 1.42-2.31-1-.51 1.13-.87-.4.51-1.13-3.87-1.75a2.18 2.18 0 0 0 -.64-.22.53.53 0 0 0 -.31.09.83.83 0 0 0 -.25.35 3.82 3.82 0 0 0 -.18.47z"/><path d="m5.52 81.16v-1.8h3.09v-1.89h2.23v1.89h8.42v-1.89h2.32v1.89h3v1.8h-3v6.84h3.7v1.72h-5.5a12.85 12.85 0 0 0 5.76 3.09l-.26.52a12.49 12.49 0 0 0 -.69 1.46 24.48 24.48 0 0 1 -4-2.06v1.12h-4.42v1.8h7.65v1.55h-17.62v-1.6h7.73v-1.8h-4.38v-1.12a34.73 34.73 0 0 1 -4 2.32 9 9 0 0 0 -.95-2 16.67 16.67 0 0 0 5.67-3.35h-5.44v-1.65h3.78v-6.84zm10.66 9.37v1.72h3.7a18 18 0 0 1 -2.58-2.58h-4.48a16.45 16.45 0 0 1 -2.66 2.58h3.78v-1.72zm-5.33-9.37v1.29h8.42v-1.29zm0 2.66v1.38h8.42v-1.37zm0 2.75v1.43h8.42v-1.42z"/><path d="m27.43 83.14v-2.24h8.42v-3.35h2.32v3.35h8.51v2.23h-7.39a21 21 0 0 0 8.16 8.87 10 10 0 0 0 -1.2 2.32 22.85 22.85 0 0 1 -8.08-9.32v7.3h4.38v2.1h-4.38v3.6h-2.32v-3.6h-4.47v-2.07h4.47v-7.22a23.14 23.14 0 0 1 -8.08 9.45q-.77-1.56-1.2-2.31a22.49 22.49 0 0 0 8.25-9.11z"/><path d="m50.72 98.09v-10.91a24.44 24.44 0 0 1 -1.72 2.92q-.09-.94-.34-2.32a3.67 3.67 0 0 1 -.09-.69 37.69 37.69 0 0 0 3.61-9.54l2.06.43a41.24 41.24 0 0 1 -1.37 4.47v15.64zm3.78.09a2.63 2.63 0 0 1 -.17-.52 11.62 11.62 0 0 0 -.6-1.2q.69-.17.52-.09 4.13-.77 5.5-1.12l.86 1.38q-3.02.86-6.11 1.55zm-.09-18.18v-1.59h15v1.59h-4.68v1.38h4.13v4.13h-14.27v-4.18h4v-1.33zm.95 15v-8.42h12.64v8.42zm1.12-12.29v1.46h2.15v-1.46zm1 5.16v1.13h8.34v-1.14zm0 2.32v1.11h8.34v-1.11zm0 2.32v1.2h8.34v-1.2zm3-12.55v1.38h2.32v-1.34zm0 2.75v1.46h2.32v-1.46zm8.2 15.29q-3.87-.95-6-1.37l.77-1.37 2.06.34q2.75.52 3.87.77zm-1.68-15.29h-2.27v1.46h2.27z"/><path d="m72.8 98v-10.82q-.8 1.37-1.71 2.82-.09-.43-.34-1.29a8.16 8.16 0 0 0 -.34-1.55 35.93 35.93 0 0 0 4.13-9.62l2.23.52a41.19 41.19 0 0 1 -1.77 4.94v15zm4-16.84v-1.8h5.8v-1.8h2.23v1.8h6.17v1.8h-6.16v1.72h5v12.72h1.63v1.8h-15.47v-1.8h1.7v-12.72h4.9v-1.72zm3 3.44v1.63h7.82v-1.63zm0 3.18v1.63h7.82v-1.63zm0 3.18v1.63h7.82v-1.59zm0 3.18v1.46h7.82v-1.46z"/></svg>