<svg width="41" height="33" viewBox="0 0 41 33" fill="none" xmlns="http://www.w3.org/2000/svg">
<path d="M40.875 16.4883C40.875 16.0801 40.7031 15.7148 40.3809 15.4141L26.0293 1.01953C25.6211 0.611328 25.2559 0.460938 24.8691 0.460938C24.0527 0.460938 23.4512 1.0625 23.4512 1.85742C23.4512 2.26562 23.5801 2.63086 23.8379 2.91016L30.2617 9.39844L36.5996 15.2852L31.6152 15.0488H2.39648C1.58008 15.0488 0.978516 15.6504 0.978516 16.4883C0.978516 17.3262 1.58008 17.9277 2.39648 17.9277H31.6152L36.6211 17.6914L30.2617 23.5781L23.8379 30.0664C23.5801 30.3242 23.4512 30.7109 23.4512 31.0977C23.4512 31.8926 24.0527 32.4941 24.8691 32.4941C25.2559 32.4941 25.5996 32.3652 25.9219 32.0645L40.3809 17.5625C40.7031 17.2617 40.875 16.8965 40.875 16.4883Z" fill="white"/>
</svg>
