<svg width="35" height="61" viewBox="0 0 35 61" fill="none" xmlns="http://www.w3.org/2000/svg">
<path d="M34.7891 30.2969C34.7891 29.9062 34.6328 29.6719 34.3594 29.4375L2.64062 0.84375C2.44531 0.648438 2.21094 0.570312 1.89844 0.570312C1.42969 0.570312 0.960938 0.921875 0.960938 1.50781C0.960938 1.78125 1.03906 1.97656 1.19531 2.13281L32.4062 30.2969L1.19531 58.4609C1.03906 58.6172 0.960938 58.8125 0.960938 59.0859C0.960938 59.6719 1.42969 60.0234 1.89844 60.0234C2.21094 60.0234 2.44531 59.9453 2.64062 59.75L34.3594 31.1562C34.6328 30.9219 34.7891 30.6875 34.7891 30.2969Z" fill="#F6F6FB"/>
</svg>
