<svg width="184" height="60" viewBox="0 0 184 60" fill="none" xmlns="http://www.w3.org/2000/svg">
<path d="M2 2H182V58H2V2Z" fill="white"/>
<path fill-rule="evenodd" clip-rule="evenodd" d="M181 3H3V57H181V3ZM2 2V58H182V2H2Z" fill="#007AFF"/>
<path d="M0 0H5V5H0V0Z" fill="white"/>
<path fill-rule="evenodd" clip-rule="evenodd" d="M4 1H1V4H4V1ZM0 0V5H5V0H0Z" fill="#007AFF"/>
<path d="M179 0H184V5H179V0Z" fill="white"/>
<path fill-rule="evenodd" clip-rule="evenodd" d="M183 1H180V4H183V1ZM179 0V5H184V0H179Z" fill="#007AFF"/>
<path d="M0 27H5V32H0V27Z" fill="white"/>
<path fill-rule="evenodd" clip-rule="evenodd" d="M4 28H1V31H4V28ZM0 27V32H5V27H0Z" fill="#007AFF"/>
<path d="M179 55H184V60H179V55Z" fill="white"/>
<path fill-rule="evenodd" clip-rule="evenodd" d="M183 56H180V59H183V56ZM179 55V60H184V55H179Z" fill="#007AFF"/>
<path d="M88 55H93V60H88V55Z" fill="white"/>
<path fill-rule="evenodd" clip-rule="evenodd" d="M92 56H89V59H92V56ZM88 55V60H93V55H88Z" fill="#007AFF"/>
<path d="M88 0H93V5H88V0Z" fill="white"/>
<path fill-rule="evenodd" clip-rule="evenodd" d="M92 1H89V4H92V1ZM88 0V5H93V0H88Z" fill="#007AFF"/>
<path d="M0 55H5V60H0V55Z" fill="white"/>
<path fill-rule="evenodd" clip-rule="evenodd" d="M4 56H1V59H4V56ZM0 55V60H5V55H0Z" fill="#007AFF"/>
<path d="M10 12C10 10.8954 10.8954 10 12 10H172C173.105 10 174 10.8954 174 12V48C174 49.1046 173.105 50 172 50H12C10.8954 50 10 49.1046 10 48V12Z" fill="#000928" fill-opacity="0.66"/>
<path d="M179 27H184V32H179V27Z" fill="white"/>
<path fill-rule="evenodd" clip-rule="evenodd" d="M183 28H180V31H183V28ZM179 27V32H184V27H179Z" fill="#007AFF"/>
</svg>
