<svg width="174" height="124" viewBox="0 0 174 124" fill="none" xmlns="http://www.w3.org/2000/svg">
<path d="M2 2H172V122H2V2Z" fill="white"/>
<path fill-rule="evenodd" clip-rule="evenodd" d="M171 3H3V121H171V3ZM2 2V122H172V2H2Z" fill="#007AFF"/>
<path d="M0 0H5V5H0V0Z" fill="white"/>
<path fill-rule="evenodd" clip-rule="evenodd" d="M4 1H1V4H4V1ZM0 0V5H5V0H0Z" fill="#007AFF"/>
<path d="M169 0H174V5H169V0Z" fill="white"/>
<path fill-rule="evenodd" clip-rule="evenodd" d="M173 1H170V4H173V1ZM169 0V5H174V0H169Z" fill="#007AFF"/>
<path d="M0 59H5V64H0V59Z" fill="white"/>
<path fill-rule="evenodd" clip-rule="evenodd" d="M4 60H1V63H4V60ZM0 59V64H5V59H0Z" fill="#007AFF"/>
<path d="M169 59H174V64H169V59Z" fill="white"/>
<path fill-rule="evenodd" clip-rule="evenodd" d="M173 60H170V63H173V60ZM169 59V64H174V59H169Z" fill="#007AFF"/>
<path d="M169 119H174V124H169V119Z" fill="white"/>
<path fill-rule="evenodd" clip-rule="evenodd" d="M173 120H170V123H173V120ZM169 119V124H174V119H169Z" fill="#007AFF"/>
<path d="M84 119H89V124H84V119Z" fill="white"/>
<path fill-rule="evenodd" clip-rule="evenodd" d="M88 120H85V123H88V120ZM84 119V124H89V119H84Z" fill="#007AFF"/>
<path d="M84 0H89V5H84V0Z" fill="white"/>
<path fill-rule="evenodd" clip-rule="evenodd" d="M88 1H85V4H88V1ZM84 0V5H89V0H84Z" fill="#007AFF"/>
<path d="M0 119H5V124H0V119Z" fill="white"/>
<path fill-rule="evenodd" clip-rule="evenodd" d="M4 120H1V123H4V120ZM0 119V124H5V119H0Z" fill="#007AFF"/>
<path d="M137 62C137 89.6142 114.614 112 87 112C59.3858 112 37 89.6142 37 62C37 34.3858 59.3858 12 87 12C114.614 12 137 34.3858 137 62Z" fill="#EBF02C"/>
<path d="M71 52C71 54.7614 68.7614 57 66 57C63.2386 57 61 54.7614 61 52C61 49.2386 63.2386 47 66 47C68.7614 47 71 49.2386 71 52Z" fill="#000928"/>
<path d="M113 52C113 54.7614 110.761 57 108 57C105.239 57 103 54.7614 103 52C103 49.2386 105.239 47 108 47C110.761 47 113 49.2386 113 52Z" fill="#000928"/>
<path d="M87.0001 77C92.7763 77 97.5994 72.9188 98.743 67.4827C99.0272 66.1316 97.8808 65 96.5001 65H77.5001C76.1194 65 74.973 66.1316 75.2572 67.4827C76.4008 72.9188 81.2239 77 87.0001 77Z" fill="#000928"/>
<path fill-rule="evenodd" clip-rule="evenodd" d="M93.9311 69H80.0691C81.453 71.3915 84.0414 73 87.0001 73C89.9588 73 92.5472 71.3915 93.9311 69ZM98.743 67.4827C97.5994 72.9188 92.7763 77 87.0001 77C81.2239 77 76.4008 72.9188 75.2572 67.4827C74.973 66.1316 76.1194 65 77.5001 65H96.5001C97.8808 65 99.0272 66.1316 98.743 67.4827Z" fill="#000928"/>
</svg>
