<svg width="174" height="252" viewBox="0 0 174 252" fill="none" xmlns="http://www.w3.org/2000/svg">
<path d="M172 2V250H2V2L172 2Z" fill="white"/>
<path fill-rule="evenodd" clip-rule="evenodd" d="M171 249V3L3 3V249H171ZM172 2L2 2V250H172V2Z" fill="#007AFF"/>
<path d="M174 0V5H169V0L174 0Z" fill="white"/>
<path fill-rule="evenodd" clip-rule="evenodd" d="M173 4V1L170 1V4H173ZM174 0L169 0V5H174V0Z" fill="#007AFF"/>
<path d="M174 247V252H169V247H174Z" fill="white"/>
<path fill-rule="evenodd" clip-rule="evenodd" d="M173 251V248H170V251H173ZM174 247H169V252H174V247Z" fill="#007AFF"/>
<path d="M89 0V5H84V0L89 0Z" fill="white"/>
<path fill-rule="evenodd" clip-rule="evenodd" d="M88 4V1L85 1V4H88ZM89 0L84 0V5H89V0Z" fill="#007AFF"/>
<path d="M89 247V252H84V247H89Z" fill="white"/>
<path fill-rule="evenodd" clip-rule="evenodd" d="M88 251V248H85V251H88ZM89 247H84V252H89V247Z" fill="#007AFF"/>
<path d="M5 247V252H0V247H5Z" fill="white"/>
<path fill-rule="evenodd" clip-rule="evenodd" d="M4 251V248H1V251H4ZM5 247H0V252H5V247Z" fill="#007AFF"/>
<path d="M5 124V129H0V124H5Z" fill="white"/>
<path fill-rule="evenodd" clip-rule="evenodd" d="M4 128V125H1V128H4ZM5 124H0V129H5V124Z" fill="#007AFF"/>
<path d="M174 124V129H169V124H174Z" fill="white"/>
<path fill-rule="evenodd" clip-rule="evenodd" d="M173 128V125H170V128H173ZM174 124H169V129H174V124Z" fill="#007AFF"/>
<path d="M5 0V5H0V0L5 0Z" fill="white"/>
<path fill-rule="evenodd" clip-rule="evenodd" d="M4 4V1L1 1V4H4ZM5 0L0 0V5H5V0Z" fill="#007AFF"/>
<path d="M29.4916 83.9687C28.5158 83.6888 28.5163 82.2848 29.4922 82.0054C66.0644 71.5376 75.5385 62.0641 86.0313 25.4916C86.3113 24.5158 87.7153 24.5163 87.9946 25.4922C98.4624 62.0642 107.936 71.5376 144.508 82.0054C145.484 82.2848 145.484 83.6888 144.508 83.9687C107.936 94.4615 98.4624 103.936 87.9946 140.508C87.7153 141.484 86.3113 141.484 86.0313 140.508C75.5385 103.936 66.0643 94.4615 29.4916 83.9687Z" fill="#007AFF"/>
<path d="M102.484 153.494C101.512 153.202 101.512 151.785 102.485 151.494C118.775 146.616 123.617 141.774 128.506 125.484C128.798 124.512 130.215 124.512 130.506 125.485C135.384 141.775 140.225 146.616 156.515 151.494C157.487 151.785 157.488 153.202 156.516 153.494C140.225 158.383 135.384 163.225 130.506 179.515C130.215 180.488 128.798 180.488 128.506 179.516C123.617 163.225 118.775 158.383 102.484 153.494Z" fill="#EBF02C"/>
<path d="M25.4974 189.985C24.5233 189.699 24.5237 188.284 25.498 187.999C48.7509 181.201 55.202 174.75 62.0155 151.497C62.3009 150.523 63.7166 150.524 64.0014 151.498C70.7991 174.751 77.2496 181.201 100.502 187.999C101.476 188.284 101.477 189.699 100.503 189.985C77.2497 196.798 70.7991 203.249 64.0014 226.502C63.7166 227.476 62.3009 227.477 62.0155 226.503C55.2019 203.249 48.7508 196.798 25.4974 189.985Z" fill="#000928"/>
</svg>
