<svg width="60" height="60" viewBox="0 0 60 60" fill="none" xmlns="http://www.w3.org/2000/svg">
<path d="M1.41421 31.4142C0.633166 30.6332 0.633165 29.3668 1.41421 28.5858L28.5858 1.41422C29.3668 0.633173 30.6332 0.633173 31.4142 1.41422L58.5858 28.5858C59.3668 29.3668 59.3668 30.6332 58.5858 31.4142L31.4142 58.5858C30.6332 59.3668 29.3668 59.3668 28.5858 58.5858L1.41421 31.4142Z" fill="#007AFF"/>
<path d="M19.6576 31.4142C18.8766 30.6332 18.8766 29.3668 19.6576 28.5858L28.8292 19.4142C29.6102 18.6332 30.8766 18.6332 31.6576 19.4142L40.8292 28.5858C41.6102 29.3668 41.6102 30.6332 40.8292 31.4142L31.6576 40.5858C30.8766 41.3668 29.6102 41.3668 28.8292 40.5858L19.6576 31.4142Z" fill="#EBF02C"/>
</svg>
