<svg width="60" height="60" viewBox="0 0 60 60" fill="none" xmlns="http://www.w3.org/2000/svg">
<path d="M3.4853 37.0085C2.51536 36.7091 2.51581 35.2814 3.48593 34.9826C15.4655 31.2926 19.2935 27.4651 22.9915 15.4853C23.2909 14.5153 24.7186 14.5158 25.0174 15.4859C28.7074 27.4653 32.5348 31.2926 44.5141 34.9826C45.4842 35.2814 45.4847 36.7091 44.5147 37.0085C32.5349 40.7065 28.7074 44.5345 25.0174 56.5141C24.7186 57.4842 23.2909 57.4847 22.9915 56.5147C19.2935 44.5346 15.4654 40.7066 3.4853 37.0085Z" fill="#007AFF"/>
<path d="M35.4673 15.0561C34.5081 14.7239 34.5085 13.2712 35.4679 12.9395C40.8874 11.0658 43.0667 8.88693 44.9439 3.46723C45.2762 2.50804 46.7288 2.50849 47.0605 3.46787C48.9342 8.88709 51.1129 11.0659 56.5322 12.9395C57.4915 13.2712 57.492 14.7239 56.5328 15.0561C51.1131 16.9333 48.9342 19.1126 47.0605 24.5321C46.7288 25.4915 45.2762 25.492 44.9439 24.5328C43.0667 19.1128 40.8873 16.9334 35.4673 15.0561Z" fill="#EBF02C"/>
</svg>
