<svg width="60" height="60" viewBox="0 0 60 60" fill="none" xmlns="http://www.w3.org/2000/svg">
<path d="M60 30C60 46.5685 46.5685 60 30 60C13.4315 60 0 46.5685 0 30C0 13.4315 13.4315 0 30 0C46.5685 0 60 13.4315 60 30Z" fill="#EBF02C"/>
<path d="M20.3999 24C20.3999 25.6569 19.0568 27 17.3999 27C15.743 27 14.3999 25.6569 14.3999 24C14.3999 22.3431 15.743 21 17.3999 21C19.0568 21 20.3999 22.3431 20.3999 24Z" fill="#000928"/>
<path d="M45.5999 24C45.5999 25.6569 44.2567 27 42.5999 27C40.943 27 39.5999 25.6569 39.5999 24C39.5999 22.3431 40.943 21 42.5999 21C44.2567 21 45.5999 22.3431 45.5999 24Z" fill="#000928"/>
<path d="M30 39C33.1159 39 35.7696 37.0206 36.7721 34.2507C37.242 32.9524 36.0807 31.8 34.7 31.8H25.3C23.9192 31.8 22.7579 32.9524 23.2278 34.2507C24.2304 37.0206 26.884 39 30 39Z" fill="#000928"/>
<path fill-rule="evenodd" clip-rule="evenodd" d="M36.7721 34.2507C35.7696 37.0206 33.1159 39 30 39C26.884 39 24.2304 37.0206 23.2278 34.2507C22.7579 32.9524 23.9192 31.8 25.3 31.8H34.7C36.0807 31.8 37.242 32.9524 36.7721 34.2507Z" fill="#000928"/>
</svg>
