<svg width="60" height="60" viewBox="0 0 60 60" fill="none" xmlns="http://www.w3.org/2000/svg">
<path d="M37.4664 16.7961C38.2581 15.6087 40.003 15.6087 40.7946 16.7961L57.9272 42.4949C58.8132 43.8241 57.8604 45.6043 56.2631 45.6043H21.998C20.4006 45.6043 19.4478 43.8241 20.3339 42.4949L37.4664 16.7961Z" fill="white"/>
<path d="M19.2054 21.7961C19.9971 20.6087 21.742 20.6087 22.5336 21.7961L39.6662 47.4949C40.5522 48.8241 39.5995 50.6043 38.0021 50.6043H3.737C2.13961 50.6043 1.18683 48.8241 2.0729 47.4949L19.2054 21.7961Z" fill="#EBF02C"/>
<path d="M17.8261 15.9565C17.8261 19.7985 14.7116 22.913 10.8696 22.913C7.02763 22.913 3.91309 19.7985 3.91309 15.9565C3.91309 12.1145 7.02763 9 10.8696 9C14.7116 9 17.8261 12.1145 17.8261 15.9565Z" fill="#007AFF"/>
</svg>
