<svg width="100" height="40" viewBox="0 0 100 40" fill="none" xmlns="http://www.w3.org/2000/svg">
<g clip-path="url(#clip0_202_229)">
<path d="M75.6825 32.704C75.5443 32.6701 75.3954 32.6518 75.2625 32.6545C74.9143 32.6545 74.6325 32.7353 74.4198 32.8997C74.2869 33.0067 74.1753 33.132 74.0902 33.2755V32.704H72.6601V37.5002H74.1407V34.5045C74.2657 34.3297 74.4331 34.1914 74.6325 34.1027C74.8452 34.0035 75.1163 33.9539 75.4406 33.9539H75.733V32.7145L75.6825 32.7014V32.704Z" fill="#04295E"/>
<path d="M81.3313 36.8374L78.8113 30.9844H78.1228V37.4871H78.6597V31.8116L81.084 37.4871H81.5758L83.9762 31.8168V37.4871H84.5105V30.9844H83.822L81.3313 36.8374Z" fill="#04295E"/>
<path d="M52.2794 34.1862C52.5506 33.8652 52.6888 33.4686 52.6888 33.0015C52.6968 32.6936 52.6197 32.3883 52.4708 32.1169C52.3273 31.8638 52.1199 31.6472 51.8754 31.4854C51.5989 31.308 51.2959 31.1827 50.9742 31.1123C50.6021 31.0288 50.2219 30.987 49.8418 30.9922H47.8189V37.4975H49.3288V35.1699H49.6717L51.567 37.4975H53.4544L51.2108 34.8855C51.668 34.7185 52.0269 34.4836 52.2794 34.1862ZM51.1789 33.0276C51.1789 33.359 51.0487 33.5991 50.7775 33.7687C50.5011 33.9409 50.1289 34.027 49.6744 34.027H49.3288V32.1665H49.8312C50.2352 32.1665 50.5702 32.2369 50.82 32.3778C51.0619 32.5135 51.1789 32.7275 51.1789 33.0302V33.0276Z" fill="#04295E"/>
<path d="M99.7554 34.2462C99.7501 34.1157 99.7315 33.98 99.6996 33.8391C99.6677 33.6982 99.6145 33.5547 99.5428 33.4164C99.4683 33.2755 99.3673 33.1476 99.2397 33.0354C99.1121 32.9232 98.9447 32.8319 98.7453 32.764C98.5459 32.6962 98.304 32.6623 98.0223 32.6623C97.8335 32.6623 97.6475 32.6884 97.464 32.7353C97.2806 32.7849 97.1105 32.858 96.9563 32.9571C96.8021 33.0563 96.6639 33.1763 96.547 33.3146C96.4858 33.3877 96.4326 33.466 96.3848 33.5495V30.9844H95.9037V37.4871H96.3848V34.9403C96.3848 34.6689 96.422 34.4158 96.4964 34.1888C96.5709 33.9618 96.6772 33.7661 96.8181 33.6043C96.959 33.4425 97.1291 33.3146 97.3258 33.2233C97.5252 33.132 97.7538 33.0876 98.0116 33.0876C98.3147 33.0876 98.5539 33.1424 98.7214 33.2468C98.8915 33.3538 99.0191 33.4816 99.1015 33.6304C99.1866 33.7791 99.2371 33.9383 99.253 34.1001C99.2716 34.2697 99.2796 34.4106 99.2796 34.5228V37.4897H99.7607V34.5854C99.7607 34.4889 99.7581 34.3767 99.7501 34.2488L99.7554 34.2462Z" fill="#04295E"/>
<path d="M94.3007 35.1413C94.1466 35.0395 93.9605 34.9586 93.7505 34.9012C93.5431 34.8438 93.3199 34.7942 93.0912 34.7524C92.9025 34.7107 92.7138 34.6689 92.5277 34.6272C92.3469 34.5881 92.1821 34.5333 92.0359 34.4654C91.8977 34.4028 91.7834 34.3167 91.6983 34.2123C91.6159 34.1131 91.5761 33.9748 91.5761 33.8078C91.5761 33.6617 91.6133 33.5365 91.6877 33.4347C91.7648 33.3303 91.8631 33.2442 91.9828 33.1763C92.105 33.1085 92.2433 33.0615 92.3974 33.0328C92.7483 32.9676 93.0992 32.9754 93.3969 33.0537C93.5591 33.0955 93.7 33.1607 93.8169 33.2494C93.9312 33.3355 94.0243 33.4477 94.0907 33.586C94.1572 33.7269 94.1891 33.8966 94.1891 34.0949V34.1601H94.6702V34.0949C94.6702 33.8235 94.6224 33.5886 94.532 33.3982C94.439 33.2051 94.3087 33.0433 94.1466 32.9206C93.9844 32.798 93.7904 32.7067 93.5671 32.6492C93.1683 32.5501 92.7005 32.5396 92.2459 32.6258C92.0386 32.6649 91.8472 32.7327 91.6824 32.8241C91.5123 32.918 91.3714 33.0459 91.2624 33.2051C91.1507 33.3668 91.0949 33.5704 91.0949 33.8078C91.0949 34.1392 91.1826 34.3976 91.3501 34.5698C91.5149 34.7394 91.7249 34.8725 91.9748 34.9664C92.2193 35.0578 92.4852 35.1256 92.7669 35.17C93.0407 35.2143 93.2986 35.2717 93.5378 35.3422C93.7691 35.41 93.9631 35.5092 94.1147 35.6344C94.2582 35.7545 94.33 35.9267 94.33 36.1642C94.33 36.3442 94.2848 36.4956 94.1971 36.6104C94.1067 36.7304 93.9897 36.8243 93.8515 36.8896C93.708 36.9574 93.5511 37.0044 93.3836 37.0305C92.9796 37.0931 92.6314 37.0827 92.331 36.9835C92.1582 36.9261 92.004 36.8426 91.8738 36.733C91.7435 36.6234 91.6372 36.4877 91.5548 36.3338C91.475 36.1798 91.4272 35.9971 91.4166 35.7936V35.731H90.9328V35.7988C90.9407 36.0754 90.9939 36.3207 91.0976 36.5295C91.1986 36.7382 91.3395 36.9209 91.5176 37.0644C91.6957 37.2079 91.9057 37.3175 92.1396 37.388C92.3735 37.4584 92.6314 37.4924 92.9052 37.4924C93.1152 37.4924 93.3331 37.4715 93.5538 37.4323C93.7771 37.3932 93.9818 37.3201 94.1652 37.221C94.3486 37.1192 94.5054 36.9809 94.625 36.8139C94.7473 36.6417 94.8111 36.4225 94.8111 36.1615C94.8111 35.9136 94.7659 35.7049 94.6756 35.5405C94.5852 35.3761 94.4602 35.2404 94.3007 35.1386V35.1413Z" fill="#04295E"/>
<path d="M89.383 33.2546C89.2076 33.0433 88.9843 32.8736 88.7238 32.751C88.4633 32.6284 88.1576 32.5657 87.82 32.5657C87.4505 32.5657 87.1262 32.6362 86.8497 32.7745C86.5759 32.9128 86.3447 33.0981 86.1639 33.3277C85.9831 33.5547 85.8449 33.8235 85.7545 34.1262C85.6642 34.4263 85.619 34.742 85.619 35.0682C85.619 35.3944 85.6641 35.7258 85.7492 36.018C85.8369 36.3155 85.9725 36.5738 86.1506 36.7904C86.3314 37.0096 86.5573 37.1818 86.8231 37.3071C87.0916 37.4323 87.408 37.4976 87.7642 37.4976C88.3463 37.4976 88.8195 37.3488 89.1757 37.054C89.5319 36.7591 89.7658 36.3311 89.8721 35.7858L89.8881 35.7075H89.4069L89.3937 35.7571C89.2926 36.1694 89.1092 36.4955 88.8461 36.7278C88.5856 36.9574 88.2214 37.0722 87.7695 37.0722C87.493 37.0722 87.2485 37.02 87.0411 36.9183C86.8338 36.8165 86.6583 36.6756 86.5228 36.5008C86.3845 36.3233 86.2782 36.1146 86.2064 35.8797C86.1373 35.6475 86.1001 35.3996 86.1001 35.1412H89.9094V35.076C89.9094 35.0525 89.9093 35.0238 89.9147 34.9873C89.9173 34.9481 89.92 34.9116 89.92 34.8803C89.92 34.5646 89.8748 34.2671 89.7844 33.9905C89.694 33.7139 89.5585 33.466 89.383 33.2546ZM86.116 34.7159C86.1373 34.5098 86.1825 34.3036 86.2543 34.1053C86.3314 33.8887 86.4404 33.6956 86.5812 33.5338C86.7221 33.372 86.8949 33.239 87.1023 33.1398C87.3069 33.0407 87.5462 32.9911 87.8173 32.9911C88.0672 32.9911 88.2958 33.0407 88.4899 33.1346C88.6866 33.2311 88.854 33.3616 88.9923 33.5234C89.1305 33.6852 89.2342 33.8757 89.3059 34.0896C89.3697 34.2853 89.4123 34.4941 89.4282 34.7133H86.1187L86.116 34.7159Z" fill="#04295E"/>
<path d="M55.4401 34.789H57.875V33.5965H55.4401V32.1848H57.9946V30.9922H53.9302V37.5002H58.0239V36.3051H55.4401V34.789Z" fill="#04295E"/>
<path d="M70.7807 31.9134C70.4218 31.6107 70.0098 31.3811 69.5606 31.2323C69.0475 31.0653 68.5053 30.9818 67.9736 30.9896H65.9321V37.4976H67.9736C67.9949 37.4976 68.0162 37.4976 68.0374 37.4976C68.5558 37.4976 69.0688 37.4167 69.5632 37.2549C70.0125 37.1061 70.4245 36.8791 70.786 36.5738C71.1236 36.2868 71.3868 35.9397 71.5702 35.5405C71.937 34.7133 71.937 33.7661 71.5702 32.9389C71.3868 32.5423 71.1236 32.1952 70.786 31.9082L70.7807 31.9134ZM70.1613 35.1125C70.0524 35.3578 69.8876 35.5796 69.6829 35.7571C69.4649 35.9397 69.2177 36.078 68.9439 36.1615C68.6408 36.2581 68.3245 36.3051 68.0029 36.3024H67.4393V32.1848H68.0029C68.0029 32.1848 68.0215 32.1848 68.0321 32.1848C68.3431 32.1848 68.6488 32.2317 68.9465 32.3257C69.2203 32.4118 69.4675 32.5475 69.6855 32.7301C69.8902 32.9076 70.055 33.1294 70.164 33.3721C70.3953 33.9331 70.3953 34.5515 70.164 35.1099L70.1613 35.1125Z" fill="#04295E"/>
<path d="M62.6811 30.9922H61.0968L58.5608 37.5002H60.1265L60.5891 36.1589H63.1835L63.646 37.5002H65.2144L62.6944 31.034L62.6784 30.9922H62.6811ZM62.7794 34.9638H60.9984L61.8889 32.3335L62.7794 34.9638Z" fill="#04295E"/>
<path d="M40.748 5.59202V13.2116C40.748 16.2959 38.2626 18.8036 35.2056 18.8036H27.0448C25.9284 18.8036 24.8518 18.467 23.9294 17.8303L18.2328 23.5814C18.8947 24.5287 19.2429 25.6377 19.2429 26.7884V34.408C19.2429 37.4923 16.7575 40 13.7005 40H5.54241C2.48545 40 0 37.4923 0 34.408V26.7884C0 23.7041 2.48545 21.1964 5.54241 21.1964H13.7032C14.9127 21.1964 16.0637 21.5878 17.0339 22.3289L22.6721 16.6377C21.9065 15.6462 21.5051 14.4641 21.5051 13.2142V5.59202C21.5051 2.50767 23.9905 0 27.0475 0H35.2083C38.2652 0 40.7507 2.50767 40.7507 5.59202H40.748ZM40.7214 26.7597V34.3793C40.7214 37.4636 38.236 39.9713 35.179 39.9713H27.0183C23.9613 39.9713 21.4759 37.4636 21.4759 34.3793V26.7597C21.4759 23.6754 23.9613 21.1677 27.0183 21.1677H35.179C38.236 21.1677 40.7214 23.6754 40.7214 26.7597ZM22.9751 26.7597V34.3793C22.9751 36.6312 24.7907 38.4657 27.0209 38.4657H35.1817C37.4119 38.4657 39.2275 36.6338 39.2275 34.3793V26.7597C39.2275 24.5078 37.4119 22.6734 35.1817 22.6734H27.0209C24.7907 22.6734 22.9751 24.5052 22.9751 26.7597ZM0 13.2742V5.65464C0 2.57029 2.48545 0.0626264 5.54241 0.0626264H13.7032C16.7601 0.0626264 19.2456 2.57029 19.2456 5.65464V13.2742C19.2456 16.3585 16.7601 18.8662 13.7032 18.8662H5.54241C2.48545 18.8662 0 16.3585 0 13.2742ZM5.54241 17.3606H13.7032C15.9334 17.3606 17.749 15.5287 17.749 13.2742V5.65464C17.749 3.4027 15.9334 1.56827 13.7032 1.56827H5.54241C3.31216 1.56827 1.49658 3.40009 1.49658 5.65464V13.2742C1.49658 15.5261 3.31216 17.3606 5.54241 17.3606Z" fill="#04295E"/>
<path d="M56.0461 12.2017H68.3883V8.08661H56.0461V12.2017ZM64.6482 9.39654H66.6578V10.8683H64.6482V9.39654ZM61.2111 9.39654H63.1968V10.8683H61.2111V9.39654ZM57.7501 9.39654H59.7836V10.8683H57.7501V9.39654Z" fill="#04295E"/>
<path d="M61.3653 5.94689H56.4635V7.32467H68.0401V5.94689H63.2553V5.02054H68.8057V3.57491H63.2553V2.39023H61.3653V3.57491H55.674V5.02054H61.3653V5.94689Z" fill="#04295E"/>
<path d="M48.3134 23.19H54.7808V15.2469H48.3134V23.19ZM50.113 16.9196H52.9599V21.4704H50.113V16.9196Z" fill="#04295E"/>
<path d="M69.1698 22.2115C67.9231 21.6374 66.5754 21.1338 65.1453 20.7032H67.644V12.9193H56.7878V20.7032H59.6215C58.4093 21.2512 56.926 21.7079 55.1982 22.0627L55.0307 22.0967L55.7803 23.5971L55.884 23.571C58.0797 23.0334 59.8448 22.3941 61.2802 21.6217L61.4237 21.5435L60.6927 20.7006H63.7763L63.1649 21.58L63.3403 21.6296C64.9911 22.0967 66.6073 22.7334 68.2873 23.5814L68.3936 23.6362L69.3107 22.2741L69.1725 22.2089L69.1698 22.2115ZM58.5874 14.2292H65.7992V15.153H58.5874V14.2292ZM58.5874 16.3272H65.7992V17.2066H58.5874V16.3272ZM58.5874 19.3254V18.4017H65.7992V19.3254H58.5874Z" fill="#04295E"/>
<path d="M54.6639 11.8964H48.4516V13.5716H54.6639V11.8964Z" fill="#04295E"/>
<path d="M55.2912 5.28408H54.0339H52.6968V2.51547H50.8094V5.28408H50.7217H47.8189H47.686V7.05067H55.2912V5.28408Z" fill="#04295E"/>
<path d="M54.6639 8.70505H48.4516V10.3803H54.6639V8.70505Z" fill="#04295E"/>
<path d="M86.8444 9.91584H91.9376V8.37888H87.5914C87.0252 8.37888 86.9534 8.12055 86.9534 7.89353V6.88889H91.5282V2.56506H85.2202V8.53284C85.2202 9.45136 85.7678 9.91584 86.8471 9.91584H86.8444ZM86.9534 5.44849V4.05505H89.7924V5.44849H86.9534ZM78.7793 5.04402V3.19133H82.9368V5.04402H78.7793ZM94.0774 9.91845H99.1706V8.38149H94.8244C94.2582 8.38149 94.1864 8.12316 94.1864 7.89613V6.8915H98.7612V2.56506H92.4533V8.53284C92.4533 9.45136 93.0009 9.91584 94.0801 9.91584L94.0774 9.91845ZM94.1864 5.4511V4.05766H97.0254V5.4511H94.1864ZM100 21.4704L99.5534 23.3675H93.4767C91.6691 23.3675 90.0476 23.344 88.6573 23.297C87.0119 23.25 85.7306 23.0308 84.8507 22.6473C83.83 22.2428 82.9262 21.6217 82.0888 20.7502C81.9054 20.5701 81.7114 20.531 81.5838 20.531C81.2116 20.531 80.4859 21.0529 79.1488 23.5345L79.0691 23.6832L77.6629 22.4124L77.7134 22.3237C78.8298 20.2988 79.8665 19.148 80.8846 18.8062C81.3525 17.6345 81.7193 16.3324 82.0064 14.8346H78.5427V13.3786L78.5746 13.342C79.6938 12.066 80.6268 10.8265 81.4243 9.56356H77.9898V7.78915H83.6731V9.25565L83.6545 9.28696C82.881 10.6021 81.9905 11.8703 80.9298 13.1568H83.9124V14.3988C83.5615 16.3768 83.1787 17.9007 82.7374 19.0723C82.9129 19.1871 83.1043 19.3385 83.3143 19.5238C84.0347 20.2074 84.7976 20.7319 85.5924 21.0868C86.3367 21.3843 87.4079 21.5487 88.7663 21.5722H88.769C89.375 21.5722 90.029 21.5774 90.7254 21.5826C91.5202 21.5878 92.3682 21.5957 93.2667 21.5957C95.0716 21.5957 97.4906 21.5382 99.8352 21.4782L100.008 21.473L100 21.4704ZM89.6116 17.0135C88.4207 17.9477 86.9162 18.7931 85.1405 19.5238L84.981 19.589L86.0868 21.0111L86.1825 20.9694C87.9981 20.1735 89.5638 19.2185 90.8371 18.1355L90.9514 18.039L89.7685 17.0109H93.9366L93.0248 18.313L93.179 18.373C94.8882 19.0436 96.531 19.9595 98.0595 21.0973L98.1738 21.1834L99.1626 19.6829L99.0563 19.6099C97.5943 18.6079 95.9728 17.7572 94.1067 17.0109H99.5215V15.286H95.6936V13.4203H98.8011V11.7163H95.6936V10.2029H93.8621V11.7163H90.2283V10.2029H88.4207V11.7163H85.2176V13.4203H88.4207V15.286H84.5929V17.0109H89.609L89.6036 17.0161L89.6116 17.0135ZM90.2363 15.2834V13.4177H93.8701V15.2834H90.2363Z" fill="#04295E"/>
</g>
<defs>
<clipPath id="clip0_202_229">
<rect width="100" height="40" fill="white"/>
</clipPath>
</defs>
</svg>
