<svg width="90" height="129" viewBox="0 0 90 129" fill="none" xmlns="http://www.w3.org/2000/svg">
<path d="M88 2V126H3V2L88 2Z" fill="white"/>
<path fill-rule="evenodd" clip-rule="evenodd" d="M87 125V3L4 3V125H87ZM88 2L3 2V126H88V2Z" fill="#007AFF"/>
<path d="M90 0V5H85V0L90 0Z" fill="white"/>
<path fill-rule="evenodd" clip-rule="evenodd" d="M89 4V1L86 1V4H89ZM90 0L85 0V5H90V0Z" fill="#007AFF"/>
<path d="M90 123.5V128.5H85V123.5H90Z" fill="white"/>
<path fill-rule="evenodd" clip-rule="evenodd" d="M89 127.5V124.5H86V127.5H89ZM90 123.5H85V128.5H90V123.5Z" fill="#007AFF"/>
<path d="M48 0V5H43V0L48 0Z" fill="white"/>
<path fill-rule="evenodd" clip-rule="evenodd" d="M47 4V1L44 1V4H47ZM48 0L43 0V5H48V0Z" fill="#007AFF"/>
<path d="M48 123.5V128.5H43V123.5H48Z" fill="white"/>
<path fill-rule="evenodd" clip-rule="evenodd" d="M47 127.5V124.5H44V127.5H47ZM48 123.5H43V128.5H48V123.5Z" fill="#007AFF"/>
<path d="M5.5 123.5V128.5H0.5V123.5H5.5Z" fill="white"/>
<path fill-rule="evenodd" clip-rule="evenodd" d="M4.5 127.5V124.5H1.5V127.5H4.5ZM5.5 123.5H0.5V128.5H5.5V123.5Z" fill="#007AFF"/>
<path d="M5.5 62V67H0.5V62H5.5Z" fill="white"/>
<path fill-rule="evenodd" clip-rule="evenodd" d="M4.5 66V63H1.5V66H4.5ZM5.5 62H0.5V67H5.5V62Z" fill="#007AFF"/>
<path d="M90 62V67H85V62H90Z" fill="white"/>
<path fill-rule="evenodd" clip-rule="evenodd" d="M89 66V63H86V66H89ZM90 62H85V67H90V62Z" fill="#007AFF"/>
<path d="M5.5 0V5H0.5V0L5.5 0Z" fill="white"/>
<path fill-rule="evenodd" clip-rule="evenodd" d="M4.5 4V1L1.5 1V4H4.5ZM5.5 0L0.5 0V5H5.5V0Z" fill="#007AFF"/>
<path d="M18.4842 43.4941C17.5119 43.2024 17.5124 41.7852 18.4848 41.494C34.7748 36.6163 39.6171 31.7745 44.5058 15.4843C44.7976 14.512 46.2148 14.5124 46.5059 15.4849C51.3836 31.7746 56.2254 36.6163 72.5151 41.494C73.4875 41.7852 73.4879 43.2024 72.5157 43.4941C56.2255 48.3828 51.3837 53.2252 46.5059 69.5151C46.2148 70.4876 44.7976 70.488 44.5058 69.5157C39.6171 53.2253 34.7746 48.3829 18.4842 43.4941Z" fill="#007AFF"/>
<path d="M54.9668 78.2945C54.005 77.9698 54.0054 76.5248 54.9674 76.2007C61.2029 74.0998 63.6006 71.7025 65.7055 65.4669C66.0301 64.5051 67.4752 64.5056 67.7993 65.4675C69.9 71.7027 72.2973 74.0999 78.5324 76.2007C79.4944 76.5248 79.4949 77.9698 78.5331 78.2945C72.2974 80.3993 69.9001 82.7971 67.7993 89.0325C67.4752 89.9945 66.0301 89.995 65.7055 89.0332C63.6006 82.7972 61.2027 80.3994 54.9668 78.2945Z" fill="#EBF02C"/>
<path d="M16.4767 96.5176C15.5089 96.2115 15.5093 94.7806 16.4774 94.4751C26.153 91.4215 29.4224 88.1527 32.4823 78.4768C32.7884 77.509 34.2193 77.5094 34.5248 78.4774C37.5784 88.1528 40.8471 91.4216 50.5225 94.4751C51.4905 94.7806 51.491 96.2115 50.5231 96.5176C40.8473 99.5776 37.5784 102.847 34.5248 112.523C34.2193 113.491 32.7884 113.491 32.4823 112.523C29.4223 102.847 26.1529 99.5776 16.4767 96.5176Z" fill="#000928"/>
</svg>
