<svg width="89" height="64" viewBox="0 0 89 64" fill="none" xmlns="http://www.w3.org/2000/svg">
<path d="M2 2H87V62H2V2Z" fill="white"/>
<path fill-rule="evenodd" clip-rule="evenodd" d="M86 3H3V61H86V3ZM2 2V62H87V2H2Z" fill="#007AFF"/>
<path d="M0 0H5V5H0V0Z" fill="white"/>
<path fill-rule="evenodd" clip-rule="evenodd" d="M4 1H1V4H4V1ZM0 0V5H5V0H0Z" fill="#007AFF"/>
<path d="M84 0H89V5H84V0Z" fill="white"/>
<path fill-rule="evenodd" clip-rule="evenodd" d="M88 1H85V4H88V1ZM84 0V5H89V0H84Z" fill="#007AFF"/>
<path d="M0 30H5V35H0V30Z" fill="white"/>
<path fill-rule="evenodd" clip-rule="evenodd" d="M4 31H1V34H4V31ZM0 30V35H5V30H0Z" fill="#007AFF"/>
<path d="M84 30H89V35H84V30Z" fill="white"/>
<path fill-rule="evenodd" clip-rule="evenodd" d="M88 31H85V34H88V31ZM84 30V35H89V30H84Z" fill="#007AFF"/>
<path d="M84 59H89V64H84V59Z" fill="white"/>
<path fill-rule="evenodd" clip-rule="evenodd" d="M88 60H85V63H88V60ZM84 59V64H89V59H84Z" fill="#007AFF"/>
<path d="M42 59H47V64H42V59Z" fill="white"/>
<path fill-rule="evenodd" clip-rule="evenodd" d="M46 60H43V63H46V60ZM42 59V64H47V59H42Z" fill="#007AFF"/>
<path d="M42 0H47V5H42V0Z" fill="white"/>
<path fill-rule="evenodd" clip-rule="evenodd" d="M46 1H43V4H46V1ZM42 0V5H47V0H42Z" fill="#007AFF"/>
<path d="M0 59H5V64H0V59Z" fill="white"/>
<path fill-rule="evenodd" clip-rule="evenodd" d="M4 60H1V63H4V60ZM0 59V64H5V59H0Z" fill="#007AFF"/>
<path d="M69.5 32C69.5 45.8071 58.3071 57 44.5 57C30.6929 57 19.5 45.8071 19.5 32C19.5 18.1929 30.6929 7 44.5 7C58.3071 7 69.5 18.1929 69.5 32Z" fill="#EBF02C"/>
<path d="M36.5 27C36.5 28.3807 35.3807 29.5 34 29.5C32.6193 29.5 31.5 28.3807 31.5 27C31.5 25.6193 32.6193 24.5 34 24.5C35.3807 24.5 36.5 25.6193 36.5 27Z" fill="#000928"/>
<path d="M57.5 27C57.5 28.3807 56.3807 29.5 55 29.5C53.6193 29.5 52.5 28.3807 52.5 27C52.5 25.6193 53.6193 24.5 55 24.5C56.3807 24.5 57.5 25.6193 57.5 27Z" fill="#000928"/>
<path d="M44.4999 39.5C46.9491 39.5 49.0556 38.0325 49.988 35.9289C50.5475 34.6666 49.3806 33.5 47.9999 33.5H40.9999C39.6192 33.5 38.4524 34.6666 39.0119 35.9289C39.9443 38.0325 42.0507 39.5 44.4999 39.5Z" fill="#000928"/>
<path fill-rule="evenodd" clip-rule="evenodd" d="M49.988 35.9289C49.0556 38.0325 46.9491 39.5 44.4999 39.5C42.0507 39.5 39.9443 38.0325 39.0119 35.9289C38.4524 34.6666 39.6192 33.5 40.9999 33.5H47.9999C49.3806 33.5 50.5475 34.6666 49.988 35.9289Z" fill="#000928"/>
</svg>
