<svg width="185" height="32" viewBox="0 0 185 32" fill="none" xmlns="http://www.w3.org/2000/svg">
<path d="M2 2H182V30H2V2Z" fill="white"/>
<path fill-rule="evenodd" clip-rule="evenodd" d="M181 3H3V29H181V3ZM2 2V30H182V2H2Z" fill="#007AFF"/>
<path d="M0 0H5V5H0V0Z" fill="white"/>
<path fill-rule="evenodd" clip-rule="evenodd" d="M4 1H1V4H4V1ZM0 0V5H5V0H0Z" fill="#007AFF"/>
<path d="M179.5 0H184.5V5H179.5V0Z" fill="white"/>
<path fill-rule="evenodd" clip-rule="evenodd" d="M183.5 1H180.5V4H183.5V1ZM179.5 0V5H184.5V0H179.5Z" fill="#007AFF"/>
<path d="M0 14H5V19H0V14Z" fill="white"/>
<path fill-rule="evenodd" clip-rule="evenodd" d="M4 15H1V18H4V15ZM0 14V19H5V14H0Z" fill="#007AFF"/>
<path d="M179.5 27H184.5V32H179.5V27Z" fill="white"/>
<path fill-rule="evenodd" clip-rule="evenodd" d="M183.5 28H180.5V31H183.5V28ZM179.5 27V32H184.5V27H179.5Z" fill="#007AFF"/>
<path d="M89 27H94V32H89V27Z" fill="white"/>
<path fill-rule="evenodd" clip-rule="evenodd" d="M93 28H90V31H93V28ZM89 27V32H94V27H89Z" fill="#007AFF"/>
<path d="M89 0H94V5H89V0Z" fill="white"/>
<path fill-rule="evenodd" clip-rule="evenodd" d="M93 1H90V4H93V1ZM89 0V5H94V0H89Z" fill="#007AFF"/>
<path d="M0 27H5V32H0V27Z" fill="white"/>
<path fill-rule="evenodd" clip-rule="evenodd" d="M4 28H1V31H4V28ZM0 27V32H5V27H0Z" fill="#007AFF"/>
<path d="M179.5 14H184.5V19H179.5V14Z" fill="white"/>
<path fill-rule="evenodd" clip-rule="evenodd" d="M183.5 15H180.5V18H183.5V15ZM179.5 14V19H184.5V14H179.5Z" fill="#007AFF"/>
<path d="M6 8C6 6.89543 6.89543 6 8 6H176C177.105 6 178 6.89543 178 8V24C178 25.1046 177.105 26 176 26H8C6.89543 26 6 25.1046 6 24V8Z" fill="#000928" fill-opacity="0.66"/>
</svg>
