<svg width="600" height="758" viewBox="0 0 600 758" fill="none" xmlns="http://www.w3.org/2000/svg">
<path d="M-14 46.5685C-14 48.3957 -12.4691 49.9266 -10.642 49.9266H22.642V83.2105C22.642 85.0377 24.1728 86.5685 26 86.5685C27.8272 86.5685 29.358 85.0377 29.358 83.2105V49.9266H62.6914C64.4691 49.9266 66 48.3957 66 46.5685C66 44.7414 64.4691 43.2105 62.6914 43.2105H29.358V9.87718C29.358 8.09941 27.8272 6.56854 26 6.56854C24.1728 6.56854 22.642 8.09941 22.642 9.87718V43.2105H-10.642C-12.4691 43.2105 -14 44.7414 -14 46.5685Z" fill="white" fill-opacity="0.3"/>
<path d="M94.2843 74.8528C95.5763 76.1448 97.7412 76.1448 99.0332 74.8528L122.569 51.3175L146.104 74.8528C147.396 76.1448 149.561 76.1448 150.853 74.8528C152.145 73.5608 152.145 71.3958 150.853 70.1038L127.318 46.5685L150.888 22.9983C152.145 21.7412 152.145 19.5763 150.853 18.2843C149.561 16.9923 147.396 16.9923 146.139 18.2494L122.569 41.8196L98.9983 18.2494C97.7412 16.9923 95.5763 16.9923 94.2843 18.2843C92.9923 19.5763 92.9923 21.7412 94.2494 22.9983L117.82 46.5685L94.2843 70.1038C92.9923 71.3958 92.9923 73.5608 94.2843 74.8528Z" fill="white" fill-opacity="0.3"/>
<path d="M179.137 46.5685C179.137 48.3957 180.668 49.9266 182.495 49.9266H215.779V83.2105C215.779 85.0377 217.31 86.5685 219.137 86.5685C220.964 86.5685 222.495 85.0377 222.495 83.2105V49.9266H255.828C257.606 49.9266 259.137 48.3957 259.137 46.5685C259.137 44.7414 257.606 43.2105 255.828 43.2105H222.495V9.87718C222.495 8.09941 220.964 6.56854 219.137 6.56854C217.31 6.56854 215.779 8.09941 215.779 9.87718V43.2105H182.495C180.668 43.2105 179.137 44.7414 179.137 46.5685Z" fill="white" fill-opacity="0.3"/>
<path d="M287.421 74.8528C288.713 76.1448 290.878 76.1448 292.17 74.8528L315.706 51.3175L339.241 74.8528C340.533 76.1448 342.698 76.1448 343.99 74.8528C345.282 73.5608 345.282 71.3958 343.99 70.1038L320.454 46.5685L344.025 22.9983C345.282 21.7412 345.282 19.5763 343.99 18.2843C342.698 16.9923 340.533 16.9923 339.276 18.2494L315.706 41.8196L292.135 18.2494C290.878 16.9923 288.713 16.9923 287.421 18.2843C286.129 19.5763 286.129 21.7412 287.386 22.9983L310.957 46.5685L287.421 70.1038C286.129 71.3958 286.129 73.5608 287.421 74.8528Z" fill="white" fill-opacity="0.3"/>
<path d="M372.274 46.5685C372.274 48.3957 373.805 49.9266 375.632 49.9266H408.916V83.2105C408.916 85.0377 410.447 86.5685 412.274 86.5685C414.101 86.5685 415.632 85.0377 415.632 83.2105V49.9266H448.966C450.743 49.9266 452.274 48.3957 452.274 46.5685C452.274 44.7414 450.743 43.2105 448.966 43.2105H415.632V9.87718C415.632 8.09941 414.101 6.56854 412.274 6.56854C410.447 6.56854 408.916 8.09941 408.916 9.87718V43.2105H375.632C373.805 43.2105 372.274 44.7414 372.274 46.5685Z" fill="white" fill-opacity="0.3"/>
<path d="M480.558 74.8528C481.85 76.1448 484.015 76.1448 485.307 74.8528L508.843 51.3175L532.378 74.8528C533.67 76.1448 535.835 76.1448 537.127 74.8528C538.419 73.5608 538.419 71.3958 537.127 70.1038L513.592 46.5685L537.162 22.9983C538.419 21.7412 538.419 19.5763 537.127 18.2843C535.835 16.9923 533.67 16.9923 532.413 18.2494L508.843 41.8196L485.272 18.2494C484.015 16.9923 481.85 16.9923 480.558 18.2843C479.266 19.5763 479.266 21.7412 480.524 22.9983L504.094 46.5685L480.558 70.1038C479.266 71.3958 479.266 73.5608 480.558 74.8528Z" fill="white" fill-opacity="0.3"/>
<path d="M565.411 46.5685C565.411 48.3957 566.942 49.9266 568.769 49.9266H602.053V83.2105C602.053 85.0377 603.584 86.5685 605.411 86.5685C607.238 86.5685 608.769 85.0377 608.769 83.2105V49.9266H642.103C643.88 49.9266 645.411 48.3957 645.411 46.5685C645.411 44.7414 643.88 43.2105 642.103 43.2105H608.769V9.87718C608.769 8.09941 607.238 6.56854 605.411 6.56854C603.584 6.56854 602.053 8.09941 602.053 9.87718V43.2105H568.769C566.942 43.2105 565.411 44.7414 565.411 46.5685Z" fill="white" fill-opacity="0.3"/>
<path d="M-54 179.706C-54 181.533 -52.4691 183.064 -50.642 183.064H-17.358V216.348C-17.358 218.175 -15.8272 219.706 -14 219.706C-12.1728 219.706 -10.642 218.175 -10.642 216.348V183.064H22.6914C24.4691 183.064 26 181.533 26 179.706C26 177.878 24.4691 176.348 22.6914 176.348H-10.642V143.014C-10.642 141.236 -12.1728 139.706 -14 139.706C-15.8272 139.706 -17.358 141.236 -17.358 143.014V176.348H-50.642C-52.4691 176.348 -54 177.878 -54 179.706Z" fill="white" fill-opacity="0.3"/>
<path d="M54.2843 207.99C55.5763 209.282 57.7412 209.282 59.0332 207.99L82.5685 184.455L106.104 207.99C107.396 209.282 109.561 209.282 110.853 207.99C112.145 206.698 112.145 204.533 110.853 203.241L87.3175 179.706L110.888 156.135C112.145 154.878 112.145 152.713 110.853 151.421C109.561 150.129 107.396 150.129 106.139 151.386L82.5685 174.957L58.9983 151.386C57.7412 150.129 55.5763 150.129 54.2843 151.421C52.9923 152.713 52.9923 154.878 54.2494 156.135L77.8196 179.706L54.2843 203.241C52.9923 204.533 52.9923 206.698 54.2843 207.99Z" fill="white" fill-opacity="0.3"/>
<path d="M139.137 179.706C139.137 181.533 140.668 183.064 142.495 183.064H175.779V216.348C175.779 218.175 177.31 219.706 179.137 219.706C180.964 219.706 182.495 218.175 182.495 216.348V183.064H215.828C217.606 183.064 219.137 181.533 219.137 179.706C219.137 177.878 217.606 176.348 215.828 176.348H182.495V143.014C182.495 141.236 180.964 139.706 179.137 139.706C177.31 139.706 175.779 141.236 175.779 143.014V176.348H142.495C140.668 176.348 139.137 177.878 139.137 179.706Z" fill="white" fill-opacity="0.3"/>
<path d="M247.421 207.99C248.713 209.282 250.878 209.282 252.17 207.99L275.706 184.455L299.241 207.99C300.533 209.282 302.698 209.282 303.99 207.99C305.282 206.698 305.282 204.533 303.99 203.241L280.455 179.706L304.025 156.135C305.282 154.878 305.282 152.713 303.99 151.421C302.698 150.129 300.533 150.129 299.276 151.386L275.706 174.957L252.135 151.386C250.878 150.129 248.713 150.129 247.421 151.421C246.129 152.713 246.129 154.878 247.386 156.135L270.957 179.706L247.421 203.241C246.129 204.533 246.129 206.698 247.421 207.99Z" fill="white" fill-opacity="0.3"/>
<path d="M332.274 179.706C332.274 181.533 333.805 183.064 335.632 183.064H368.916V216.348C368.916 218.175 370.447 219.706 372.274 219.706C374.101 219.706 375.632 218.175 375.632 216.348V183.064H408.966C410.743 183.064 412.274 181.533 412.274 179.706C412.274 177.878 410.743 176.348 408.966 176.348H375.632V143.014C375.632 141.236 374.101 139.706 372.274 139.706C370.447 139.706 368.916 141.236 368.916 143.014V176.348H335.632C333.805 176.348 332.274 177.878 332.274 179.706Z" fill="white" fill-opacity="0.3"/>
<path d="M440.558 207.99C441.85 209.282 444.015 209.282 445.307 207.99L468.843 184.455L492.378 207.99C493.67 209.282 495.835 209.282 497.127 207.99C498.419 206.698 498.419 204.533 497.127 203.241L473.592 179.706L497.162 156.135C498.419 154.878 498.419 152.713 497.127 151.421C495.835 150.129 493.67 150.129 492.413 151.386L468.843 174.957L445.272 151.386C444.015 150.129 441.85 150.129 440.558 151.421C439.266 152.713 439.266 154.878 440.524 156.135L464.094 179.706L440.558 203.241C439.266 204.533 439.266 206.698 440.558 207.99Z" fill="white" fill-opacity="0.3"/>
<path d="M525.411 179.706C525.411 181.533 526.942 183.064 528.769 183.064H562.053V216.348C562.053 218.175 563.584 219.706 565.411 219.706C567.238 219.706 568.769 218.175 568.769 216.348V183.064H602.103C603.88 183.064 605.411 181.533 605.411 179.706C605.411 177.878 603.88 176.348 602.103 176.348H568.769V143.014C568.769 141.236 567.238 139.706 565.411 139.706C563.584 139.706 562.053 141.236 562.053 143.014V176.348H528.769C526.942 176.348 525.411 177.878 525.411 179.706Z" fill="white" fill-opacity="0.3"/>
<path d="M-14 312.843C-14 314.67 -12.4691 316.201 -10.642 316.201H22.642V349.485C22.642 351.312 24.1728 352.843 26 352.843C27.8272 352.843 29.358 351.312 29.358 349.485V316.201H62.6914C64.4691 316.201 66 314.67 66 312.843C66 311.016 64.4691 309.485 62.6914 309.485H29.358V276.151C29.358 274.374 27.8272 272.843 26 272.843C24.1728 272.843 22.642 274.374 22.642 276.151V309.485H-10.642C-12.4691 309.485 -14 311.016 -14 312.843Z" fill="white" fill-opacity="0.3"/>
<path d="M94.2843 341.127C95.5763 342.419 97.7412 342.419 99.0332 341.127L122.569 317.592L146.104 341.127C147.396 342.419 149.561 342.419 150.853 341.127C152.145 339.835 152.145 337.67 150.853 336.378L127.318 312.843L150.888 289.272C152.145 288.015 152.145 285.85 150.853 284.558C149.561 283.266 147.396 283.266 146.139 284.524L122.569 308.094L98.9983 284.524C97.7412 283.266 95.5763 283.266 94.2843 284.558C92.9923 285.85 92.9923 288.015 94.2494 289.272L117.82 312.843L94.2843 336.378C92.9923 337.67 92.9923 339.835 94.2843 341.127Z" fill="white" fill-opacity="0.3"/>
<path d="M179.137 312.843C179.137 314.67 180.668 316.201 182.495 316.201H215.779V349.485C215.779 351.312 217.31 352.843 219.137 352.843C220.964 352.843 222.495 351.312 222.495 349.485V316.201H255.828C257.606 316.201 259.137 314.67 259.137 312.843C259.137 311.016 257.606 309.485 255.828 309.485H222.495V276.151C222.495 274.374 220.964 272.843 219.137 272.843C217.31 272.843 215.779 274.374 215.779 276.151V309.485H182.495C180.668 309.485 179.137 311.016 179.137 312.843Z" fill="white" fill-opacity="0.3"/>
<path d="M287.421 341.127C288.713 342.419 290.878 342.419 292.17 341.127L315.706 317.592L339.241 341.127C340.533 342.419 342.698 342.419 343.99 341.127C345.282 339.835 345.282 337.67 343.99 336.378L320.455 312.843L344.025 289.272C345.282 288.015 345.282 285.85 343.99 284.558C342.698 283.266 340.533 283.266 339.276 284.524L315.706 308.094L292.135 284.524C290.878 283.266 288.713 283.266 287.421 284.558C286.129 285.85 286.129 288.015 287.386 289.272L310.957 312.843L287.421 336.378C286.129 337.67 286.129 339.835 287.421 341.127Z" fill="white" fill-opacity="0.3"/>
<path d="M372.274 312.843C372.274 314.67 373.805 316.201 375.632 316.201H408.916V349.485C408.916 351.312 410.447 352.843 412.274 352.843C414.101 352.843 415.632 351.312 415.632 349.485V316.201H448.966C450.743 316.201 452.274 314.67 452.274 312.843C452.274 311.016 450.743 309.485 448.966 309.485H415.632V276.151C415.632 274.374 414.101 272.843 412.274 272.843C410.447 272.843 408.916 274.374 408.916 276.151V309.485H375.632C373.805 309.485 372.274 311.016 372.274 312.843Z" fill="white" fill-opacity="0.3"/>
<path d="M480.558 341.127C481.85 342.419 484.015 342.419 485.307 341.127L508.843 317.592L532.378 341.127C533.67 342.419 535.835 342.419 537.127 341.127C538.419 339.835 538.419 337.67 537.127 336.378L513.592 312.843L537.162 289.272C538.419 288.015 538.419 285.85 537.127 284.558C535.835 283.266 533.67 283.266 532.413 284.524L508.843 308.094L485.272 284.524C484.015 283.266 481.85 283.266 480.558 284.558C479.266 285.85 479.266 288.015 480.524 289.272L504.094 312.843L480.558 336.378C479.266 337.67 479.266 339.835 480.558 341.127Z" fill="white" fill-opacity="0.3"/>
<path d="M565.411 312.843C565.411 314.67 566.942 316.201 568.769 316.201H602.053V349.485C602.053 351.312 603.584 352.843 605.411 352.843C607.238 352.843 608.769 351.312 608.769 349.485V316.201H642.103C643.88 316.201 645.411 314.67 645.411 312.843C645.411 311.016 643.88 309.485 642.103 309.485H608.769V276.151C608.769 274.374 607.238 272.843 605.411 272.843C603.584 272.843 602.053 274.374 602.053 276.151V309.485H568.769C566.942 309.485 565.411 311.016 565.411 312.843Z" fill="white" fill-opacity="0.3"/>
<path d="M-54 445.98C-54 447.807 -52.4691 449.338 -50.642 449.338H-17.358V482.622C-17.358 484.449 -15.8272 485.98 -14 485.98C-12.1728 485.98 -10.642 484.449 -10.642 482.622V449.338H22.6914C24.4691 449.338 26 447.807 26 445.98C26 444.153 24.4691 442.622 22.6914 442.622H-10.642V409.288C-10.642 407.511 -12.1728 405.98 -14 405.98C-15.8272 405.98 -17.358 407.511 -17.358 409.288V442.622H-50.642C-52.4691 442.622 -54 444.153 -54 445.98Z" fill="white" fill-opacity="0.3"/>
<path d="M54.2843 474.264C55.5763 475.556 57.7412 475.556 59.0332 474.264L82.5685 450.729L106.104 474.264C107.396 475.556 109.561 475.556 110.853 474.264C112.145 472.972 112.145 470.807 110.853 469.515L87.3175 445.98L110.888 422.41C112.145 421.152 112.145 418.988 110.853 417.696C109.561 416.404 107.396 416.404 106.139 417.661L82.5685 441.231L58.9983 417.661C57.7412 416.404 55.5763 416.404 54.2843 417.696C52.9923 418.988 52.9923 421.152 54.2494 422.41L77.8196 445.98L54.2843 469.515C52.9923 470.807 52.9923 472.972 54.2843 474.264Z" fill="white" fill-opacity="0.3"/>
<path d="M139.137 445.98C139.137 447.807 140.668 449.338 142.495 449.338H175.779V482.622C175.779 484.449 177.31 485.98 179.137 485.98C180.964 485.98 182.495 484.449 182.495 482.622V449.338H215.828C217.606 449.338 219.137 447.807 219.137 445.98C219.137 444.153 217.606 442.622 215.828 442.622H182.495V409.288C182.495 407.511 180.964 405.98 179.137 405.98C177.31 405.98 175.779 407.511 175.779 409.288V442.622H142.495C140.668 442.622 139.137 444.153 139.137 445.98Z" fill="white" fill-opacity="0.3"/>
<path d="M247.421 474.264C248.713 475.556 250.878 475.556 252.17 474.264L275.706 450.729L299.241 474.264C300.533 475.556 302.698 475.556 303.99 474.264C305.282 472.972 305.282 470.807 303.99 469.515L280.455 445.98L304.025 422.41C305.282 421.152 305.282 418.988 303.99 417.696C302.698 416.404 300.533 416.404 299.276 417.661L275.706 441.231L252.135 417.661C250.878 416.404 248.713 416.404 247.421 417.696C246.129 418.988 246.129 421.152 247.386 422.41L270.957 445.98L247.421 469.515C246.129 470.807 246.129 472.972 247.421 474.264Z" fill="white" fill-opacity="0.3"/>
<path d="M332.274 445.98C332.274 447.807 333.805 449.338 335.632 449.338H368.916V482.622C368.916 484.449 370.447 485.98 372.274 485.98C374.101 485.98 375.632 484.449 375.632 482.622V449.338H408.966C410.743 449.338 412.274 447.807 412.274 445.98C412.274 444.153 410.743 442.622 408.966 442.622H375.632V409.288C375.632 407.511 374.101 405.98 372.274 405.98C370.447 405.98 368.916 407.511 368.916 409.288V442.622H335.632C333.805 442.622 332.274 444.153 332.274 445.98Z" fill="white" fill-opacity="0.3"/>
<path d="M440.558 474.264C441.85 475.556 444.015 475.556 445.307 474.264L468.843 450.729L492.378 474.264C493.67 475.556 495.835 475.556 497.127 474.264C498.419 472.972 498.419 470.807 497.127 469.515L473.592 445.98L497.162 422.41C498.419 421.152 498.419 418.988 497.127 417.696C495.835 416.404 493.67 416.404 492.413 417.661L468.843 441.231L445.272 417.661C444.015 416.404 441.85 416.404 440.558 417.696C439.266 418.988 439.266 421.152 440.524 422.41L464.094 445.98L440.558 469.515C439.266 470.807 439.266 472.972 440.558 474.264Z" fill="white" fill-opacity="0.3"/>
<path d="M525.411 445.98C525.411 447.807 526.942 449.338 528.769 449.338H562.053V482.622C562.053 484.449 563.584 485.98 565.411 485.98C567.238 485.98 568.769 484.449 568.769 482.622V449.338H602.103C603.88 449.338 605.411 447.807 605.411 445.98C605.411 444.153 603.88 442.622 602.103 442.622H568.769V409.288C568.769 407.511 567.238 405.98 565.411 405.98C563.584 405.98 562.053 407.511 562.053 409.288V442.622H528.769C526.942 442.622 525.411 444.153 525.411 445.98Z" fill="white" fill-opacity="0.3"/>
<path d="M-14 579.117C-14 580.944 -12.4691 582.475 -10.642 582.475H22.642V615.759C22.642 617.586 24.1728 619.117 26 619.117C27.8272 619.117 29.358 617.586 29.358 615.759V582.475H62.6914C64.4691 582.475 66 580.944 66 579.117C66 577.29 64.4691 575.759 62.6914 575.759H29.358V542.426C29.358 540.648 27.8272 539.117 26 539.117C24.1728 539.117 22.642 540.648 22.642 542.426V575.759H-10.642C-12.4691 575.759 -14 577.29 -14 579.117Z" fill="white" fill-opacity="0.3"/>
<path d="M94.2843 607.401C95.5763 608.693 97.7412 608.693 99.0332 607.401L122.569 583.866L146.104 607.401C147.396 608.693 149.561 608.693 150.853 607.401C152.145 606.109 152.145 603.944 150.853 602.652L127.318 579.117L150.888 555.547C152.145 554.29 152.145 552.125 150.853 550.833C149.561 549.541 147.396 549.541 146.139 550.798L122.569 574.368L98.9983 550.798C97.7412 549.541 95.5763 549.541 94.2843 550.833C92.9923 552.125 92.9923 554.29 94.2494 555.547L117.82 579.117L94.2843 602.652C92.9923 603.944 92.9923 606.109 94.2843 607.401Z" fill="white" fill-opacity="0.3"/>
<path d="M179.137 579.117C179.137 580.944 180.668 582.475 182.495 582.475H215.779V615.759C215.779 617.586 217.31 619.117 219.137 619.117C220.964 619.117 222.495 617.586 222.495 615.759V582.475H255.828C257.606 582.475 259.137 580.944 259.137 579.117C259.137 577.29 257.606 575.759 255.828 575.759H222.495V542.426C222.495 540.648 220.964 539.117 219.137 539.117C217.31 539.117 215.779 540.648 215.779 542.426V575.759H182.495C180.668 575.759 179.137 577.29 179.137 579.117Z" fill="white" fill-opacity="0.3"/>
<path d="M287.421 607.401C288.713 608.693 290.878 608.693 292.17 607.401L315.706 583.866L339.241 607.401C340.533 608.693 342.698 608.693 343.99 607.401C345.282 606.109 345.282 603.944 343.99 602.652L320.455 579.117L344.025 555.547C345.282 554.29 345.282 552.125 343.99 550.833C342.698 549.541 340.533 549.541 339.276 550.798L315.706 574.368L292.135 550.798C290.878 549.541 288.713 549.541 287.421 550.833C286.129 552.125 286.129 554.29 287.386 555.547L310.957 579.117L287.421 602.652C286.129 603.944 286.129 606.109 287.421 607.401Z" fill="white" fill-opacity="0.3"/>
<path d="M372.274 579.117C372.274 580.944 373.805 582.475 375.632 582.475H408.916V615.759C408.916 617.586 410.447 619.117 412.274 619.117C414.101 619.117 415.632 617.586 415.632 615.759V582.475H448.966C450.743 582.475 452.274 580.944 452.274 579.117C452.274 577.29 450.743 575.759 448.966 575.759H415.632V542.426C415.632 540.648 414.101 539.117 412.274 539.117C410.447 539.117 408.916 540.648 408.916 542.426V575.759H375.632C373.805 575.759 372.274 577.29 372.274 579.117Z" fill="white" fill-opacity="0.3"/>
<path d="M480.558 607.401C481.85 608.693 484.015 608.693 485.307 607.401L508.843 583.866L532.378 607.401C533.67 608.693 535.835 608.693 537.127 607.401C538.419 606.109 538.419 603.944 537.127 602.652L513.592 579.117L537.162 555.547C538.419 554.29 538.419 552.125 537.127 550.833C535.835 549.541 533.67 549.541 532.413 550.798L508.843 574.368L485.272 550.798C484.015 549.541 481.85 549.541 480.558 550.833C479.266 552.125 479.266 554.29 480.524 555.547L504.094 579.117L480.558 602.652C479.266 603.944 479.266 606.109 480.558 607.401Z" fill="white" fill-opacity="0.3"/>
<path d="M565.411 579.117C565.411 580.944 566.942 582.475 568.769 582.475H602.053V615.759C602.053 617.586 603.584 619.117 605.411 619.117C607.238 619.117 608.769 617.586 608.769 615.759V582.475H642.103C643.88 582.475 645.411 580.944 645.411 579.117C645.411 577.29 643.88 575.759 642.103 575.759H608.769V542.426C608.769 540.648 607.238 539.117 605.411 539.117C603.584 539.117 602.053 540.648 602.053 542.426V575.759H568.769C566.942 575.759 565.411 577.29 565.411 579.117Z" fill="white" fill-opacity="0.3"/>
<path d="M-54 712.254C-54 714.081 -52.4691 715.612 -50.642 715.612H-17.358V748.896C-17.358 750.723 -15.8272 752.254 -14 752.254C-12.1728 752.254 -10.642 750.723 -10.642 748.896V715.612H22.6914C24.4691 715.612 26 714.081 26 712.254C26 710.427 24.4691 708.896 22.6914 708.896H-10.642V675.563C-10.642 673.785 -12.1728 672.254 -14 672.254C-15.8272 672.254 -17.358 673.785 -17.358 675.563V708.896H-50.642C-52.4691 708.896 -54 710.427 -54 712.254Z" fill="white" fill-opacity="0.3"/>
<path d="M54.2843 740.538C55.5763 741.83 57.7412 741.83 59.0332 740.538L82.5685 717.003L106.104 740.538C107.396 741.83 109.561 741.83 110.853 740.538C112.145 739.246 112.145 737.081 110.853 735.789L87.3175 712.254L110.888 688.684C112.145 687.427 112.145 685.262 110.853 683.97C109.561 682.678 107.396 682.678 106.139 683.935L82.5685 707.505L58.9983 683.935C57.7412 682.678 55.5763 682.678 54.2843 683.97C52.9923 685.262 52.9923 687.427 54.2494 688.684L77.8196 712.254L54.2843 735.789C52.9923 737.081 52.9923 739.246 54.2843 740.538Z" fill="white" fill-opacity="0.3"/>
<path d="M139.137 712.254C139.137 714.081 140.668 715.612 142.495 715.612H175.779V748.896C175.779 750.723 177.31 752.254 179.137 752.254C180.964 752.254 182.495 750.723 182.495 748.896V715.612H215.828C217.606 715.612 219.137 714.081 219.137 712.254C219.137 710.427 217.606 708.896 215.828 708.896H182.495V675.563C182.495 673.785 180.964 672.254 179.137 672.254C177.31 672.254 175.779 673.785 175.779 675.563V708.896H142.495C140.668 708.896 139.137 710.427 139.137 712.254Z" fill="white" fill-opacity="0.3"/>
<path d="M247.421 740.538C248.713 741.83 250.878 741.83 252.17 740.538L275.706 717.003L299.241 740.538C300.533 741.83 302.698 741.83 303.99 740.538C305.282 739.246 305.282 737.081 303.99 735.789L280.455 712.254L304.025 688.684C305.282 687.427 305.282 685.262 303.99 683.97C302.698 682.678 300.533 682.678 299.276 683.935L275.706 707.505L252.135 683.935C250.878 682.678 248.713 682.678 247.421 683.97C246.129 685.262 246.129 687.427 247.386 688.684L270.957 712.254L247.421 735.789C246.129 737.081 246.129 739.246 247.421 740.538Z" fill="white" fill-opacity="0.3"/>
<path d="M332.274 712.254C332.274 714.081 333.805 715.612 335.632 715.612H368.916V748.896C368.916 750.723 370.447 752.254 372.274 752.254C374.101 752.254 375.632 750.723 375.632 748.896V715.612H408.966C410.743 715.612 412.274 714.081 412.274 712.254C412.274 710.427 410.743 708.896 408.966 708.896H375.632V675.563C375.632 673.785 374.101 672.254 372.274 672.254C370.447 672.254 368.916 673.785 368.916 675.563V708.896H335.632C333.805 708.896 332.274 710.427 332.274 712.254Z" fill="white" fill-opacity="0.3"/>
<path d="M440.558 740.538C441.85 741.83 444.015 741.83 445.307 740.538L468.843 717.003L492.378 740.538C493.67 741.83 495.835 741.83 497.127 740.538C498.419 739.246 498.419 737.081 497.127 735.789L473.592 712.254L497.162 688.684C498.419 687.427 498.419 685.262 497.127 683.97C495.835 682.678 493.67 682.678 492.413 683.935L468.843 707.505L445.272 683.935C444.015 682.678 441.85 682.678 440.558 683.97C439.266 685.262 439.266 687.427 440.524 688.684L464.094 712.254L440.558 735.789C439.266 737.081 439.266 739.246 440.558 740.538Z" fill="white" fill-opacity="0.3"/>
<path d="M525.411 712.254C525.411 714.081 526.942 715.612 528.769 715.612H562.053V748.896C562.053 750.723 563.584 752.254 565.411 752.254C567.238 752.254 568.769 750.723 568.769 748.896V715.612H602.103C603.88 715.612 605.411 714.081 605.411 712.254C605.411 710.427 603.88 708.896 602.103 708.896H568.769V675.563C568.769 673.785 567.238 672.254 565.411 672.254C563.584 672.254 562.053 673.785 562.053 675.563V708.896H528.769C526.942 708.896 525.411 710.427 525.411 712.254Z" fill="white" fill-opacity="0.3"/>
</svg>
