<svg fill="none" height="78" viewBox="0 0 156 78" width="156" xmlns="http://www.w3.org/2000/svg" xmlns:xlink="http://www.w3.org/1999/xlink"><clipPath id="a"><path d="m0-2.10809h156v82.2162h-156z"/></clipPath><g clip-path="url(#a)"><path d="m156-2.10809h-156v82.21619h156z" fill="#f5ebff"/><path d="m109.694 19.2028h-4.342v-1.4877c.026-.5873-.351-1.1223-.923-1.2789-3.003-.7961-6.1101-1.1876-9.2171-1.1745-5.109 0-12.077 1.1614-17.238 6.4207-5.109-5.3115-12.129-6.4207-17.238-6.4207-3.107-.0131-6.214.3915-9.217 1.1745-.559.1696-.949.6916-.923 1.2789v1.4747h-4.303c-.702 0-1.274.5742-1.274 1.2789v40.9907c0 .7047.572 1.2789 1.274 1.2789.221 0 .429-.0522.624-.1697.13-.0652 12.909-7.0862 30.758-2.5709h.195.117c.104.0131.208.0131.312 0 17.901-4.5545 30.6801 2.4535 30.7581 2.5709.39.2349.884.2349 1.274 0 .39-.2218.637-.6525.637-1.1092v-40.9777c.013-.7047-.559-1.2789-1.274-1.2789zm-62.1141 40.2207v-37.6498h3.055v32.1818c-.013.7047.559 1.292 1.261 1.292.065 0 .143 0 .208-.0131 2.639-.4045 5.317-.6133 7.995-.6394 3.705-.0653 7.397.4959 10.92 1.6573-7.956-.9657-16.029.1305-23.439 3.1712zm12.519-7.3864c-2.327 0-4.654.1566-6.955.4437v-33.7478c2.483-.5611 5.031-.8352 7.579-.8482 4.784 0 11.375 1.1092 15.951 6.2901l.039 31.973c-2.652-1.7618-7.852-4.1108-16.614-4.1108zm42.7051-33.278c-.026-.013-.078-.0391-.156-.0652.052.013.104.0261.156.0391zm-23.5041 5.3767-.026.6525v-.6134c.013-.013.013-.026.026-.0391zm29.1071 35.2877c-7.436-3.0537-15.5091-4.1499-23.4911-3.1712 3.536-1.1614 7.241-1.7226 10.972-1.6573 2.691.013 5.3821.2218 8.0471.6264.702.1044 1.352-.3785 1.456-1.0702.013-.0652.013-.1435.013-.2088v-.0652h.026l-.026-.3654v-31.7381h3.055z" fill="#04295e"/></g></svg>