<svg fill="none" height="171" viewBox="0 0 342 171" width="342" xmlns="http://www.w3.org/2000/svg" xmlns:xlink="http://www.w3.org/1999/xlink"><clipPath id="a"><path d="m111 26h120v120h-120z"/></clipPath><path d="m342-4h-342v179.55h342z" fill="#fff"/><g clip-path="url(#a)"><path d="m169.55 26.6-28.975 28.975-28.975 28.975c-.8.8-.8 2.1 0 2.9l28.975 28.975 28.975 28.975c.8.8 2.1.8 2.9 0l28.975-28.975 28.975-28.975c.8-.8.8-2.1 0-2.9l-28.975-28.975-28.975-28.975c-.8-.8-2.1-.8-2.9 0zm29.05 86.85-8.3-8.3c-.225-.225-.625-.075-.625.25-.275 5.975-7.025 10.475-13.75 6.025-.025-.025-.05-.05-.075-.075-5.5-6.425-1.275-14.1 5.125-14.5h.15c.325-.025.475-.4.25-.625l-9.75-9.75c-.15-.15-.375-.15-.525 0l-9.75 9.75c-.225.225-.625.075-.625-.25-.275-5.975-7.025-10.475-13.75-6.025-.025.025-.05.05-.075.075-5.5 6.425-1.275 14.1 5.125 14.5h.15c.325.025.475.4.25.625l-8.675 8.625-.275-.275-27.525-27.5 27.525-27.525.075-.075 8.575 8.575c.225.225.625.075.625-.25.275-5.975 7.025-10.475 13.75-6.025.025.025.05.05.075.075 5.5 6.425 1.275 14.1-5.125 14.5-.05 0-.1 0-.15 0-.325.025-.475.4-.25.625l9.75 9.75c.15.15.375.15.525 0l9.75-9.75c.225-.225.625-.075.625.25.275 5.975 7.025 10.475 13.75 6.025.025-.025.05-.05.075-.075 5.5-6.425 1.275-14.1-5.125-14.5-.05 0-.1 0-.15 0-.325-.025-.475-.4-.25-.625l8.5-8.5 27.55 27.525z" fill="#f5ebff"/></g></svg>