<svg fill="none" height="44" viewBox="0 0 44 44" width="44" xmlns="http://www.w3.org/2000/svg"><path d="m22 44c12.1503 0 22-9.8497 22-22 0-12.15026-9.8497-22-22-22-12.15026 0-22 9.84974-22 22 0 12.1503 9.84974 22 22 22z" fill="#04295e"/><g fill="#f5ebff"><path d="m36.333 11.6381c.2695 0 .4895.22.4895.4895v19.6955c0 .2695-.22.4895-.4895.4895h-28.72104c-.2695 0-.4895-.22-.4895-.4895v-19.701c0-.2695.22-.4895.4895-.4895h28.72104zm0-1.1h-28.72104c-.8745 0-1.5895.7095-1.5895 1.5895v19.6955c0 .8745.7095 1.5895 1.5895 1.5895h28.72654c.8745 0 1.5895-.7095 1.5895-1.5895v-19.701c-.0055-.8745-.715-1.584-1.595-1.584z"/><path d="m37.7025 14.5256h-31.40501v1.1h31.40501z"/><path d="m8.90455 13.6841c.32805 0 .594-.2659.594-.594s-.26595-.594-.594-.594c-.32806 0-.594.2659-.594.594s.26594.594.594.594z"/><path d="m11.099 13.6841c.3281 0 .594-.2659.594-.594s-.2659-.594-.594-.594-.594.2659-.594.594.2659.594.594.594z"/><path d="m13.288 13.6841c.328 0 .594-.2659.594-.594s-.266-.594-.594-.594c-.3281 0-.594.2659-.594.594s.2659.594.594.594z"/><path d="m31.944 19.6351h-20.24c-.242 0-.44-.198-.44-.44s.198-.44.44-.44h20.24c.242 0 .44.198.44.44s-.198.44-.44.44z"/><path d="m31.944 22.7921h-20.24c-.242 0-.44-.198-.44-.44s.198-.44.44-.44h20.24c.242 0 .44.198.44.44s-.198.44-.44.44z"/><path d="m31.944 25.949h-20.24c-.242 0-.44-.198-.44-.44s.198-.44.44-.44h20.24c.242 0 .44.198.44.44s-.198.44-.44.44z"/><path d="m31.944 29.1116h-20.24c-.242 0-.44-.198-.44-.44s.198-.44.44-.44h20.24c.242 0 .44.198.44.44s-.198.44-.44.44z"/></g></svg>